{"glyphs":{"0":{"ha":772,"x_min":68,"x_max":718,"o":"m 388 958 q 608 855 520 958 q 718 471 718 728 q 623 106 718 231 q 393 -19 528 -19 q 177 86 264 -19 q 68 468 68 218 q 171 846 68 705 q 388 958 253 958 m 392 909 q 252 824 302 909 q 202 468 202 738 q 254 116 202 204 q 393 28 306 28 q 529 109 481 28 q 585 463 585 206 q 532 819 585 729 q 392 909 479 909 z "},"1":{"ha":772,"x_min":153,"x_max":665,"o":"m 471 941 l 471 94 q 485 65 471 75 q 533 51 505 51 l 665 51 l 665 0 l 177 0 l 177 51 l 290 51 q 342 67 325 51 q 359 112 359 84 l 359 751 q 343 785 359 771 q 303 798 328 798 l 153 798 l 153 845 q 324 881 258 859 q 440 941 390 904 l 471 941 z "},"2":{"ha":772,"x_min":65,"x_max":694,"o":"m 218 149 q 203 129 218 149 q 526 109 187 109 q 599 135 577 109 q 648 281 621 161 l 694 281 l 673 0 l 65 0 l 65 37 l 262 261 q 460 486 427 440 q 530 613 508 552 q 551 725 551 675 q 505 856 551 808 q 377 904 459 904 q 227 860 285 904 q 168 766 168 816 q 177 741 168 749 q 212 725 185 732 q 281 645 281 709 q 258 588 281 610 q 199 565 235 565 q 126 603 157 565 q 95 703 95 642 q 131 829 95 772 q 238 922 166 886 q 393 958 310 958 q 545 923 475 958 q 650 830 615 888 q 686 705 686 773 q 668 610 686 659 q 616 520 650 562 q 496 396 558 448 l 317 245 q 218 149 250 189 z "},"3":{"ha":772,"x_min":94,"x_max":709,"o":"m 488 501 q 640 422 585 477 q 709 250 709 353 q 626 62 709 133 q 380 -19 532 -19 q 224 11 290 -19 q 126 92 159 41 q 94 206 94 142 q 119 288 94 258 q 182 317 144 317 q 237 295 216 317 q 258 233 258 272 q 248 190 258 208 q 210 158 237 173 q 180 128 180 142 q 201 82 180 108 q 262 42 222 57 q 364 26 302 26 q 522 79 471 26 q 573 248 573 132 q 529 420 573 369 q 399 471 486 471 q 342 466 376 471 q 302 462 314 462 q 270 470 281 462 q 259 492 259 479 q 270 514 259 506 q 304 522 280 522 l 341 520 l 374 519 q 503 563 460 519 q 547 699 547 607 q 505 860 547 812 q 382 908 464 908 q 262 881 307 908 q 217 831 217 854 q 243 791 217 816 q 279 720 279 757 q 259 673 279 692 q 207 654 239 654 q 152 680 173 654 q 130 752 130 706 q 182 880 130 824 q 391 958 255 958 q 595 890 519 958 q 671 720 671 821 q 630 595 671 648 q 488 501 589 542 z "},"4":{"ha":772,"x_min":74,"x_max":729,"o":"m 529 941 l 573 941 l 573 299 l 729 299 l 729 241 l 573 241 l 573 97 q 588 66 573 78 q 638 51 610 51 l 696 51 l 696 0 l 319 0 l 319 51 l 389 51 q 441 66 425 51 q 458 109 458 81 l 458 241 l 74 241 l 74 307 l 529 941 m 458 757 l 130 299 l 458 299 l 458 757 z "},"5":{"ha":772,"x_min":97,"x_max":707,"o":"m 188 958 q 468 919 359 919 q 564 929 519 919 q 631 951 608 939 q 646 958 642 958 q 652 947 652 958 q 622 885 652 924 q 539 823 591 846 q 418 800 486 800 q 229 824 338 800 l 206 565 q 304 604 258 591 q 393 616 351 616 q 617 528 526 616 q 707 311 707 440 q 611 74 707 167 q 361 -19 515 -19 q 171 48 244 -19 q 97 207 97 115 q 120 293 97 262 q 180 323 144 323 q 239 299 216 323 q 262 236 262 275 q 251 191 262 207 q 210 163 239 174 q 180 137 180 152 q 200 89 180 115 q 261 46 220 63 q 355 30 302 30 q 514 94 459 30 q 568 304 568 159 q 511 497 568 436 q 363 558 453 558 q 282 543 323 558 q 201 498 241 528 q 184 435 196 451 q 153 419 172 419 q 131 429 139 419 q 123 455 123 438 q 151 514 123 485 q 162 530 159 523 l 178 729 q 188 958 187 847 z "},"6":{"ha":772,"x_min":79,"x_max":726,"o":"m 221 445 q 332 546 274 515 q 460 576 391 576 q 649 500 573 576 q 726 307 726 424 q 635 74 726 167 q 412 -19 545 -19 q 245 31 319 -19 q 126 186 172 81 q 79 433 79 292 q 136 710 79 586 q 282 896 193 834 q 467 958 370 958 q 635 904 566 958 q 692 798 692 860 q 667 730 692 757 q 605 704 642 704 q 547 726 571 704 q 523 779 523 749 q 539 825 523 800 q 554 863 554 849 q 536 894 554 882 q 469 909 511 909 q 349 868 403 909 q 257 726 294 827 q 219 500 219 625 q 221 445 219 481 m 423 510 q 284 449 338 510 q 231 276 231 387 q 283 92 231 155 q 416 28 335 28 q 545 88 496 28 q 593 269 593 149 q 548 453 593 396 q 423 510 503 510 z "},"7":{"ha":772,"x_min":105,"x_max":720,"o":"m 154 958 q 298 941 220 941 l 720 941 l 720 909 q 581 633 627 746 q 511 417 534 520 q 479 177 487 314 q 467 37 473 64 q 442 -4 460 10 q 393 -19 423 -19 q 340 4 359 -19 q 321 77 321 27 q 337 187 321 121 q 408 385 353 253 q 536 662 482 561 l 630 834 l 262 834 q 202 806 222 834 q 154 635 182 777 l 105 635 l 154 958 z "},"8":{"ha":772,"x_min":84,"x_max":729,"o":"m 524 532 q 681 430 633 493 q 729 277 729 366 q 659 86 729 168 q 402 -19 569 -19 q 170 52 255 -19 q 84 229 84 123 q 133 367 84 308 q 303 468 182 427 q 125 705 125 545 q 205 883 125 808 q 409 958 286 958 q 556 929 494 958 q 652 850 619 900 q 685 745 685 800 q 524 532 685 617 m 472 550 q 568 630 543 591 q 592 734 592 670 q 544 865 592 819 q 404 911 496 911 q 266 868 315 911 q 216 756 216 825 q 259 647 216 688 q 472 550 302 606 m 354 449 q 220 357 258 408 q 183 233 183 307 q 240 83 183 136 q 403 30 296 30 q 578 83 515 30 q 640 224 640 136 q 586 344 640 303 q 354 449 532 385 z "},"9":{"ha":772,"x_min":80,"x_max":719,"o":"m 583 487 q 480 387 539 420 q 348 353 421 353 q 163 425 246 353 q 80 634 80 496 q 172 864 80 769 q 391 958 264 958 q 625 842 532 958 q 719 514 719 725 q 667 219 719 339 q 530 40 615 98 q 337 -19 444 -19 q 175 27 233 -19 q 116 136 116 73 q 140 204 116 178 q 201 230 164 230 q 257 208 234 230 q 280 154 280 185 q 259 104 280 132 q 246 75 246 87 q 269 42 246 56 q 340 28 291 28 q 465 67 411 28 q 551 196 518 106 q 585 427 585 285 l 583 487 m 393 909 q 269 846 317 909 q 220 655 220 783 q 269 481 220 538 q 396 424 317 424 q 527 486 474 424 q 581 659 581 547 q 525 842 581 774 q 393 909 470 909 z "}," ":{"ha":386,"x_min":0,"x_max":0,"o":""},"!":{"ha":411,"x_min":123,"x_max":296,"o":"m 227 294 l 191 294 q 184 476 191 416 q 150 711 174 576 q 123 910 123 863 q 147 999 123 969 q 210 1028 171 1028 q 273 1000 250 1028 q 296 912 296 972 q 269 711 296 861 q 236 493 244 580 q 227 294 228 407 m 210 146 q 268 122 244 146 q 292 63 292 98 q 268 5 292 30 q 210 -19 243 -19 q 152 5 176 -19 q 127 63 127 28 q 151 122 127 98 q 210 146 175 146 z "},"\"":{"ha":541,"x_min":75,"x_max":465,"o":"m 128 556 l 91 758 q 75 873 75 840 q 93 938 75 917 q 142 958 111 958 q 193 938 172 958 q 213 883 213 917 q 195 758 213 854 l 158 556 l 128 556 m 380 556 l 342 758 q 326 876 326 845 q 345 938 326 918 q 396 958 364 958 q 446 938 427 958 q 465 883 465 918 q 452 758 465 825 l 413 556 l 380 556 z "},"#":{"ha":772,"x_min":-23,"x_max":760,"o":"m -23 718 l 205 718 l 266 1003 l 351 1003 l 290 718 l 535 718 l 597 1003 l 683 1003 l 623 718 l 760 718 l 760 631 l 606 631 l 551 372 l 760 372 l 760 283 l 535 283 l 475 0 l 388 0 l 448 283 l 200 283 l 142 0 l 55 0 l 115 283 l -23 283 l -23 372 l 133 372 l 187 631 l -23 631 l -23 718 m 273 631 l 218 372 l 465 372 l 519 631 l 273 631 z "},"$":{"ha":772,"x_min":99,"x_max":703,"o":"m 366 1023 l 423 1023 l 423 957 q 533 935 467 957 q 636 865 600 912 q 673 760 673 819 q 650 691 673 716 q 594 665 628 665 q 544 686 564 665 q 523 736 523 706 q 547 799 523 768 q 572 842 572 832 q 541 880 572 861 q 423 910 494 907 l 423 543 q 637 414 572 491 q 703 237 703 337 q 630 59 703 128 q 423 -20 557 -10 l 423 -189 l 366 -189 l 366 -20 q 223 8 286 -20 q 129 82 159 37 q 99 182 99 128 q 123 260 99 231 q 182 289 147 289 q 237 266 215 289 q 258 205 258 243 q 227 140 258 167 q 191 98 191 109 q 229 58 191 78 q 366 27 280 29 l 366 414 q 109 701 109 497 q 178 878 109 807 q 366 957 248 949 l 366 1023 m 366 565 l 366 909 q 233 858 281 904 q 184 746 184 812 q 221 647 184 690 q 366 565 258 605 m 423 392 l 423 28 q 568 84 517 36 q 618 201 618 132 q 578 307 618 261 q 423 392 538 352 z "},"%":{"ha":1157,"x_min":71,"x_max":1083,"o":"m 269 958 q 413 891 357 958 q 469 705 469 825 q 413 525 469 590 q 269 460 356 460 q 127 526 184 460 q 71 709 71 592 q 128 890 71 822 q 269 958 185 958 m 271 926 q 200 881 228 926 q 173 711 173 836 q 200 537 173 583 q 269 490 227 490 q 340 536 313 490 q 368 702 368 583 q 341 880 368 833 q 271 926 315 926 m 897 941 l 956 941 l 264 0 l 206 0 l 897 941 m 882 479 q 1027 413 971 479 q 1083 227 1083 346 q 1027 46 1083 112 q 884 -19 970 -19 q 741 47 798 -19 q 685 231 685 113 q 742 411 685 343 q 882 479 799 479 m 885 448 q 814 402 842 448 q 787 233 787 357 q 814 58 787 104 q 883 12 841 12 q 954 58 926 12 q 982 223 982 104 q 955 401 982 355 q 885 448 928 448 z "},"&":{"ha":1132,"x_min":90,"x_max":1063,"o":"m 477 578 q 612 360 565 429 q 714 226 659 292 q 820 440 820 357 q 793 499 820 477 q 714 521 767 521 l 678 521 l 678 568 l 1055 568 l 1055 521 l 1027 521 q 966 510 990 521 q 923 476 943 499 q 874 393 903 454 q 751 186 817 270 q 913 92 844 92 q 983 125 955 92 q 1021 239 1011 158 l 1063 239 q 1008 47 1063 113 q 870 -19 954 -19 q 775 5 823 -19 q 658 91 726 28 q 517 5 579 28 q 385 -19 456 -19 q 173 63 257 -19 q 90 265 90 145 q 143 431 90 357 q 334 578 196 505 q 270 798 270 710 q 339 961 270 894 q 510 1028 409 1028 q 662 979 606 1028 q 718 847 718 929 q 664 704 718 769 q 477 578 611 640 m 451 630 q 585 721 549 673 q 622 838 622 770 q 588 939 622 901 q 503 976 555 976 q 417 940 451 976 q 383 846 383 905 q 451 630 383 760 m 358 525 q 215 334 215 446 q 282 155 215 249 q 448 61 349 61 q 621 130 533 61 q 503 285 555 208 q 358 525 451 362 z "},"'":{"ha":283,"x_min":73,"x_max":211,"o":"m 125 556 l 88 760 q 73 873 73 844 q 90 938 73 918 q 140 958 108 958 q 191 938 171 958 q 211 884 211 918 q 193 760 211 859 l 155 556 l 125 556 z "},"(":{"ha":463,"x_min":90,"x_max":456,"o":"m 439 1182 l 456 1145 q 314 960 360 1042 q 244 772 269 877 q 220 530 220 667 q 245 293 220 397 q 318 103 271 189 q 456 -78 366 18 l 439 -113 q 274 51 330 -17 q 136 281 183 161 q 90 534 90 402 q 133 780 90 663 q 262 1002 177 897 q 439 1182 321 1076 z "},")":{"ha":463,"x_min":6,"x_max":373,"o":"m 24 1182 q 197 1007 142 1074 q 328 783 283 902 q 373 534 373 665 q 330 290 373 405 q 199 66 286 176 q 24 -113 138 -12 l 6 -78 q 144 103 96 17 q 217 293 192 189 q 242 529 242 397 q 218 772 242 667 q 148 960 193 877 q 6 1145 102 1043 l 24 1182 z "},"*":{"ha":694,"x_min":66,"x_max":629,"o":"m 365 758 q 411 777 390 766 q 467 819 427 786 q 526 862 508 853 q 562 870 545 870 q 610 851 591 870 q 629 805 629 833 q 606 755 629 774 q 534 736 583 736 l 508 737 l 463 739 q 374 724 420 739 q 472 643 410 682 q 526 599 513 617 q 538 559 538 581 q 519 512 538 531 q 475 492 500 492 q 429 511 448 492 q 396 578 409 529 q 371 661 382 635 q 348 702 363 681 q 323 661 333 682 q 303 593 317 645 q 275 517 286 532 q 221 493 256 493 q 173 510 191 493 q 154 554 154 528 q 218 643 154 601 q 277 684 266 674 q 317 724 293 697 q 235 739 281 739 l 203 737 l 169 736 q 91 755 116 736 q 66 808 66 774 q 84 852 66 834 q 130 869 102 869 q 229 819 170 869 q 282 779 260 792 q 330 758 298 770 l 330 779 q 313 858 330 811 q 283 956 283 934 q 302 1008 283 987 q 348 1029 321 1029 q 394 1009 375 1029 q 413 961 413 989 q 386 866 413 942 q 365 758 368 817 z "},"+":{"ha":842,"x_min":47,"x_max":795,"o":"m 47 515 l 376 515 l 376 844 l 467 844 l 467 515 l 795 515 l 795 425 l 467 425 l 467 98 l 376 98 l 376 425 l 47 425 l 47 515 z "},",":{"ha":386,"x_min":90,"x_max":281,"o":"m 115 -236 l 90 -203 q 221 -28 221 -104 q 217 -13 221 -18 q 206 -7 214 -7 l 191 -10 q 170 -12 178 -12 q 117 12 140 -12 q 94 69 94 35 q 117 125 94 102 q 176 149 140 149 q 251 114 221 149 q 281 18 281 79 q 115 -236 281 -114 z "},"-":{"ha":463,"x_min":93,"x_max":368,"o":"m 93 586 l 368 586 l 368 483 l 93 483 l 93 586 z "},".":{"ha":386,"x_min":111,"x_max":275,"o":"m 193 148 q 251 123 227 148 q 275 65 275 99 q 251 5 275 30 q 193 -19 227 -19 q 135 5 159 -19 q 111 64 111 30 q 135 123 111 99 q 193 148 159 148 z "},"/":{"ha":386,"x_min":0,"x_max":386,"o":"m 386 1003 l 87 0 l 0 0 l 299 1003 l 386 1003 z "},":":{"ha":386,"x_min":113,"x_max":278,"o":"m 195 865 q 253 842 229 865 q 277 783 277 818 q 253 725 277 748 q 195 701 230 701 q 137 725 161 701 q 113 783 113 749 q 137 841 113 817 q 195 865 161 865 m 196 359 q 254 335 230 359 q 278 276 278 311 q 254 216 278 241 q 196 192 230 192 q 137 216 162 192 q 113 275 113 241 q 137 334 113 310 q 196 359 161 359 z "},";":{"ha":386,"x_min":101,"x_max":291,"o":"m 196 865 q 254 842 231 865 q 277 783 277 818 q 254 726 277 749 q 197 702 230 702 q 137 726 161 702 q 113 782 113 749 q 137 841 113 817 q 196 865 161 865 m 124 -25 l 101 7 q 231 186 231 104 q 217 203 231 203 q 201 200 212 203 q 178 197 188 197 q 127 221 149 197 q 104 280 104 245 q 128 336 104 313 q 186 359 151 359 q 260 324 230 359 q 291 233 291 289 q 124 -25 291 94 z "},"<":{"ha":842,"x_min":47,"x_max":794,"o":"m 794 115 l 47 430 l 47 511 l 794 825 l 794 728 l 169 471 l 794 214 l 794 115 z "},"=":{"ha":842,"x_min":47,"x_max":795,"o":"m 47 679 l 795 679 l 795 588 l 47 588 l 47 679 m 47 357 l 795 357 l 795 267 l 47 267 l 47 357 z "},">":{"ha":842,"x_min":47,"x_max":794,"o":"m 47 825 l 794 511 l 794 429 l 47 115 l 47 213 l 673 470 l 47 728 l 47 825 z "},"?":{"ha":616,"x_min":55,"x_max":566,"o":"m 300 293 l 264 293 q 273 419 264 373 q 295 492 281 465 q 362 590 308 519 q 422 695 405 646 q 439 803 439 744 q 394 932 439 883 q 284 981 349 981 q 190 953 228 981 q 153 896 153 925 q 179 859 153 880 q 219 791 219 828 q 198 737 219 759 q 145 715 177 715 q 81 746 107 715 q 55 826 55 777 q 127 966 55 904 q 308 1028 199 1028 q 493 959 420 1028 q 566 790 566 890 q 541 675 566 726 q 445 566 522 636 q 324 434 345 477 q 300 293 302 391 m 284 146 q 342 123 318 146 q 366 66 366 99 q 342 6 366 31 q 284 -19 318 -19 q 227 5 250 -19 q 203 66 203 30 q 227 123 203 100 q 284 146 250 146 z "},"@":{"ha":1023,"x_min":8,"x_max":1010,"o":"m 767 690 l 685 411 l 655 307 q 646 247 646 270 q 658 211 646 224 q 689 199 670 199 q 788 242 734 199 q 882 378 842 285 q 921 572 921 471 q 873 749 921 666 q 745 875 825 831 q 557 919 664 919 q 312 851 425 919 q 135 662 200 783 q 70 391 70 541 q 125 148 70 250 q 285 -14 180 46 q 516 -73 389 -73 q 790 10 668 -73 q 970 237 913 94 l 1010 237 q 825 -17 963 83 q 512 -117 688 -117 q 151 28 294 -117 q 8 394 8 173 q 81 680 8 550 q 279 884 154 810 q 552 958 405 958 q 769 909 676 958 q 913 768 861 859 q 965 563 965 677 q 877 283 965 410 q 650 155 789 155 q 581 176 604 155 q 558 237 558 197 q 569 319 558 269 q 436 188 488 221 q 342 155 384 155 q 268 191 299 155 q 237 288 237 227 q 292 477 237 375 q 424 636 347 578 q 557 694 501 694 q 621 674 597 694 q 654 614 646 654 l 673 677 l 767 690 m 564 667 q 412 532 491 667 q 332 307 332 397 q 352 247 332 269 q 400 224 371 224 q 483 263 437 224 q 589 409 545 316 q 633 579 633 501 q 614 644 633 622 q 564 667 595 667 z "},"A":{"ha":1003,"x_min":-10,"x_max":1010,"o":"m 485 1024 l 530 1024 l 890 106 q 979 51 912 51 l 1010 51 l 1010 0 l 610 0 l 610 51 l 642 51 q 730 64 705 51 q 748 94 748 74 q 743 118 748 105 l 660 331 l 264 331 l 217 209 q 199 132 199 160 q 230 75 199 98 q 319 51 260 51 l 353 51 l 353 0 l -10 0 l -10 51 q 82 76 48 51 q 144 173 116 102 l 485 1024 m 465 831 l 286 384 l 640 384 l 465 831 z "},"B":{"ha":1003,"x_min":66,"x_max":961,"o":"m 66 1003 l 589 1003 q 824 935 743 1003 q 906 765 906 867 q 849 620 906 680 q 677 526 792 560 q 890 432 819 496 q 961 270 961 368 q 921 138 961 195 q 786 40 880 80 q 573 0 692 0 l 66 0 l 66 51 l 149 51 q 203 63 186 51 q 220 91 220 75 l 220 895 q 203 938 220 923 q 154 952 186 952 l 66 952 l 66 1003 m 366 542 l 555 542 q 695 593 643 542 q 747 762 747 645 q 722 876 747 835 q 650 935 697 916 q 487 954 603 954 q 385 942 405 954 q 366 900 366 930 l 366 542 m 366 492 l 366 105 q 381 64 366 78 q 439 51 397 51 l 560 51 q 739 104 681 51 q 796 270 796 157 q 736 432 796 373 q 572 492 677 492 l 366 492 z "},"C":{"ha":1003,"x_min":96,"x_max":936,"o":"m 804 925 l 850 1022 l 893 1022 l 911 618 l 865 618 q 753 869 821 789 q 552 970 669 970 q 347 858 426 970 q 267 477 267 745 q 358 132 267 251 q 575 32 435 32 q 780 110 697 32 q 888 347 863 189 l 936 347 q 813 71 915 168 q 557 -25 711 -25 q 327 38 431 -25 q 159 219 222 101 q 96 479 96 338 q 161 760 96 629 q 327 958 226 892 q 545 1024 428 1024 q 671 1002 610 1024 q 804 925 732 979 z "},"D":{"ha":1080,"x_min":47,"x_max":1002,"o":"m 47 1003 l 566 1003 q 762 962 681 1003 q 932 791 862 911 q 1002 507 1002 671 q 960 262 1002 371 q 862 117 928 179 q 701 23 796 54 q 511 0 630 0 l 47 0 l 47 51 l 142 51 q 192 62 178 51 q 206 98 206 74 l 206 906 q 191 940 206 927 q 150 952 176 952 l 47 952 l 47 1003 m 411 952 q 366 939 380 952 q 351 901 351 926 l 351 100 q 368 63 351 76 q 426 51 385 51 l 511 51 q 712 110 626 51 q 798 220 768 149 q 838 486 838 317 q 750 854 838 737 q 525 952 675 952 l 411 952 z "},"E":{"ha":1003,"x_min":91,"x_max":935,"o":"m 91 1003 l 886 1003 l 905 665 l 859 665 q 773 888 832 825 q 621 952 715 952 l 424 952 q 388 939 400 952 q 376 900 376 926 l 376 543 l 462 543 q 574 592 531 543 q 621 744 617 642 l 667 744 l 667 279 l 621 279 q 573 445 617 395 q 454 494 530 494 l 376 494 l 376 96 q 390 62 376 74 q 439 51 405 51 l 594 51 q 886 374 847 51 l 935 374 l 918 0 l 91 0 l 91 51 l 159 51 q 216 65 199 51 q 232 105 232 79 l 232 900 q 218 939 232 926 q 173 952 203 952 l 91 952 l 91 1003 z "},"F":{"ha":926,"x_min":72,"x_max":901,"o":"m 72 1003 l 888 1003 l 901 656 l 854 656 q 767 889 823 835 q 583 952 703 952 l 422 952 q 388 941 399 952 q 377 907 377 930 l 377 545 l 463 545 q 578 592 535 545 q 624 739 621 640 l 673 739 l 673 286 l 624 286 q 578 447 619 399 q 463 495 536 495 l 377 495 l 377 113 q 393 65 377 79 q 450 51 410 51 l 554 51 l 554 0 l 72 0 l 72 51 l 175 51 q 219 63 206 51 q 233 104 233 76 l 233 902 q 219 941 233 929 q 170 952 205 952 l 72 952 l 72 1003 z "},"G":{"ha":1080,"x_min":71,"x_max":1042,"o":"m 781 924 l 836 1024 l 882 1024 l 907 624 l 863 624 q 743 874 812 797 q 541 972 654 972 q 384 923 453 972 q 278 774 315 873 q 241 496 241 675 q 278 223 241 321 q 380 78 315 125 q 532 32 445 32 q 716 98 651 32 q 781 270 781 165 l 781 364 q 763 399 781 387 q 707 411 746 411 l 622 411 l 622 458 l 1042 458 l 1042 411 l 985 411 q 931 398 947 411 q 915 359 915 385 l 915 -24 l 870 -24 q 819 148 846 66 q 698 23 768 64 q 539 -19 628 -19 q 304 46 412 -19 q 133 230 196 111 q 71 497 71 348 q 134 766 71 647 q 306 954 197 884 q 528 1024 416 1024 q 649 1003 591 1024 q 781 924 707 981 z "},"H":{"ha":1157,"x_min":65,"x_max":1092,"o":"m 65 1003 l 493 1003 l 493 952 l 414 952 q 360 938 373 952 q 348 867 348 923 l 348 557 l 807 557 l 807 867 q 795 939 807 925 q 739 952 783 952 l 666 952 l 666 1003 l 1092 1003 l 1092 952 l 1014 952 q 973 945 985 952 q 954 919 961 937 q 949 859 949 907 l 949 137 q 958 74 949 85 q 1023 51 976 51 l 1092 51 l 1092 0 l 666 0 l 666 51 l 739 51 q 798 75 783 51 q 807 142 807 87 l 807 491 l 348 491 l 348 137 q 356 73 348 84 q 414 51 373 51 l 493 51 l 493 0 l 65 0 l 65 51 l 147 51 q 182 60 169 51 q 201 85 195 68 q 204 142 204 96 l 204 867 q 192 938 204 923 q 137 952 179 952 l 65 952 l 65 1003 z "},"I":{"ha":566,"x_min":52,"x_max":514,"o":"m 52 1003 l 514 1003 l 514 952 l 435 952 q 368 939 382 952 q 354 883 354 926 l 354 123 q 366 66 354 78 q 425 51 382 51 l 514 51 l 514 0 l 52 0 l 52 51 l 139 51 q 199 64 185 51 q 212 123 212 78 l 212 883 q 200 937 212 926 q 130 952 181 952 l 52 952 l 52 1003 z "},"J":{"ha":772,"x_min":21,"x_max":730,"o":"m 287 1003 l 730 1003 l 730 952 l 667 952 q 614 939 630 952 q 598 899 598 925 l 598 249 q 562 113 598 174 q 454 17 525 52 q 295 -19 384 -19 q 98 52 174 -19 q 21 225 21 123 q 60 347 21 301 q 155 392 98 392 q 231 362 201 392 q 260 288 260 333 q 236 221 260 248 q 180 195 212 195 q 146 201 168 195 q 121 207 127 207 q 103 197 110 207 q 96 169 96 188 q 147 76 96 118 q 273 35 198 35 q 406 93 357 35 q 455 257 455 152 l 455 899 q 437 939 455 926 q 376 952 419 952 l 287 952 l 287 1003 z "},"K":{"ha":1080,"x_min":56,"x_max":1101,"o":"m 56 1003 l 515 1003 l 515 952 l 417 952 q 369 936 386 952 q 352 895 352 920 l 352 429 l 730 832 q 762 899 762 867 q 740 937 762 922 q 667 952 718 952 l 639 952 l 639 1003 l 1050 1003 l 1050 952 l 1019 952 q 928 928 977 952 q 836 860 878 903 l 604 618 l 937 127 q 994 68 964 85 q 1065 51 1024 51 l 1101 51 l 1101 0 l 649 0 l 649 51 l 701 51 q 775 60 757 51 q 794 84 794 70 q 786 110 794 97 l 509 517 l 352 348 l 352 101 q 366 67 352 78 q 417 51 387 51 l 515 51 l 515 0 l 56 0 l 56 51 l 144 51 q 195 65 178 51 q 211 101 211 79 l 211 902 q 193 939 211 926 q 131 952 174 952 l 56 952 l 56 1003 z "},"L":{"ha":926,"x_min":43,"x_max":902,"o":"m 43 1003 l 508 1003 l 508 952 l 397 952 q 358 938 370 952 q 345 895 345 924 l 345 103 q 361 63 345 75 q 425 51 377 51 l 566 51 q 750 126 679 51 q 854 386 822 201 l 902 386 l 879 0 l 43 0 l 43 51 l 125 51 q 184 67 168 51 q 201 118 201 83 l 201 901 q 187 939 201 926 q 145 952 173 952 l 43 952 l 43 1003 z "},"M":{"ha":1311,"x_min":23,"x_max":1274,"o":"m 23 1003 l 357 1003 l 656 211 l 932 1003 l 1274 1003 l 1274 952 l 1191 952 q 1132 939 1147 952 q 1116 895 1116 926 l 1116 100 q 1135 64 1116 77 q 1198 51 1153 51 l 1274 51 l 1274 0 l 816 0 l 816 51 l 901 51 q 956 65 938 51 q 973 100 973 79 l 973 952 l 642 0 l 595 0 l 239 948 l 239 219 q 255 122 239 154 q 301 72 271 90 q 401 51 332 55 l 401 0 l 23 0 l 23 51 q 149 91 116 57 q 182 211 182 125 l 182 903 q 167 940 182 928 q 109 952 151 952 l 23 952 l 23 1003 z "},"N":{"ha":1132,"x_min":57,"x_max":1105,"o":"m 57 1003 l 296 1003 l 901 215 l 901 785 q 862 913 901 871 q 755 952 826 951 l 755 1003 l 1105 1003 l 1105 952 q 1025 937 1052 952 q 979 883 999 922 q 960 797 960 844 l 960 0 l 896 0 l 270 820 l 270 215 q 311 93 270 133 q 439 51 353 52 l 439 0 l 57 0 l 57 51 q 171 98 129 54 q 213 207 213 142 l 213 887 l 201 899 q 153 943 168 936 q 102 952 134 952 l 57 952 l 57 1003 z "},"O":{"ha":1080,"x_min":75,"x_max":1006,"o":"m 532 1024 q 769 957 659 1024 q 943 771 880 890 q 1006 501 1006 651 q 943 231 1006 351 q 769 42 880 110 q 536 -25 659 -25 q 309 41 415 -25 q 139 230 203 107 q 75 503 75 353 q 137 770 75 651 q 307 957 199 889 q 532 1024 415 1024 m 543 972 q 328 862 410 972 q 246 504 246 752 q 330 132 246 235 q 538 28 414 28 q 691 75 625 28 q 796 224 757 122 q 835 491 835 326 q 798 773 835 671 q 694 923 762 874 q 543 972 626 972 z "},"P":{"ha":926,"x_min":54,"x_max":892,"o":"m 54 1003 l 549 1003 q 804 927 716 1003 q 892 728 892 851 q 811 541 892 606 q 535 452 699 452 l 356 452 l 356 110 q 370 67 356 80 q 421 51 389 51 l 535 51 l 535 0 l 54 0 l 54 51 l 155 51 q 198 63 184 51 q 212 95 212 75 l 212 895 q 195 939 212 925 q 128 952 177 952 l 54 952 l 54 1003 m 356 502 l 492 502 q 679 556 622 502 q 736 734 736 610 q 711 867 736 821 q 635 936 685 913 q 471 958 585 958 q 376 944 396 958 q 356 895 356 930 l 356 502 z "},"Q":{"ha":1080,"x_min":79,"x_max":1025,"o":"m 802 62 q 825 -14 812 35 q 871 -131 849 -104 q 920 -158 892 -158 q 965 -129 946 -158 q 985 -33 983 -100 l 1025 -33 q 978 -213 1025 -155 q 856 -271 931 -271 q 742 -215 786 -271 q 684 0 699 -159 q 611 -14 646 -9 q 544 -19 576 -19 q 311 46 418 -19 q 141 234 204 112 q 79 511 79 357 q 220 884 79 729 q 541 1024 349 1024 q 774 959 669 1024 q 944 773 880 895 q 1008 503 1008 652 q 958 258 1008 366 q 802 62 908 151 m 768 156 q 821 306 804 225 q 838 508 838 387 q 801 778 838 679 q 696 925 764 878 q 543 972 628 972 q 392 925 458 972 q 287 777 325 878 q 250 503 250 676 q 272 294 250 381 q 342 127 294 206 q 340 178 340 159 q 394 316 340 262 q 536 370 448 370 q 684 311 624 370 q 768 156 728 267 m 684 70 q 652 247 683 192 q 534 317 614 317 q 429 277 470 317 q 389 172 389 236 q 439 51 389 108 q 540 30 487 30 q 616 40 581 30 q 684 70 652 50 z "},"R":{"ha":1003,"x_min":35,"x_max":979,"o":"m 35 1003 l 553 1003 q 787 935 704 1003 q 870 755 870 866 q 837 636 870 688 q 742 554 804 585 q 547 509 680 523 q 681 457 644 483 q 740 392 718 432 q 790 227 762 351 q 833 106 810 138 q 871 81 851 81 q 910 112 892 81 q 932 220 928 142 l 979 220 q 808 -10 966 -10 q 723 15 759 -10 q 668 89 686 40 q 636 281 654 125 q 604 409 626 371 q 535 470 582 447 q 423 493 488 493 l 341 493 l 341 99 q 354 64 341 74 q 405 51 370 51 l 501 51 l 501 0 l 35 0 l 35 51 l 134 51 q 181 64 166 51 q 197 99 197 77 l 197 901 q 181 939 197 926 q 134 952 165 952 l 35 952 l 35 1003 m 341 542 l 460 542 q 647 587 579 542 q 714 747 714 632 q 689 873 714 827 q 622 936 663 919 q 459 953 581 953 q 360 942 379 953 q 341 903 341 930 l 341 542 z "},"S":{"ha":875,"x_min":90,"x_max":812,"o":"m 642 927 l 703 1015 l 753 1015 l 757 649 l 712 649 q 588 895 670 817 q 398 972 505 972 q 252 918 309 972 q 195 787 195 865 q 216 703 195 739 q 281 644 238 667 q 444 595 324 621 q 679 522 611 559 q 779 428 746 484 q 812 295 812 371 q 721 70 812 159 q 486 -19 630 -19 q 216 81 330 -19 l 139 -12 l 90 -12 l 90 376 l 139 376 q 267 123 168 216 q 490 30 366 30 q 653 89 590 30 q 717 233 717 149 q 693 318 717 281 q 618 379 669 354 q 415 439 566 404 q 189 527 249 478 q 104 723 104 596 q 188 940 104 855 q 404 1024 273 1024 q 524 1002 467 1024 q 642 927 581 979 z "},"T":{"ha":926,"x_min":39,"x_max":895,"o":"m 61 1003 l 875 1003 l 895 624 l 848 624 q 606 958 802 958 q 552 945 567 958 q 538 900 538 931 l 538 98 q 552 62 538 74 q 599 51 566 51 l 700 51 l 700 0 l 234 0 l 234 51 l 349 51 q 385 62 372 51 q 397 93 397 74 l 397 906 q 381 945 397 932 q 331 958 366 958 q 167 865 233 958 q 89 624 113 789 l 39 624 l 61 1003 z "},"U":{"ha":1132,"x_min":37,"x_max":1105,"o":"m 37 1003 l 500 1003 l 500 952 l 407 952 q 355 940 370 952 q 340 903 340 928 l 340 336 q 355 202 340 248 q 440 95 378 135 q 600 55 501 55 q 809 126 737 55 q 881 315 881 197 l 881 776 q 872 868 881 837 q 848 918 864 900 q 808 944 832 935 q 726 952 783 952 l 726 1003 l 1105 1003 l 1105 952 l 1078 952 q 983 918 1015 952 q 952 819 952 884 l 952 326 q 860 78 952 164 q 584 -19 756 -19 q 349 23 435 -19 q 225 145 264 66 q 196 297 196 205 l 196 903 q 180 939 196 926 q 132 952 164 952 l 37 952 l 37 1003 z "},"V":{"ha":1003,"x_min":-6,"x_max":1006,"o":"m -6 1003 l 416 1003 l 416 952 l 343 952 q 281 941 298 952 q 265 912 265 930 q 277 871 265 898 l 283 857 l 547 184 l 781 826 q 787 872 787 845 q 765 931 787 910 q 705 952 743 952 l 636 952 l 636 1003 l 1006 1003 l 1006 952 l 977 952 q 909 920 943 952 q 848 815 876 888 l 538 -24 l 488 -24 l 134 873 q 92 935 116 918 q 26 952 68 952 l -6 952 l -6 1003 z "},"W":{"ha":1362,"x_min":24,"x_max":1354,"o":"m 24 1003 l 359 1003 l 359 952 l 335 952 q 268 944 282 952 q 253 918 253 936 q 263 880 253 906 l 267 867 l 471 230 l 650 818 q 603 935 619 918 q 536 952 586 952 l 475 952 l 475 1003 l 894 1003 l 894 952 l 850 952 q 777 943 793 952 q 760 916 760 934 q 764 889 760 901 l 972 230 l 1143 800 q 1153 864 1153 833 q 1132 931 1153 909 q 1070 952 1112 952 l 1039 952 l 1039 1003 l 1354 1003 l 1354 952 q 1288 932 1312 947 q 1245 890 1263 918 q 1209 800 1227 863 l 962 -24 l 915 -24 l 683 712 l 463 -24 l 412 -24 l 130 867 q 92 936 113 919 q 24 952 71 952 l 24 1003 z "},"X":{"ha":978,"x_min":25,"x_max":970,"o":"m 25 1003 l 437 1003 l 437 952 l 389 952 q 319 943 336 952 q 302 921 302 935 q 321 882 302 911 l 513 600 l 661 824 q 689 894 689 867 q 665 936 689 920 q 573 952 640 951 l 573 1003 l 937 1003 l 937 952 q 843 932 878 952 q 757 846 796 905 l 551 545 l 867 88 q 901 60 881 68 q 970 51 921 52 l 970 0 l 573 0 l 573 51 l 628 51 q 683 61 668 51 q 699 85 699 71 q 678 131 699 101 l 473 429 l 321 211 q 286 120 286 159 q 307 69 286 87 q 368 51 328 51 l 408 51 l 408 0 l 25 0 l 25 51 q 132 82 85 53 q 224 178 179 112 l 437 485 l 163 878 q 105 938 130 925 q 25 952 80 951 l 25 1003 z "},"Y":{"ha":978,"x_min":-8,"x_max":991,"o":"m -8 1003 l 431 1003 l 431 952 l 382 952 q 303 943 321 952 q 285 916 285 933 q 294 884 285 899 l 549 489 l 732 826 q 745 875 745 848 q 722 931 745 910 q 656 952 699 952 l 609 952 l 609 1003 l 991 1003 l 991 952 q 888 929 926 952 q 814 842 850 906 l 583 418 l 583 101 q 597 65 583 76 q 656 51 617 51 l 742 51 l 742 0 l 281 0 l 281 51 l 372 51 q 425 64 409 51 q 441 101 441 77 l 441 410 l 130 895 q 83 938 110 926 q -8 952 56 951 l -8 1003 z "},"Z":{"ha":848,"x_min":50,"x_max":794,"o":"m 102 1003 l 785 1003 l 785 952 l 212 51 l 429 51 q 583 81 523 51 q 679 173 642 112 q 747 376 716 233 l 794 376 l 776 0 l 50 0 l 50 45 l 629 952 l 422 952 q 290 932 337 952 q 186 838 227 906 q 130 656 146 770 l 83 656 l 102 1003 z "},"[":{"ha":463,"x_min":164,"x_max":447,"o":"m 164 1166 l 447 1166 l 447 1116 l 327 1116 q 285 1100 298 1116 q 271 1050 271 1085 l 271 24 q 286 -30 271 -14 q 327 -47 301 -47 l 447 -47 l 447 -98 l 164 -98 l 164 1166 z "},"\\":{"ha":842,"x_min":23,"x_max":819,"o":"m 111 1003 l 819 0 l 731 0 l 23 1003 l 111 1003 z "},"]":{"ha":463,"x_min":16,"x_max":298,"o":"m 298 -98 l 16 -98 l 16 -47 l 136 -47 q 178 -32 164 -47 q 191 18 191 -16 l 191 1045 q 177 1099 191 1082 q 136 1116 162 1116 l 16 1116 l 16 1166 l 298 1166 l 298 -98 z "},"^":{"ha":842,"x_min":117,"x_max":726,"o":"m 433 958 l 726 465 l 638 465 l 422 844 l 204 465 l 117 465 l 413 958 l 433 958 z "},"_":{"ha":694,"x_min":-8,"x_max":703,"o":"m -8 -104 l 703 -104 l 703 -174 l -8 -174 l -8 -104 z "},"`":{"ha":463,"x_min":87,"x_max":366,"o":"m 366 759 l 351 742 l 162 880 q 87 969 87 935 q 105 1007 87 989 q 144 1024 122 1024 q 212 981 182 1024 l 366 759 z "},"a":{"ha":772,"x_min":68,"x_max":741,"o":"m 717 70 l 741 32 q 631 -19 692 -19 q 554 6 585 -19 q 498 94 522 31 q 385 4 434 26 q 268 -19 336 -19 q 119 23 170 -19 q 68 131 68 65 q 185 295 68 230 q 494 382 301 361 l 494 479 q 453 567 494 530 q 348 604 412 604 q 246 579 289 604 q 216 543 216 561 q 232 511 216 533 q 252 463 252 484 q 232 413 252 433 q 180 394 212 394 q 124 417 146 394 q 101 476 101 440 q 177 599 101 543 q 375 654 252 654 q 548 606 488 654 q 608 486 608 556 l 608 138 q 623 71 608 92 q 661 48 637 48 q 717 70 688 48 m 494 338 q 250 260 322 314 q 197 145 197 220 q 224 63 197 93 q 297 34 252 34 q 436 95 377 34 q 494 247 494 155 l 494 338 z "},"b":{"ha":772,"x_min":11,"x_max":704,"o":"m 242 1015 l 242 543 q 331 627 282 599 q 437 654 380 654 q 627 567 549 654 q 704 336 704 479 q 621 86 704 181 q 415 -9 538 -9 q 309 14 357 -9 q 212 92 262 37 q 137 -9 173 30 l 110 0 q 129 163 129 78 l 129 881 q 105 933 129 914 q 39 952 82 952 l 11 952 l 11 1003 l 242 1015 m 413 595 q 288 528 336 595 q 240 307 240 461 q 288 98 240 161 q 412 35 335 35 q 523 97 481 35 q 576 321 576 176 q 529 530 576 465 q 413 595 483 595 z "},"c":{"ha":616,"x_min":41,"x_max":575,"o":"m 531 189 l 575 176 q 342 -19 522 -19 q 125 68 210 -19 q 41 301 41 156 q 134 562 41 469 q 351 654 226 654 q 505 603 444 654 q 566 488 566 551 q 544 426 566 450 q 490 401 521 401 q 438 422 459 401 q 417 473 417 443 q 440 530 417 503 q 451 550 451 543 q 425 588 451 570 q 353 607 398 607 q 227 547 270 607 q 166 316 166 459 q 220 110 166 180 q 359 39 275 39 q 531 189 475 39 z "},"d":{"ha":798,"x_min":74,"x_max":775,"o":"m 406 1003 l 654 1015 l 654 145 q 673 73 654 94 q 731 51 692 51 l 775 51 l 775 0 l 558 0 l 542 130 q 451 25 503 60 q 335 -9 399 -9 q 150 81 227 -9 q 74 321 74 172 q 172 579 74 483 q 348 654 248 654 q 457 624 409 654 q 542 532 506 593 l 542 890 q 520 936 542 919 q 451 952 498 952 l 406 952 l 406 1003 m 366 598 q 250 538 293 598 q 207 334 207 477 q 251 116 207 179 q 364 52 295 52 q 491 123 438 52 q 543 330 543 194 q 487 533 543 459 q 366 598 438 598 z "},"e":{"ha":694,"x_min":59,"x_max":647,"o":"m 642 313 l 186 313 q 241 109 190 168 q 389 41 299 41 q 603 193 522 41 l 647 174 q 361 -19 548 -19 q 146 73 233 -19 q 59 309 59 165 q 145 559 59 464 q 356 654 231 654 q 515 607 448 654 q 616 471 583 559 q 642 313 640 408 m 186 361 l 462 361 q 500 378 486 361 q 513 435 513 395 q 467 562 513 509 q 357 614 420 614 q 238 551 287 614 q 186 361 189 488 z "},"f":{"ha":463,"x_min":32,"x_max":555,"o":"m 262 635 l 421 635 l 421 576 l 262 576 l 262 113 q 277 68 262 81 q 334 51 298 51 l 421 51 l 421 0 l 32 0 l 32 51 l 85 51 q 136 63 121 51 q 150 101 150 75 l 150 576 l 40 576 l 40 635 l 150 635 l 150 683 q 220 940 150 851 q 393 1028 290 1028 q 512 991 469 1028 q 555 893 555 954 q 535 831 555 854 q 482 808 514 808 q 435 827 454 808 q 416 873 416 845 q 441 925 416 905 q 460 949 460 941 q 445 970 460 961 q 399 980 430 980 q 302 929 342 980 q 262 777 262 878 l 262 635 z "},"g":{"ha":746,"x_min":67,"x_max":736,"o":"m 532 600 q 657 668 600 668 q 713 646 691 668 q 736 593 736 625 q 721 552 736 568 q 685 535 705 535 q 633 583 646 535 q 614 603 627 603 q 564 572 591 603 q 604 503 593 532 q 615 439 615 473 q 587 335 615 380 q 492 256 558 290 q 366 221 426 221 l 292 221 q 187 205 213 221 q 161 155 161 188 q 182 115 161 129 q 262 100 203 100 l 429 104 q 612 61 556 104 q 668 -55 668 19 q 604 -192 668 -136 q 339 -271 515 -271 q 123 -217 193 -271 q 67 -123 67 -175 q 103 -50 67 -83 q 222 0 138 -16 q 121 48 155 16 q 87 126 87 79 q 115 202 87 170 q 210 257 142 234 q 123 334 153 289 q 94 437 94 379 q 167 592 94 530 q 355 654 239 654 q 447 641 403 654 q 532 600 491 627 m 354 611 q 254 567 294 611 q 215 442 215 522 q 254 310 215 357 q 355 262 294 262 q 455 308 416 262 q 494 439 494 354 q 454 565 494 519 q 354 611 414 611 m 394 -1 q 216 -35 269 -1 q 163 -119 163 -70 q 203 -191 163 -165 q 353 -227 256 -227 q 529 -188 470 -227 q 588 -102 588 -149 q 570 -50 588 -74 q 511 -13 551 -26 q 394 -1 471 -1 z "},"h":{"ha":848,"x_min":29,"x_max":817,"o":"m 29 1003 l 270 1015 l 270 525 q 378 622 320 590 q 500 654 435 654 q 610 625 561 654 q 674 545 648 602 q 701 408 701 487 l 701 106 q 716 64 701 77 q 763 51 731 51 l 817 51 l 817 0 l 474 0 l 474 51 l 512 51 q 572 65 555 51 q 589 106 589 79 l 589 408 q 550 532 589 488 q 452 576 512 576 q 366 551 406 576 q 298 475 326 526 q 270 367 270 424 l 270 113 q 284 65 270 79 q 331 51 298 51 l 385 51 l 385 0 l 50 0 l 50 51 l 87 51 q 142 66 126 51 q 159 113 159 81 l 159 871 q 137 932 159 912 q 75 952 116 952 l 29 952 l 29 1003 z "},"i":{"ha":437,"x_min":33,"x_max":408,"o":"m 209 1015 q 262 991 239 1015 q 286 937 286 968 q 263 884 286 907 q 210 862 241 862 q 156 885 178 862 q 133 938 133 907 q 156 991 133 968 q 209 1015 179 1015 m 33 635 l 286 643 l 286 96 q 296 64 286 74 q 336 51 312 51 l 408 51 l 408 0 l 47 0 l 47 51 l 114 51 q 158 65 144 51 q 172 108 172 80 l 172 508 q 150 565 172 546 q 85 585 128 585 l 33 585 l 33 635 z "},"j":{"ha":411,"x_min":-43,"x_max":293,"o":"m 216 1016 q 271 995 250 1016 q 293 941 293 973 q 271 886 293 907 q 217 864 250 864 q 163 887 186 864 q 140 940 140 909 q 163 993 140 970 q 216 1016 186 1016 m 284 645 l 284 37 q 212 -183 284 -96 q 50 -271 139 -271 q -19 -249 5 -271 q -43 -189 -43 -227 q -24 -135 -43 -155 q 26 -115 -4 -115 q 87 -176 73 -115 q 97 -202 92 -197 q 112 -207 102 -207 q 136 -195 124 -207 q 161 -136 152 -178 q 174 -24 174 -79 l 174 511 q 151 568 174 549 q 82 588 127 588 l 24 588 l 24 635 l 284 645 z "},"k":{"ha":823,"x_min":35,"x_max":797,"o":"m 35 1003 l 277 1015 l 277 321 l 484 500 q 514 547 514 527 q 496 573 514 564 q 410 588 470 587 l 410 635 l 749 635 l 749 588 q 595 535 648 583 l 450 406 l 686 80 q 762 51 708 51 l 797 51 l 797 0 l 450 0 l 450 51 l 484 51 q 536 58 523 51 q 549 74 549 64 q 543 93 549 83 l 370 334 l 277 254 l 277 93 q 290 64 277 73 q 341 51 309 51 l 385 51 l 385 0 l 44 0 l 44 51 l 99 51 q 149 65 133 51 q 165 103 165 79 l 165 887 q 146 932 165 918 q 69 952 117 952 l 35 952 l 35 1003 z "},"l":{"ha":437,"x_min":34,"x_max":405,"o":"m 285 1015 l 285 94 q 296 64 285 75 q 338 51 313 51 l 405 51 l 405 0 l 45 0 l 45 51 l 109 51 q 156 66 140 51 q 171 108 171 81 l 171 881 q 153 930 171 915 q 91 952 127 952 l 34 952 l 34 1003 l 285 1015 z "},"m":{"ha":1235,"x_min":68,"x_max":1187,"o":"m 85 635 l 267 647 q 286 511 281 576 q 389 616 338 586 q 503 647 441 647 q 611 612 568 647 q 677 500 654 578 q 778 610 722 574 q 899 647 833 647 q 1029 595 986 647 q 1085 420 1085 528 l 1085 105 q 1099 66 1085 77 q 1156 51 1118 51 l 1187 51 l 1187 0 l 868 0 l 868 51 l 900 51 q 957 64 941 51 q 973 105 973 78 l 973 420 q 939 530 973 491 q 848 568 904 568 q 770 546 805 568 q 716 481 736 523 q 687 378 687 420 l 687 105 q 702 64 687 77 q 748 51 717 51 l 791 51 l 791 0 l 468 0 l 468 51 l 505 51 q 556 64 539 51 q 573 99 573 78 l 573 392 q 540 527 573 485 q 452 569 507 569 q 341 520 380 569 q 286 359 286 451 l 286 105 q 299 65 286 76 q 356 51 317 51 l 389 51 l 389 0 l 68 0 l 68 51 l 117 51 q 158 64 144 51 q 173 99 173 78 l 173 515 q 155 567 173 550 q 85 589 138 584 l 85 635 z "},"n":{"ha":848,"x_min":45,"x_max":820,"o":"m 45 635 l 256 648 q 275 509 269 589 q 376 612 318 578 q 507 647 434 647 q 613 622 570 647 q 682 544 656 597 q 707 424 707 490 l 707 115 q 723 65 707 80 q 775 51 739 51 l 820 51 l 820 0 l 485 0 l 485 51 l 517 51 q 579 65 562 51 q 597 108 597 79 l 597 380 q 570 511 597 469 q 454 572 532 572 q 327 511 378 572 q 275 350 275 449 l 275 115 q 291 65 275 80 q 344 51 307 51 l 388 51 l 388 0 l 52 0 l 52 51 l 96 51 q 146 64 129 51 q 163 98 163 78 l 163 509 q 141 570 163 549 q 78 591 119 591 l 45 591 l 45 635 z "},"o":{"ha":694,"x_min":47,"x_max":648,"o":"m 345 654 q 561 562 473 654 q 648 318 648 469 q 609 140 648 214 q 497 24 570 66 q 342 -19 425 -19 q 133 75 218 -19 q 47 317 47 168 q 133 561 47 467 q 345 654 219 654 m 345 606 q 220 537 269 606 q 172 320 172 469 q 220 99 172 169 q 345 29 269 29 q 474 99 425 29 q 523 328 523 169 q 474 541 523 475 q 345 606 426 606 z "},"p":{"ha":798,"x_min":41,"x_max":732,"o":"m 246 647 q 264 510 261 576 q 362 616 311 585 q 475 647 414 647 q 599 607 540 647 q 695 490 659 567 q 732 315 732 412 q 642 62 732 160 q 461 -19 566 -19 q 353 12 401 -19 q 268 102 305 42 l 268 -155 q 282 -197 268 -184 q 333 -213 300 -213 l 380 -213 l 380 -261 l 41 -261 l 41 -213 l 88 -213 q 137 -200 121 -213 q 153 -166 153 -187 l 153 503 q 131 569 153 549 q 41 590 109 588 l 41 635 l 246 647 m 444 585 q 318 514 370 585 q 267 308 267 443 q 317 106 267 172 q 443 41 366 41 q 553 97 515 41 q 603 311 603 170 q 558 522 603 459 q 444 585 513 585 z "},"q":{"ha":772,"x_min":73,"x_max":752,"o":"m 570 544 q 646 647 604 601 l 670 635 q 651 463 651 555 l 651 -148 q 665 -196 651 -184 q 725 -213 684 -213 l 752 -213 l 752 -261 l 419 -261 l 419 -213 l 464 -213 q 522 -197 505 -213 q 538 -148 538 -182 l 538 94 q 450 9 498 37 q 343 -19 401 -19 q 153 74 233 -19 q 73 309 73 168 q 113 484 73 404 q 221 605 154 563 q 363 647 288 647 q 466 624 417 647 q 570 544 515 601 m 372 602 q 253 534 300 602 q 206 322 206 466 q 253 110 206 176 q 370 44 300 44 q 455 73 416 44 q 517 158 495 101 q 540 313 540 216 q 519 484 540 426 q 458 572 499 542 q 372 602 418 602 z "},"r":{"ha":616,"x_min":35,"x_max":593,"o":"m 35 635 l 264 647 l 264 390 q 352 582 300 517 q 479 647 404 647 q 562 615 531 647 q 593 531 593 584 q 572 465 593 488 q 520 441 551 441 q 471 461 490 441 q 452 516 452 481 q 463 558 452 538 q 473 579 473 576 q 460 589 473 589 q 397 557 433 589 q 322 432 349 511 q 281 235 281 309 l 281 98 q 298 63 281 75 q 353 51 314 51 l 434 51 l 434 0 l 39 0 l 39 51 l 102 51 q 151 63 134 51 q 167 94 167 76 l 167 498 q 147 566 167 545 q 91 587 127 587 l 35 587 l 35 635 z "},"s":{"ha":643,"x_min":77,"x_max":585,"o":"m 121 239 q 218 77 163 122 q 353 32 273 32 q 466 64 427 32 q 506 146 506 96 q 491 196 506 174 q 451 228 477 217 q 317 258 425 238 q 174 301 214 279 q 110 363 133 323 q 87 448 87 402 q 134 575 87 518 q 303 648 195 648 q 456 595 386 648 l 501 643 l 529 643 l 547 416 l 501 416 q 420 555 471 513 q 295 597 370 597 q 194 566 231 597 q 157 489 157 534 q 191 422 157 449 q 321 380 224 395 q 468 348 434 361 q 554 285 524 328 q 585 182 585 243 q 518 39 585 98 q 351 -19 452 -19 q 176 43 256 -19 l 126 -14 l 90 -14 l 77 239 l 121 239 z "},"t":{"ha":541,"x_min":35,"x_max":509,"o":"m 212 895 l 258 895 l 258 635 l 464 635 l 464 573 l 258 573 l 258 165 q 283 84 258 113 q 347 56 309 56 q 426 99 393 56 q 464 240 458 142 l 509 240 q 452 52 505 113 q 313 -9 398 -9 q 190 34 234 -9 q 145 146 145 77 l 145 573 l 35 573 l 35 621 q 149 684 110 633 q 212 895 208 759 z "},"u":{"ha":848,"x_min":38,"x_max":812,"o":"m 263 647 l 263 226 q 302 106 263 149 q 403 64 341 64 q 532 126 479 64 q 585 279 585 187 l 585 517 q 562 568 585 550 q 472 588 538 586 l 472 635 l 695 647 l 695 125 q 715 70 695 90 q 772 51 736 51 l 812 51 l 812 5 l 599 0 l 585 125 q 471 24 528 58 q 354 -9 413 -9 q 210 48 268 -9 q 151 241 151 105 l 151 517 q 121 573 151 554 q 38 588 101 587 l 38 635 l 263 647 z "},"v":{"ha":746,"x_min":18,"x_max":731,"o":"m 18 635 l 330 635 l 330 589 q 251 578 268 588 q 233 550 233 568 q 240 520 233 535 l 408 145 l 562 509 q 566 528 566 518 q 468 589 566 577 l 468 635 l 731 635 l 731 589 q 667 568 691 585 q 631 520 644 550 l 397 -19 l 361 -19 l 111 535 q 78 577 98 565 q 18 589 59 589 l 18 635 z "},"w":{"ha":1080,"x_min":36,"x_max":1046,"o":"m 36 635 l 315 635 l 315 589 l 278 589 q 239 580 251 589 q 228 557 228 572 q 235 526 228 543 l 378 166 l 502 508 q 456 575 476 562 q 387 589 437 589 l 387 635 l 694 635 l 694 589 l 668 589 q 620 579 633 589 q 606 554 606 570 q 612 526 606 542 l 757 166 l 871 486 q 883 540 883 517 q 865 574 883 562 q 799 589 848 587 l 799 635 l 1046 635 l 1046 589 q 977 560 1000 581 q 937 494 953 538 l 752 -19 l 713 -19 l 534 427 l 374 -19 l 334 -19 l 106 543 q 82 578 96 569 q 36 589 68 587 l 36 635 z "},"x":{"ha":746,"x_min":33,"x_max":725,"o":"m 33 635 l 339 635 l 339 589 q 264 562 264 586 q 277 534 264 551 l 387 389 l 494 524 q 505 552 505 538 q 423 589 505 581 l 423 635 l 691 635 l 691 589 q 543 508 594 573 l 418 352 l 614 97 q 657 61 634 72 q 725 51 680 51 l 725 0 l 400 0 l 400 51 l 423 51 q 476 58 459 51 q 487 72 487 64 q 474 97 487 79 l 347 266 l 244 134 q 222 90 222 106 q 237 64 222 73 q 309 51 258 52 l 309 0 l 33 0 l 33 51 q 110 72 83 56 q 191 144 155 100 l 317 304 l 130 546 q 33 589 99 587 l 33 635 z "},"y":{"ha":746,"x_min":29,"x_max":731,"o":"m 31 635 l 336 635 l 336 589 l 307 589 q 253 579 267 589 q 238 549 238 568 q 242 531 238 540 l 419 149 l 551 466 q 565 532 565 500 q 545 571 565 557 q 467 589 526 585 l 467 635 l 731 635 l 731 589 q 628 521 654 582 l 393 -26 q 273 -218 333 -165 q 142 -271 212 -271 q 60 -243 91 -271 q 29 -174 29 -215 q 48 -124 29 -144 q 96 -104 67 -104 q 139 -121 121 -104 q 157 -162 157 -138 q 154 -182 157 -170 q 151 -197 151 -193 q 172 -214 151 -214 q 223 -197 195 -214 q 275 -145 251 -181 q 361 14 300 -109 l 120 531 q 88 571 107 558 q 31 589 68 585 l 31 635 z "},"z":{"ha":668,"x_min":66,"x_max":616,"o":"m 102 635 l 606 635 l 606 595 l 207 51 l 401 51 q 509 93 469 51 q 570 249 549 135 l 616 249 l 601 0 l 66 0 l 66 47 l 465 587 l 296 587 q 217 573 243 587 q 172 525 191 558 q 137 409 153 491 l 87 409 l 102 635 z "},"{":{"ha":463,"x_min":74,"x_max":461,"o":"m 461 -89 l 461 -113 q 274 -20 347 -98 q 201 157 201 58 q 216 271 201 193 q 232 372 232 348 q 189 468 232 425 q 74 520 146 511 l 74 549 q 191 603 149 559 q 233 704 233 646 q 216 802 233 734 q 201 907 201 870 q 271 1086 201 1010 q 461 1182 340 1162 l 461 1160 q 304 991 304 1124 q 317 906 304 960 q 336 783 336 819 q 284 637 336 703 q 131 536 233 572 q 282 434 227 501 q 336 293 336 366 q 321 189 336 255 q 304 77 304 107 q 344 -27 304 17 q 461 -89 383 -71 z "},"|":{"ha":842,"x_min":376,"x_max":467,"o":"m 376 1003 l 467 1003 l 467 -168 l 376 -168 l 376 1003 z "},"}":{"ha":463,"x_min":5,"x_max":392,"o":"m 5 -89 q 122 -27 82 -71 q 162 75 162 17 q 144 189 162 106 q 130 290 130 255 q 184 433 130 366 q 335 536 238 500 q 182 637 233 572 q 130 783 130 703 q 150 906 130 819 q 162 991 162 961 q 5 1160 162 1124 l 5 1182 q 196 1086 125 1162 q 266 908 266 1010 q 250 802 266 870 q 234 704 234 734 q 276 602 234 646 q 392 549 318 559 l 392 520 q 277 468 320 511 q 234 372 234 425 q 250 271 234 348 q 266 157 266 193 q 192 -20 266 58 q 5 -113 119 -98 l 5 -89 z "},"~":{"ha":842,"x_min":50,"x_max":792,"o":"m 756 576 l 792 576 q 740 422 790 478 q 614 366 689 366 q 541 377 579 366 q 357 449 502 389 q 210 492 254 492 q 85 368 109 492 l 50 368 q 103 524 55 471 q 221 577 151 577 q 294 566 256 577 q 484 494 365 545 q 585 455 547 466 q 632 450 607 450 q 716 482 682 450 q 756 576 749 514 z "},"Ä":{"ha":1003,"x_min":-10,"x_max":1010,"o":"m 485 1024 l 530 1024 l 890 106 q 979 51 912 51 l 1010 51 l 1010 0 l 610 0 l 610 51 l 642 51 q 730 64 705 51 q 748 94 748 74 q 743 118 748 105 l 660 331 l 264 331 l 217 209 q 199 132 199 160 q 230 75 199 98 q 319 51 260 51 l 353 51 l 353 0 l -10 0 l -10 51 q 82 76 48 51 q 144 173 116 102 l 485 1024 m 465 831 l 286 384 l 640 384 l 465 831 m 371 1263 q 420 1243 400 1263 q 441 1195 441 1223 q 420 1145 441 1166 q 371 1124 399 1124 q 322 1145 342 1124 q 302 1196 302 1166 q 322 1244 302 1224 q 371 1263 342 1263 m 632 1261 q 682 1241 661 1261 q 702 1192 702 1221 q 681 1142 702 1163 q 632 1122 661 1122 q 582 1142 603 1122 q 562 1192 562 1163 q 582 1241 562 1221 q 632 1261 603 1261 z "},"Å":{"ha":1003,"x_min":-10,"x_max":1010,"o":"m 485 1024 l 530 1024 l 890 106 q 979 51 912 51 l 1010 51 l 1010 0 l 610 0 l 610 51 l 642 51 q 730 64 705 51 q 748 94 748 74 q 743 118 748 105 l 660 331 l 264 331 l 217 209 q 199 132 199 160 q 230 75 199 98 q 319 51 260 51 l 353 51 l 353 0 l -10 0 l -10 51 q 82 76 48 51 q 144 173 116 102 l 485 1024 m 465 831 l 286 384 l 640 384 l 465 831 m 500 1369 q 599 1328 557 1369 q 640 1229 640 1286 q 599 1128 640 1170 q 498 1086 557 1086 q 399 1127 440 1086 q 357 1227 357 1168 q 399 1328 357 1286 q 500 1369 441 1369 m 500 1314 q 438 1288 464 1314 q 413 1227 413 1263 q 438 1167 413 1192 q 499 1142 463 1142 q 559 1167 534 1142 q 585 1228 585 1193 q 560 1289 585 1264 q 500 1314 535 1314 z "},"Ç":{"ha":1003,"x_min":96,"x_max":936,"o":"m 804 925 l 850 1022 l 893 1022 l 911 618 l 865 618 q 753 869 821 789 q 552 970 669 970 q 347 858 426 970 q 267 477 267 745 q 358 132 267 251 q 575 32 435 32 q 780 110 697 32 q 888 347 863 189 l 936 347 q 813 71 915 168 q 557 -25 711 -25 q 327 38 431 -25 q 159 219 222 101 q 96 479 96 338 q 161 760 96 629 q 327 958 226 892 q 545 1024 428 1024 q 671 1002 610 1024 q 804 925 732 979 m 555 -26 q 638 -63 610 -35 q 666 -127 666 -91 q 618 -224 666 -185 q 481 -264 570 -264 q 410 -261 455 -264 l 410 -209 l 443 -209 q 530 -188 503 -209 q 558 -136 558 -167 q 490 -79 558 -91 l 505 7 l 559 7 l 555 -26 z "},"É":{"ha":1003,"x_min":91,"x_max":935,"o":"m 91 1003 l 886 1003 l 905 665 l 859 665 q 773 888 832 825 q 621 952 715 952 l 424 952 q 388 939 400 952 q 376 900 376 926 l 376 543 l 462 543 q 574 592 531 543 q 621 744 617 642 l 667 744 l 667 279 l 621 279 q 573 445 617 395 q 454 494 530 494 l 376 494 l 376 96 q 390 62 376 74 q 439 51 405 51 l 594 51 q 886 374 847 51 l 935 374 l 918 0 l 91 0 l 91 51 l 159 51 q 216 65 199 51 q 232 105 232 79 l 232 900 q 218 939 232 926 q 173 952 203 952 l 91 952 l 91 1003 m 425 1076 l 408 1093 l 524 1259 q 591 1343 572 1329 q 630 1358 610 1358 q 669 1342 652 1358 q 686 1304 686 1325 q 638 1234 686 1270 l 425 1076 z "},"Ñ":{"ha":1132,"x_min":57,"x_max":1105,"o":"m 57 1003 l 296 1003 l 901 215 l 901 785 q 862 913 901 871 q 755 952 826 951 l 755 1003 l 1105 1003 l 1105 952 q 1025 937 1052 952 q 979 883 999 922 q 960 797 960 844 l 960 0 l 896 0 l 270 820 l 270 215 q 311 93 270 133 q 439 51 353 52 l 439 0 l 57 0 l 57 51 q 171 98 129 54 q 213 207 213 142 l 213 887 l 201 899 q 153 943 168 936 q 102 952 134 952 l 57 952 l 57 1003 m 812 1280 l 835 1280 q 795 1167 834 1208 q 701 1125 757 1125 q 562 1160 659 1125 q 466 1185 490 1185 q 399 1125 416 1185 l 376 1125 q 511 1278 390 1278 q 640 1249 555 1278 q 746 1218 725 1218 q 812 1280 794 1218 z "},"Ö":{"ha":1080,"x_min":75,"x_max":1006,"o":"m 532 1024 q 769 957 659 1024 q 943 771 880 890 q 1006 501 1006 651 q 943 231 1006 351 q 769 42 880 110 q 536 -25 659 -25 q 309 41 415 -25 q 139 230 203 107 q 75 503 75 353 q 137 770 75 651 q 307 957 199 889 q 532 1024 415 1024 m 543 972 q 328 862 410 972 q 246 504 246 752 q 330 132 246 235 q 538 28 414 28 q 691 75 625 28 q 796 224 757 122 q 835 491 835 326 q 798 773 835 671 q 694 923 762 874 q 543 972 626 972 m 410 1263 q 459 1243 439 1263 q 479 1195 479 1223 q 459 1145 479 1166 q 410 1124 438 1124 q 361 1145 381 1124 q 340 1196 340 1166 q 361 1244 340 1224 q 410 1263 381 1263 m 671 1261 q 720 1241 700 1261 q 741 1192 741 1221 q 720 1142 741 1163 q 671 1122 699 1122 q 621 1142 642 1122 q 600 1192 600 1163 q 621 1241 600 1221 q 671 1261 642 1261 z "},"Ü":{"ha":1132,"x_min":37,"x_max":1105,"o":"m 37 1003 l 500 1003 l 500 952 l 407 952 q 355 940 370 952 q 340 903 340 928 l 340 336 q 355 202 340 248 q 440 95 378 135 q 600 55 501 55 q 809 126 737 55 q 881 315 881 197 l 881 776 q 872 868 881 837 q 848 918 864 900 q 808 944 832 935 q 726 952 783 952 l 726 1003 l 1105 1003 l 1105 952 l 1078 952 q 983 918 1015 952 q 952 819 952 884 l 952 326 q 860 78 952 164 q 584 -19 756 -19 q 349 23 435 -19 q 225 145 264 66 q 196 297 196 205 l 196 903 q 180 939 196 926 q 132 952 164 952 l 37 952 l 37 1003 m 463 1263 q 512 1243 492 1263 q 532 1195 532 1223 q 512 1145 532 1166 q 463 1124 491 1124 q 414 1145 434 1124 q 393 1196 393 1166 q 414 1244 393 1224 q 463 1263 434 1263 m 724 1261 q 773 1241 753 1261 q 793 1192 793 1221 q 773 1142 793 1163 q 724 1122 752 1122 q 674 1142 694 1122 q 653 1192 653 1163 q 674 1241 653 1221 q 724 1261 694 1261 z "},"á":{"ha":772,"x_min":68,"x_max":741,"o":"m 717 70 l 741 32 q 631 -19 692 -19 q 554 6 585 -19 q 498 94 522 31 q 385 4 434 26 q 268 -19 336 -19 q 119 23 170 -19 q 68 131 68 65 q 185 295 68 230 q 494 382 301 361 l 494 479 q 453 567 494 530 q 348 604 412 604 q 246 579 289 604 q 216 543 216 561 q 232 511 216 533 q 252 463 252 484 q 232 413 252 433 q 180 394 212 394 q 124 417 146 394 q 101 476 101 440 q 177 599 101 543 q 375 654 252 654 q 548 606 488 654 q 608 486 608 556 l 608 138 q 623 71 608 92 q 661 48 637 48 q 717 70 688 48 m 494 338 q 250 260 322 314 q 197 145 197 220 q 224 63 197 93 q 297 34 252 34 q 436 95 377 34 q 494 247 494 155 l 494 338 m 304 742 l 287 759 l 403 925 q 470 1009 450 994 q 509 1024 489 1024 q 548 1007 531 1024 q 565 970 565 991 q 517 900 565 936 l 304 742 z "},"à":{"ha":772,"x_min":68,"x_max":741,"o":"m 717 70 l 741 32 q 631 -19 692 -19 q 554 6 585 -19 q 498 94 522 31 q 385 4 434 26 q 268 -19 336 -19 q 119 23 170 -19 q 68 131 68 65 q 185 295 68 230 q 494 382 301 361 l 494 479 q 453 567 494 530 q 348 604 412 604 q 246 579 289 604 q 216 543 216 561 q 232 511 216 533 q 252 463 252 484 q 232 413 252 433 q 180 394 212 394 q 124 417 146 394 q 101 476 101 440 q 177 599 101 543 q 375 654 252 654 q 548 606 488 654 q 608 486 608 556 l 608 138 q 623 71 608 92 q 661 48 637 48 q 717 70 688 48 m 494 338 q 250 260 322 314 q 197 145 197 220 q 224 63 197 93 q 297 34 252 34 q 436 95 377 34 q 494 247 494 155 l 494 338 m 519 759 l 503 742 l 315 880 q 240 969 240 935 q 257 1007 240 989 q 297 1024 275 1024 q 365 981 334 1024 l 519 759 z "},"â":{"ha":772,"x_min":68,"x_max":741,"o":"m 717 70 l 741 32 q 631 -19 692 -19 q 554 6 585 -19 q 498 94 522 31 q 385 4 434 26 q 268 -19 336 -19 q 119 23 170 -19 q 68 131 68 65 q 185 295 68 230 q 494 382 301 361 l 494 479 q 453 567 494 530 q 348 604 412 604 q 246 579 289 604 q 216 543 216 561 q 232 511 216 533 q 252 463 252 484 q 232 413 252 433 q 180 394 212 394 q 124 417 146 394 q 101 476 101 440 q 177 599 101 543 q 375 654 252 654 q 548 606 488 654 q 608 486 608 556 l 608 138 q 623 71 608 92 q 661 48 637 48 q 717 70 688 48 m 494 338 q 250 260 322 314 q 197 145 197 220 q 224 63 197 93 q 297 34 252 34 q 436 95 377 34 q 494 247 494 155 l 494 338 m 338 1015 l 394 1015 l 556 781 l 513 781 l 366 916 l 220 781 l 177 781 l 338 1015 z "},"ä":{"ha":772,"x_min":68,"x_max":741,"o":"m 717 70 l 741 32 q 631 -19 692 -19 q 554 6 585 -19 q 498 94 522 31 q 385 4 434 26 q 268 -19 336 -19 q 119 23 170 -19 q 68 131 68 65 q 185 295 68 230 q 494 382 301 361 l 494 479 q 453 567 494 530 q 348 604 412 604 q 246 579 289 604 q 216 543 216 561 q 232 511 216 533 q 252 463 252 484 q 232 413 252 433 q 180 394 212 394 q 124 417 146 394 q 101 476 101 440 q 177 599 101 543 q 375 654 252 654 q 548 606 488 654 q 608 486 608 556 l 608 138 q 623 71 608 92 q 661 48 637 48 q 717 70 688 48 m 494 338 q 250 260 322 314 q 197 145 197 220 q 224 63 197 93 q 297 34 252 34 q 436 95 377 34 q 494 247 494 155 l 494 338 m 236 928 q 286 908 265 928 q 306 860 306 888 q 285 810 306 831 q 236 789 264 789 q 187 810 208 789 q 167 861 167 831 q 187 909 167 889 q 236 928 208 928 m 497 926 q 547 906 526 926 q 567 857 567 886 q 546 807 567 828 q 497 787 526 787 q 447 807 468 787 q 427 857 427 828 q 447 906 427 886 q 497 926 468 926 z "},"ã":{"ha":772,"x_min":68,"x_max":741,"o":"m 717 70 l 741 32 q 631 -19 692 -19 q 554 6 585 -19 q 498 94 522 31 q 385 4 434 26 q 268 -19 336 -19 q 119 23 170 -19 q 68 131 68 65 q 185 295 68 230 q 494 382 301 361 l 494 479 q 453 567 494 530 q 348 604 412 604 q 246 579 289 604 q 216 543 216 561 q 232 511 216 533 q 252 463 252 484 q 232 413 252 433 q 180 394 212 394 q 124 417 146 394 q 101 476 101 440 q 177 599 101 543 q 375 654 252 654 q 548 606 488 654 q 608 486 608 556 l 608 138 q 623 71 608 92 q 661 48 637 48 q 717 70 688 48 m 494 338 q 250 260 322 314 q 197 145 197 220 q 224 63 197 93 q 297 34 252 34 q 436 95 377 34 q 494 247 494 155 l 494 338 m 574 945 l 597 945 q 558 832 597 873 q 463 790 519 790 q 324 825 421 790 q 229 850 253 850 q 161 790 178 850 l 138 790 q 273 943 153 943 q 402 913 318 943 q 509 883 488 883 q 574 945 557 883 z "},"å":{"ha":772,"x_min":68,"x_max":741,"o":"m 717 70 l 741 32 q 631 -19 692 -19 q 554 6 585 -19 q 498 94 522 31 q 385 4 434 26 q 268 -19 336 -19 q 119 23 170 -19 q 68 131 68 65 q 185 295 68 230 q 494 382 301 361 l 494 479 q 453 567 494 530 q 348 604 412 604 q 246 579 289 604 q 216 543 216 561 q 232 511 216 533 q 252 463 252 484 q 232 413 252 433 q 180 394 212 394 q 124 417 146 394 q 101 476 101 440 q 177 599 101 543 q 375 654 252 654 q 548 606 488 654 q 608 486 608 556 l 608 138 q 623 71 608 92 q 661 48 637 48 q 717 70 688 48 m 494 338 q 250 260 322 314 q 197 145 197 220 q 224 63 197 93 q 297 34 252 34 q 436 95 377 34 q 494 247 494 155 l 494 338 m 388 1035 q 486 994 445 1035 q 528 895 528 952 q 486 794 528 836 q 386 752 445 752 q 286 793 328 752 q 245 892 245 834 q 287 993 245 951 q 388 1035 328 1035 m 387 979 q 326 954 351 979 q 300 892 300 928 q 326 832 300 857 q 387 808 351 808 q 447 833 421 808 q 472 894 472 859 q 447 955 472 930 q 387 979 422 979 z "},"ç":{"ha":616,"x_min":41,"x_max":575,"o":"m 531 189 l 575 176 q 342 -19 522 -19 q 125 68 210 -19 q 41 301 41 156 q 134 562 41 469 q 351 654 226 654 q 505 603 444 654 q 566 488 566 551 q 544 426 566 450 q 490 401 521 401 q 438 422 459 401 q 417 473 417 443 q 440 530 417 503 q 451 550 451 543 q 425 588 451 570 q 353 607 398 607 q 227 547 270 607 q 166 316 166 459 q 220 110 166 180 q 359 39 275 39 q 531 189 475 39 m 342 -26 q 425 -63 397 -35 q 453 -127 453 -91 q 405 -224 453 -185 q 268 -264 357 -264 q 197 -261 242 -264 l 197 -209 l 230 -209 q 317 -188 290 -209 q 345 -136 345 -167 q 277 -79 345 -91 l 292 7 l 347 7 l 342 -26 z "},"é":{"ha":694,"x_min":59,"x_max":647,"o":"m 642 313 l 186 313 q 241 109 190 168 q 389 41 299 41 q 603 193 522 41 l 647 174 q 361 -19 548 -19 q 146 73 233 -19 q 59 309 59 165 q 145 559 59 464 q 356 654 231 654 q 515 607 448 654 q 616 471 583 559 q 642 313 640 408 m 186 361 l 462 361 q 500 378 486 361 q 513 435 513 395 q 467 562 513 509 q 357 614 420 614 q 238 551 287 614 q 186 361 189 488 m 277 742 l 260 759 l 376 925 q 443 1009 423 994 q 481 1024 462 1024 q 521 1007 504 1024 q 538 970 538 991 q 490 900 538 936 l 277 742 z "},"è":{"ha":694,"x_min":59,"x_max":647,"o":"m 642 313 l 186 313 q 241 109 190 168 q 389 41 299 41 q 603 193 522 41 l 647 174 q 361 -19 548 -19 q 146 73 233 -19 q 59 309 59 165 q 145 559 59 464 q 356 654 231 654 q 515 607 448 654 q 616 471 583 559 q 642 313 640 408 m 186 361 l 462 361 q 500 378 486 361 q 513 435 513 395 q 467 562 513 509 q 357 614 420 614 q 238 551 287 614 q 186 361 189 488 m 492 759 l 476 742 l 288 880 q 213 969 213 935 q 230 1007 213 989 q 270 1024 248 1024 q 338 981 307 1024 l 492 759 z "},"ê":{"ha":694,"x_min":59,"x_max":647,"o":"m 642 313 l 186 313 q 241 109 190 168 q 389 41 299 41 q 603 193 522 41 l 647 174 q 361 -19 548 -19 q 146 73 233 -19 q 59 309 59 165 q 145 559 59 464 q 356 654 231 654 q 515 607 448 654 q 616 471 583 559 q 642 313 640 408 m 186 361 l 462 361 q 500 378 486 361 q 513 435 513 395 q 467 562 513 509 q 357 614 420 614 q 238 551 287 614 q 186 361 189 488 m 325 1015 l 380 1015 l 543 781 l 499 781 l 352 916 l 207 781 l 163 781 l 325 1015 z "},"ë":{"ha":694,"x_min":59,"x_max":647,"o":"m 642 313 l 186 313 q 241 109 190 168 q 389 41 299 41 q 603 193 522 41 l 647 174 q 361 -19 548 -19 q 146 73 233 -19 q 59 309 59 165 q 145 559 59 464 q 356 654 231 654 q 515 607 448 654 q 616 471 583 559 q 642 313 640 408 m 186 361 l 462 361 q 500 378 486 361 q 513 435 513 395 q 467 562 513 509 q 357 614 420 614 q 238 551 287 614 q 186 361 189 488 m 209 928 q 258 908 238 928 q 279 860 279 888 q 258 810 279 831 q 209 789 237 789 q 160 810 180 789 q 140 861 140 831 q 160 909 140 889 q 209 928 180 928 m 470 926 q 519 906 499 926 q 540 857 540 886 q 519 807 540 828 q 470 787 498 787 q 420 807 441 787 q 399 857 399 828 q 420 906 399 886 q 470 926 441 926 z "},"í":{"ha":437,"x_min":33,"x_max":408,"o":"m 33 635 l 286 643 l 286 96 q 296 64 286 74 q 336 51 312 51 l 408 51 l 408 0 l 47 0 l 47 51 l 114 51 q 158 65 144 51 q 172 108 172 80 l 172 508 q 150 565 172 546 q 85 585 128 585 l 33 585 l 33 635 m 119 742 l 102 759 l 218 925 q 285 1009 266 994 q 324 1024 304 1024 q 363 1007 347 1024 q 380 970 380 991 q 332 900 380 936 l 119 742 z "},"ì":{"ha":437,"x_min":33,"x_max":408,"o":"m 33 635 l 286 643 l 286 96 q 296 64 286 74 q 336 51 312 51 l 408 51 l 408 0 l 47 0 l 47 51 l 114 51 q 158 65 144 51 q 172 108 172 80 l 172 508 q 150 565 172 546 q 85 585 128 585 l 33 585 l 33 635 m 338 759 l 322 742 l 134 880 q 59 969 59 935 q 76 1007 59 989 q 116 1024 94 1024 q 184 981 153 1024 l 338 759 z "},"î":{"ha":437,"x_min":31,"x_max":410,"o":"m 33 635 l 285 643 l 285 96 q 296 64 285 74 q 335 51 311 51 l 407 51 l 407 0 l 46 0 l 46 51 l 113 51 q 157 65 143 51 q 171 108 171 80 l 171 508 q 149 565 171 546 q 85 585 127 585 l 33 585 l 33 635 m 192 1015 l 248 1015 l 410 781 l 366 781 l 219 916 l 74 781 l 31 781 l 192 1015 z "},"ï":{"ha":437,"x_min":14,"x_max":414,"o":"m 33 635 l 286 643 l 286 96 q 296 64 286 74 q 336 51 312 51 l 408 51 l 408 0 l 47 0 l 47 51 l 114 51 q 158 65 144 51 q 172 108 172 80 l 172 508 q 150 565 172 546 q 85 585 128 585 l 33 585 l 33 635 m 83 928 q 133 908 113 928 q 153 860 153 888 q 133 810 153 831 q 83 789 112 789 q 35 810 55 789 q 14 861 14 831 q 35 909 14 889 q 83 928 55 928 m 345 926 q 394 906 374 926 q 414 857 414 886 q 394 807 414 828 q 345 787 373 787 q 295 807 315 787 q 274 857 274 828 q 295 906 274 886 q 345 926 315 926 z "},"ñ":{"ha":848,"x_min":45,"x_max":820,"o":"m 45 635 l 256 648 q 275 509 269 589 q 376 612 318 578 q 507 647 434 647 q 613 622 570 647 q 682 544 656 597 q 707 424 707 490 l 707 115 q 723 65 707 80 q 775 51 739 51 l 820 51 l 820 0 l 485 0 l 485 51 l 517 51 q 579 65 562 51 q 597 108 597 79 l 597 380 q 570 511 597 469 q 454 572 532 572 q 327 511 378 572 q 275 350 275 449 l 275 115 q 291 65 275 80 q 344 51 307 51 l 388 51 l 388 0 l 52 0 l 52 51 l 96 51 q 146 64 129 51 q 163 98 163 78 l 163 509 q 141 570 163 549 q 78 591 119 591 l 45 591 l 45 635 m 669 945 l 692 945 q 653 832 692 873 q 558 790 614 790 q 419 825 516 790 q 323 850 348 850 q 256 790 273 850 l 233 790 q 368 943 248 943 q 497 913 413 943 q 604 883 583 883 q 669 945 652 883 z "},"ó":{"ha":694,"x_min":47,"x_max":648,"o":"m 345 654 q 561 562 473 654 q 648 318 648 469 q 609 140 648 214 q 497 24 570 66 q 342 -19 425 -19 q 133 75 218 -19 q 47 317 47 168 q 133 561 47 467 q 345 654 219 654 m 345 606 q 220 537 269 606 q 172 320 172 469 q 220 99 172 169 q 345 29 269 29 q 474 99 425 29 q 523 328 523 169 q 474 541 523 475 q 345 606 426 606 m 271 742 l 254 759 l 370 925 q 436 1009 417 994 q 475 1024 456 1024 q 515 1007 498 1024 q 532 970 532 991 q 484 900 532 936 l 271 742 z "},"ò":{"ha":694,"x_min":47,"x_max":648,"o":"m 345 654 q 561 562 473 654 q 648 318 648 469 q 609 140 648 214 q 497 24 570 66 q 342 -19 425 -19 q 133 75 218 -19 q 47 317 47 168 q 133 561 47 467 q 345 654 219 654 m 345 606 q 220 537 269 606 q 172 320 172 469 q 220 99 172 169 q 345 29 269 29 q 474 99 425 29 q 523 328 523 169 q 474 541 523 475 q 345 606 426 606 m 486 759 l 471 742 l 282 880 q 208 969 208 935 q 225 1007 208 989 q 264 1024 242 1024 q 332 981 302 1024 l 486 759 z "},"ô":{"ha":694,"x_min":47,"x_max":648,"o":"m 345 654 q 561 562 473 654 q 648 318 648 469 q 609 140 648 214 q 497 24 570 66 q 342 -19 425 -19 q 133 75 218 -19 q 47 317 47 168 q 133 561 47 467 q 345 654 219 654 m 345 606 q 220 537 269 606 q 172 320 172 469 q 220 99 172 169 q 345 29 269 29 q 474 99 425 29 q 523 328 523 169 q 474 541 523 475 q 345 606 426 606 m 340 1015 l 395 1015 l 557 781 l 514 781 l 367 916 l 222 781 l 178 781 l 340 1015 z "},"ö":{"ha":694,"x_min":47,"x_max":648,"o":"m 345 654 q 561 562 473 654 q 648 318 648 469 q 609 140 648 214 q 497 24 570 66 q 342 -19 425 -19 q 133 75 218 -19 q 47 317 47 168 q 133 561 47 467 q 345 654 219 654 m 345 606 q 220 537 269 606 q 172 320 172 469 q 220 99 172 169 q 345 29 269 29 q 474 99 425 29 q 523 328 523 169 q 474 541 523 475 q 345 606 426 606 m 230 928 q 279 908 259 928 q 300 860 300 888 q 279 810 300 831 q 230 789 258 789 q 181 810 201 789 q 161 861 161 831 q 181 909 161 889 q 230 928 201 928 m 491 926 q 541 906 520 926 q 561 857 561 886 q 540 807 561 828 q 491 787 519 787 q 441 807 462 787 q 420 857 420 828 q 441 906 420 886 q 491 926 462 926 z "},"õ":{"ha":694,"x_min":47,"x_max":648,"o":"m 345 654 q 561 562 473 654 q 648 318 648 469 q 609 140 648 214 q 497 24 570 66 q 342 -19 425 -19 q 133 75 218 -19 q 47 317 47 168 q 133 561 47 467 q 345 654 219 654 m 345 606 q 220 537 269 606 q 172 320 172 469 q 220 99 172 169 q 345 29 269 29 q 474 99 425 29 q 523 328 523 169 q 474 541 523 475 q 345 606 426 606 m 571 945 l 594 945 q 555 832 593 873 q 460 790 516 790 q 321 825 418 790 q 225 850 250 850 q 158 790 175 850 l 135 790 q 270 943 149 943 q 399 913 315 943 q 505 883 484 883 q 571 945 553 883 z "},"ú":{"ha":848,"x_min":38,"x_max":812,"o":"m 263 647 l 263 226 q 302 106 263 149 q 403 64 341 64 q 532 126 479 64 q 585 279 585 187 l 585 517 q 562 568 585 550 q 472 588 538 586 l 472 635 l 695 647 l 695 125 q 715 70 695 90 q 772 51 736 51 l 812 51 l 812 5 l 599 0 l 585 125 q 471 24 528 58 q 354 -9 413 -9 q 210 48 268 -9 q 151 241 151 105 l 151 517 q 121 573 151 554 q 38 588 101 587 l 38 635 l 263 647 m 351 742 l 334 759 l 450 925 q 517 1009 498 994 q 556 1024 536 1024 q 595 1007 578 1024 q 612 970 612 991 q 564 900 612 936 l 351 742 z "},"ù":{"ha":848,"x_min":38,"x_max":812,"o":"m 263 647 l 263 226 q 302 106 263 149 q 403 64 341 64 q 532 126 479 64 q 585 279 585 187 l 585 517 q 562 568 585 550 q 472 588 538 586 l 472 635 l 695 647 l 695 125 q 715 70 695 90 q 772 51 736 51 l 812 51 l 812 5 l 599 0 l 585 125 q 471 24 528 58 q 354 -9 413 -9 q 210 48 268 -9 q 151 241 151 105 l 151 517 q 121 573 151 554 q 38 588 101 587 l 38 635 l 263 647 m 542 759 l 526 742 l 338 880 q 263 969 263 935 q 280 1007 263 989 q 320 1024 298 1024 q 388 981 357 1024 l 542 759 z "},"û":{"ha":848,"x_min":38,"x_max":812,"o":"m 263 647 l 263 226 q 302 106 263 149 q 403 64 341 64 q 532 126 479 64 q 585 279 585 187 l 585 517 q 562 568 585 550 q 472 588 538 586 l 472 635 l 695 647 l 695 125 q 715 70 695 90 q 772 51 736 51 l 812 51 l 812 5 l 599 0 l 585 125 q 471 24 528 58 q 354 -9 413 -9 q 210 48 268 -9 q 151 241 151 105 l 151 517 q 121 573 151 554 q 38 588 101 587 l 38 635 l 263 647 m 397 1015 l 452 1015 l 614 781 l 571 781 l 424 916 l 279 781 l 235 781 l 397 1015 z "},"ü":{"ha":848,"x_min":38,"x_max":812,"o":"m 263 647 l 263 226 q 302 106 263 149 q 403 64 341 64 q 532 126 479 64 q 585 279 585 187 l 585 517 q 562 568 585 550 q 472 588 538 586 l 472 635 l 695 647 l 695 125 q 715 70 695 90 q 772 51 736 51 l 812 51 l 812 5 l 599 0 l 585 125 q 471 24 528 58 q 354 -9 413 -9 q 210 48 268 -9 q 151 241 151 105 l 151 517 q 121 573 151 554 q 38 588 101 587 l 38 635 l 263 647 m 288 928 q 338 908 317 928 q 358 860 358 888 q 337 810 358 831 q 288 789 317 789 q 239 810 260 789 q 219 861 219 831 q 239 909 219 889 q 288 928 260 928 m 549 926 q 599 906 578 926 q 619 857 619 886 q 598 807 619 828 q 549 787 578 787 q 499 807 520 787 q 479 857 479 828 q 499 906 479 886 q 549 926 520 926 z "},"†":{"ha":694,"x_min":39,"x_max":667,"o":"m 374 646 q 488 669 427 648 q 587 696 559 696 q 645 675 623 696 q 667 623 667 654 q 645 573 667 593 q 586 554 624 554 q 488 579 554 554 q 374 603 426 602 q 461 391 380 472 q 374 -271 378 141 l 332 -271 q 302 142 332 -62 q 243 391 282 287 q 332 603 325 468 q 226 583 281 602 q 117 554 147 554 q 60 574 81 554 q 39 625 39 594 q 61 675 39 654 q 116 696 83 696 q 220 669 149 696 q 332 646 281 647 q 306 810 330 726 q 280 903 284 886 q 277 937 277 920 q 298 1004 277 980 q 353 1029 319 1029 q 409 1004 387 1029 q 431 938 431 979 q 427 904 431 922 q 410 844 426 895 q 382 736 389 772 q 374 646 376 701 z "},"°":{"ha":555,"x_min":66,"x_max":489,"o":"m 278 958 q 427 896 366 958 q 489 747 489 834 q 427 597 489 659 q 278 535 366 535 q 128 597 190 535 q 66 747 66 659 q 128 896 66 834 q 278 958 190 958 m 278 876 q 186 838 224 876 q 149 747 149 800 q 186 655 149 693 q 278 617 224 617 q 369 655 332 617 q 407 747 407 693 q 369 838 407 800 q 278 876 332 876 z "},"¢":{"ha":772,"x_min":101,"x_max":691,"o":"m 543 1003 l 595 1003 l 500 652 q 629 591 582 637 q 675 492 675 544 q 652 427 675 452 q 595 401 629 401 q 541 423 564 401 q 519 474 519 445 q 538 521 519 496 q 554 553 554 543 q 539 579 554 566 q 488 603 519 596 l 342 68 q 448 40 395 40 q 559 74 511 40 q 646 191 608 108 l 691 175 q 426 -19 623 -19 q 323 0 368 -19 l 250 -267 l 199 -267 l 275 12 q 176 87 210 48 q 122 184 142 127 q 101 304 101 241 q 148 484 101 401 q 273 611 195 566 q 451 656 350 656 l 543 1003 m 300 102 l 437 607 q 291 533 347 606 q 236 310 236 460 q 300 102 236 182 z "},"£":{"ha":772,"x_min":-20,"x_max":710,"o":"m 357 506 l 608 506 l 608 448 l 370 448 q 378 336 378 393 q 349 168 378 240 q 562 111 486 111 q 626 138 601 111 q 664 232 650 164 l 710 222 q 638 41 692 102 q 522 -19 584 -19 q 433 1 481 -19 q 300 87 386 22 q 211 7 258 34 q 123 -19 163 -19 q 21 19 62 -19 q -20 114 -20 57 q 20 205 -20 169 q 125 241 60 241 q 284 191 178 241 l 285 214 q 233 448 285 336 l 37 448 l 37 506 l 205 506 q 162 702 162 615 q 241 885 162 811 q 449 958 320 958 q 608 906 549 958 q 667 777 667 853 q 641 699 667 729 q 578 668 614 668 q 529 690 549 668 q 509 749 509 713 q 536 807 509 783 q 568 838 563 831 q 571 849 571 842 q 541 891 571 871 q 448 910 510 910 q 326 868 372 910 q 279 766 279 827 q 286 709 279 737 q 320 612 293 680 q 357 506 343 553 m 264 113 q 169 173 196 161 q 117 184 142 184 q 54 162 78 184 q 30 106 30 140 q 56 49 30 72 q 123 26 81 26 q 264 113 202 26 z "},"§":{"ha":694,"x_min":90,"x_max":595,"o":"m 467 134 q 556 -53 556 43 q 493 -207 556 -146 q 323 -267 430 -267 q 187 -223 239 -267 q 136 -119 136 -178 q 157 -62 136 -84 q 210 -40 178 -40 q 256 -58 238 -40 q 275 -104 275 -77 q 252 -155 275 -132 q 231 -185 231 -176 q 251 -208 231 -197 q 317 -222 276 -222 q 421 -185 381 -222 q 462 -96 462 -149 q 436 -15 462 -54 q 299 118 411 24 q 134 278 178 220 q 90 412 90 337 q 119 523 90 472 q 220 627 148 573 q 140 812 140 718 q 207 965 140 901 q 372 1029 273 1029 q 511 987 460 1029 q 562 885 562 945 q 541 822 562 845 q 492 799 521 799 q 441 819 462 799 q 420 868 420 840 q 446 924 420 897 q 465 949 465 942 q 448 969 465 960 q 377 983 419 983 q 275 947 315 983 q 235 861 235 911 q 262 777 235 821 q 406 629 290 732 q 533 505 500 545 q 580 427 566 466 q 595 347 595 387 q 467 134 595 225 m 254 593 q 171 464 171 530 q 196 391 171 429 q 313 276 221 353 q 433 168 390 212 q 499 236 484 209 q 515 298 515 264 q 503 347 515 322 q 436 431 485 383 l 254 593 z "},"•":{"ha":842,"x_min":277,"x_max":564,"o":"m 420 677 q 522 635 479 677 q 564 534 564 593 q 522 433 564 475 q 420 391 480 391 q 319 433 361 391 q 277 534 277 475 q 319 635 277 593 q 420 677 361 677 z "},"¶":{"ha":842,"x_min":73,"x_max":753,"o":"m 753 1003 l 753 977 l 725 977 q 672 966 688 977 q 650 934 656 956 q 644 835 644 913 l 644 -261 l 593 -261 l 593 964 l 462 964 l 462 -261 l 410 -261 l 410 472 q 211 507 276 478 q 109 597 146 536 q 73 739 73 659 q 106 871 73 821 q 216 971 149 939 q 389 1003 283 1003 l 753 1003 z "},"ß":{"ha":798,"x_min":42,"x_max":741,"o":"m 532 597 q 688 505 635 575 q 741 321 741 434 q 704 150 741 231 q 613 30 667 68 q 501 -9 559 -9 q 408 24 444 -9 q 372 108 372 58 q 391 165 372 143 q 437 188 410 188 q 479 169 461 188 q 498 125 498 151 q 477 79 498 101 q 465 58 465 66 q 473 43 465 49 q 495 37 480 37 q 575 94 541 37 q 610 292 610 151 q 563 513 610 454 q 410 574 515 572 l 410 617 q 491 632 445 617 q 554 675 536 646 q 579 787 579 715 q 542 932 579 888 q 434 976 505 976 q 317 932 353 976 q 271 772 271 876 l 271 121 q 285 68 271 84 q 333 51 300 52 l 333 0 l 42 0 l 42 51 l 87 51 q 139 63 124 51 q 155 95 155 75 l 155 747 q 227 954 155 880 q 424 1029 298 1029 q 622 964 549 1029 q 694 805 694 899 q 658 692 694 743 q 532 597 621 641 z "},"®":{"ha":1023,"x_min":24,"x_max":1000,"o":"m 511 958 q 755 893 642 958 q 934 714 869 827 q 1000 469 1000 600 q 934 225 1000 338 q 755 46 869 112 q 511 -19 642 -19 q 268 46 381 -19 q 89 225 155 112 q 24 469 24 338 q 89 714 24 600 q 268 893 155 827 q 511 958 381 958 m 511 916 q 289 856 392 916 q 125 693 185 796 q 66 470 66 589 q 125 247 66 351 q 289 84 185 144 q 511 24 392 24 q 734 84 631 24 q 897 247 838 144 q 957 470 957 351 q 897 693 957 590 q 734 856 838 796 q 511 916 631 916 m 241 770 l 507 770 q 657 726 604 770 q 711 615 711 682 q 673 519 711 557 q 559 463 635 481 l 703 258 q 745 211 728 222 q 785 198 762 199 l 785 175 l 659 175 l 457 454 l 405 454 l 405 258 q 420 211 405 223 q 486 198 435 198 l 486 175 l 233 175 l 233 198 q 280 206 267 198 q 301 231 294 214 q 305 293 305 241 l 305 678 q 292 731 305 718 q 241 745 279 745 l 241 770 m 405 484 l 425 484 q 558 517 516 484 q 601 609 601 551 q 562 702 601 664 q 463 739 522 739 q 405 729 437 739 l 405 484 z "},"©":{"ha":1023,"x_min":24,"x_max":1000,"o":"m 511 958 q 755 893 642 958 q 934 714 869 827 q 1000 469 1000 600 q 934 225 1000 338 q 755 46 869 112 q 511 -19 642 -19 q 268 46 381 -19 q 89 225 155 112 q 24 469 24 338 q 89 714 24 600 q 268 893 155 827 q 511 958 381 958 m 511 916 q 289 856 392 916 q 125 693 185 796 q 66 470 66 589 q 125 247 66 351 q 289 84 185 144 q 511 24 392 24 q 734 84 631 24 q 897 247 838 144 q 957 470 957 351 q 897 693 957 590 q 734 856 838 796 q 511 916 631 916 m 753 783 l 766 591 l 739 591 q 530 753 690 753 q 371 684 431 753 q 311 481 311 615 q 372 273 311 343 q 537 202 434 202 q 753 313 672 202 l 779 300 q 514 161 684 161 q 351 201 425 161 q 237 313 278 241 q 196 469 196 385 q 293 692 196 600 q 534 784 390 784 q 666 758 588 784 q 691 753 683 753 q 710 759 703 753 q 725 783 718 764 l 753 783 z "},"™":{"ha":1389,"x_min":26,"x_max":1362,"o":"m 40 1003 l 541 1003 l 556 865 l 532 865 q 495 941 525 918 q 399 962 467 962 l 348 962 l 348 548 q 362 490 348 505 q 420 473 376 475 l 420 448 l 163 448 l 163 473 q 219 491 207 475 q 232 563 232 507 l 232 962 l 180 962 q 86 939 114 962 q 49 865 58 918 l 26 865 l 40 1003 m 800 1003 l 988 610 l 1170 1003 l 1362 1003 l 1362 978 q 1300 961 1314 976 q 1286 905 1286 947 l 1286 563 q 1299 489 1286 505 q 1362 473 1313 474 l 1362 448 l 1088 448 l 1088 473 q 1143 481 1129 474 q 1163 504 1156 488 q 1170 563 1170 519 l 1170 901 l 959 448 l 937 448 l 725 895 l 725 547 q 740 488 725 504 q 789 473 754 473 l 814 473 l 814 448 l 604 448 l 604 473 q 667 489 652 473 q 682 554 682 504 l 682 901 q 667 963 682 949 q 604 978 652 977 l 604 1003 l 800 1003 z "},"´":{"ha":463,"x_min":138,"x_max":416,"o":"m 155 742 l 138 759 l 254 925 q 320 1009 301 994 q 359 1024 340 1024 q 399 1007 382 1024 q 416 970 416 991 q 368 900 416 936 l 155 742 z "},"¨":{"ha":463,"x_min":31,"x_max":431,"o":"m 100 928 q 150 908 130 928 q 170 860 170 888 q 150 810 170 831 q 100 789 129 789 q 52 810 72 789 q 31 861 31 831 q 52 909 31 889 q 100 928 72 928 m 361 926 q 411 906 391 926 q 431 857 431 886 q 411 807 431 828 q 361 787 390 787 q 312 807 332 787 q 291 857 291 828 q 312 906 291 886 q 361 926 332 926 z "},"≠":{"ha":762,"x_min":17,"x_max":745,"o":"m 17 555 l 425 555 l 568 916 l 622 916 l 482 555 l 745 555 l 745 491 l 457 491 l 359 240 l 745 240 l 745 177 l 335 177 l 192 -183 l 138 -183 l 279 177 l 17 177 l 17 240 l 304 240 l 402 491 l 17 491 l 17 555 z "},"Æ":{"ha":1389,"x_min":29,"x_max":1318,"o":"m 399 1003 l 1271 1003 l 1291 656 l 1244 656 q 983 952 1208 952 l 859 952 q 817 938 831 952 q 802 901 802 924 l 802 543 l 863 543 q 1025 746 1016 543 l 1071 746 l 1071 279 l 1025 279 q 979 445 1022 396 q 859 494 937 494 l 802 494 l 802 98 q 814 64 802 75 q 859 51 831 51 l 989 51 q 1119 84 1063 51 q 1213 186 1175 118 q 1271 384 1251 255 l 1318 384 l 1303 0 l 502 0 l 502 51 l 600 51 q 644 65 629 51 q 660 102 660 80 l 660 433 l 376 433 l 243 188 q 226 123 226 156 q 248 70 226 90 q 306 51 269 51 l 323 51 l 323 0 l 29 0 l 29 51 q 103 79 71 52 q 184 194 136 106 l 553 867 q 569 920 569 897 q 557 944 569 936 q 513 952 546 952 l 399 952 l 399 1003 m 660 952 l 399 487 l 660 487 l 660 952 z "},"Ø":{"ha":1080,"x_min":56,"x_max":1013,"o":"m 189 151 q 75 503 75 302 q 137 771 75 652 q 307 957 199 890 q 534 1024 415 1024 q 704 990 619 1024 q 850 896 788 956 l 945 1003 l 1013 1003 l 884 859 q 1006 502 1006 705 q 943 231 1006 351 q 769 43 880 111 q 536 -25 659 -25 q 368 10 450 -25 q 222 112 286 45 l 123 0 l 56 0 l 189 151 m 275 248 l 780 817 q 682 930 747 888 q 542 972 618 972 q 328 862 410 972 q 245 499 245 751 q 275 248 245 351 m 801 765 l 295 194 q 392 72 327 116 q 538 28 456 28 q 691 75 625 28 q 796 224 757 122 q 835 492 835 326 q 801 765 835 665 z "},"∞":{"ha":990,"x_min":36,"x_max":954,"o":"m 443 452 q 544 599 489 558 q 694 640 599 640 q 878 562 803 640 q 954 357 954 483 q 880 153 954 233 q 717 73 807 73 q 592 122 650 73 q 488 267 554 155 q 393 145 445 182 q 269 109 342 109 q 103 178 171 109 q 36 359 36 248 q 98 539 36 471 q 244 608 161 608 q 347 577 302 608 q 443 452 392 547 m 508 315 q 608 173 559 209 q 720 136 658 136 q 859 196 803 136 q 915 357 915 256 q 856 522 915 457 q 724 587 797 587 q 642 564 677 587 q 578 488 607 540 q 508 315 562 457 m 423 400 q 347 510 390 475 q 242 545 304 545 q 122 495 170 545 q 73 359 73 444 q 121 215 73 269 q 229 161 169 161 q 343 219 294 161 q 423 400 375 257 z "},"±":{"ha":762,"x_min":5,"x_max":737,"o":"m 5 96 l 5 151 l 343 151 l 343 434 l 5 434 l 5 490 l 343 490 l 343 827 l 397 827 l 397 490 l 736 490 l 736 434 l 397 434 l 397 151 l 737 151 l 736 96 l 5 96 z "},"≤":{"ha":762,"x_min":16,"x_max":746,"o":"m 745 167 l 17 476 l 17 532 l 745 840 l 745 771 l 100 505 l 745 236 l 745 167 m 16 -47 l 746 -47 l 746 -111 l 16 -111 l 16 -47 z "},"≥":{"ha":762,"x_min":16,"x_max":746,"o":"m 17 840 l 745 531 l 745 475 l 17 167 l 17 236 l 661 503 l 17 771 l 17 840 m 16 -47 l 746 -47 l 746 -111 l 16 -111 l 16 -47 z "},"¥":{"ha":978,"x_min":14,"x_max":964,"o":"m 393 459 l 146 838 q 99 881 125 869 q 14 895 74 893 l 14 941 l 431 941 l 431 895 l 385 895 q 310 885 328 895 q 292 860 292 876 q 302 829 292 843 l 544 459 l 718 774 q 729 821 729 795 q 707 874 729 854 q 645 895 685 895 l 601 895 l 601 941 l 964 941 l 964 895 q 866 873 901 895 q 795 790 830 851 l 612 459 l 882 459 l 882 408 l 576 408 l 576 254 l 882 254 l 882 203 l 576 203 l 576 94 q 589 64 576 73 q 645 51 608 51 l 727 51 l 727 0 l 290 0 l 290 51 l 376 51 q 426 62 411 51 q 441 94 441 74 l 441 203 l 113 203 l 113 254 l 441 254 l 441 408 l 113 408 l 113 459 l 393 459 z "},"µ":{"ha":800,"x_min":91,"x_max":742,"o":"m 133 621 l 244 621 l 244 260 q 256 125 244 161 q 289 81 265 98 q 340 64 313 64 q 420 87 380 64 q 500 155 460 110 l 500 621 l 612 621 l 612 178 q 618 89 612 110 q 634 63 623 73 q 659 54 646 54 q 688 69 676 54 q 713 138 706 90 l 742 138 q 699 19 736 56 q 608 -19 663 -19 q 526 20 555 -19 q 500 110 506 50 q 391 11 441 41 q 288 -19 340 -19 q 225 -5 252 -19 q 182 39 206 6 q 182 7 182 18 q 205 -155 182 -46 q 214 -225 214 -196 q 195 -279 214 -258 q 150 -300 176 -300 q 108 -280 125 -300 q 91 -226 91 -260 q 111 -114 91 -195 q 125 -43 124 -60 q 134 78 134 26 q 133 129 134 81 l 133 621 z "},"∂":{"ha":686,"x_min":43,"x_max":675,"o":"m 630 486 q 638 612 638 563 q 574 801 638 734 q 404 868 510 868 q 284 841 332 868 q 199 760 237 814 l 168 760 q 281 916 220 867 q 427 964 341 964 q 546 931 488 964 q 639 824 604 898 q 675 624 675 750 q 570 193 675 384 q 273 -21 453 -21 q 105 40 168 -21 q 43 206 43 101 q 75 362 43 286 q 155 491 106 438 q 262 575 203 544 q 418 616 338 616 q 518 594 473 616 q 593 543 564 573 q 630 486 611 524 m 618 426 q 539 540 592 501 q 424 578 487 578 q 304 536 363 578 q 201 389 245 494 q 158 178 158 283 q 195 59 158 101 q 290 18 233 18 q 460 106 374 18 q 618 426 571 218 z "},"∑":{"ha":990,"x_min":29,"x_max":963,"o":"m 920 -261 l 29 -261 l 29 -237 l 483 381 l 29 989 l 29 1015 l 896 1015 l 914 787 l 887 787 q 836 919 877 878 q 718 960 794 960 l 216 960 l 597 439 l 171 -142 l 726 -142 q 838 -120 785 -142 q 896 -74 873 -106 q 936 26 920 -43 l 963 20 l 920 -261 z "},"∏":{"ha":1143,"x_min":31,"x_max":1112,"o":"m 841 962 l 302 962 l 302 -131 q 327 -212 302 -187 q 412 -236 352 -236 l 436 -236 l 436 -261 l 31 -261 l 31 -236 l 55 -236 q 142 -210 118 -236 q 165 -131 165 -184 l 165 884 q 140 965 165 941 q 55 989 115 989 l 31 989 l 31 1015 l 1112 1015 l 1112 989 l 1088 989 q 1002 964 1026 989 q 979 884 979 938 l 979 -131 q 1004 -212 979 -187 q 1088 -236 1029 -236 l 1112 -236 l 1112 -261 l 707 -261 l 707 -236 l 731 -236 q 818 -210 794 -236 q 841 -131 841 -184 l 841 962 z "},"":{"ha":762,"x_min":42,"x_max":694,"o":"m 694 621 l 694 522 l 537 522 q 518 359 526 452 q 511 212 511 267 q 535 122 511 151 q 595 94 559 94 q 646 113 625 94 q 670 170 666 132 l 694 170 q 643 24 682 68 q 555 -19 604 -19 q 470 28 505 -19 q 436 216 436 75 q 444 354 436 277 q 462 522 455 478 l 302 522 l 292 364 q 266 162 284 263 q 229 25 248 61 q 200 -10 215 -1 q 171 -19 186 -19 q 127 -2 144 -19 q 110 37 110 14 q 117 73 110 56 q 154 129 121 83 q 189 195 176 159 q 211 309 201 230 q 227 522 213 323 l 208 522 q 130 503 160 522 q 66 427 100 484 l 42 427 q 97 552 64 508 q 161 609 130 596 q 262 621 193 621 l 694 621 z "},"∫":{"ha":380,"x_min":0,"x_max":380,"o":"m 136 607 l 148 1001 q 182 1174 153 1105 q 232 1241 200 1219 q 295 1263 264 1263 q 354 1241 329 1263 q 380 1191 380 1218 q 362 1140 380 1159 q 317 1120 344 1120 q 266 1145 294 1120 q 239 1158 250 1158 q 219 1148 227 1158 q 212 1115 212 1139 q 218 1017 212 1087 q 243 567 243 738 q 232 167 243 519 q 171 -104 227 -33 q 80 -149 134 -149 q 22 -126 45 -149 q 0 -67 0 -103 q 17 -18 0 -37 q 61 0 35 0 q 108 -22 88 0 q 141 -43 127 -43 q 160 -34 153 -43 q 168 -2 168 -24 q 161 79 168 26 q 144 309 150 176 q 136 607 136 477 z "},"ª":{"ha":464,"x_min":21,"x_max":462,"o":"m 438 670 l 462 637 q 391 612 425 612 q 339 625 361 612 q 301 672 318 638 q 233 627 269 642 q 157 612 197 612 q 56 638 90 612 q 21 706 21 665 q 73 791 21 756 q 294 861 147 842 l 294 914 q 271 965 294 944 q 210 985 248 985 q 149 971 176 985 q 133 953 133 962 q 140 938 133 947 q 157 905 157 920 q 142 872 157 886 q 102 859 127 859 q 59 874 76 859 q 42 913 42 890 q 93 989 42 954 q 229 1024 144 1024 q 343 994 302 1024 q 384 919 384 962 l 384 715 q 391 673 384 685 q 411 661 399 661 q 438 670 419 661 m 294 824 q 151 779 197 812 q 121 715 121 758 q 136 668 121 685 q 176 652 151 652 q 256 684 218 652 q 294 775 294 717 l 294 824 z "},"º":{"ha":416,"x_min":9,"x_max":408,"o":"m 207 1024 q 351 966 294 1024 q 408 819 408 909 q 350 669 408 726 q 205 612 293 612 q 65 670 121 612 q 9 818 9 728 q 65 966 9 908 q 207 1024 122 1024 m 207 987 q 135 946 163 987 q 106 819 106 906 q 135 690 106 731 q 207 649 163 649 q 281 690 253 649 q 310 823 310 731 q 282 948 310 909 q 207 987 254 987 z "},"Ω":{"ha":1067,"x_min":48,"x_max":1019,"o":"m 437 197 l 458 0 l 48 0 l 48 227 l 71 227 q 103 158 85 173 q 170 143 121 143 l 376 143 l 376 163 q 208 243 269 195 q 111 373 146 291 q 75 538 75 454 q 130 738 75 642 q 290 885 184 833 q 534 937 395 937 q 777 886 672 937 q 937 738 882 834 q 992 538 992 642 q 956 372 992 454 q 860 243 920 291 q 691 163 799 195 l 691 143 l 897 143 q 964 158 946 143 q 996 227 983 173 l 1019 227 l 1019 0 l 609 0 l 630 197 q 755 286 713 227 q 826 541 826 384 q 748 802 826 714 q 537 890 669 890 q 330 813 398 890 q 241 541 241 714 q 269 367 241 442 q 345 248 296 292 q 437 197 378 218 z "},"æ":{"ha":1105,"x_min":76,"x_max":1047,"o":"m 584 580 q 773 654 678 654 q 910 614 846 654 q 1008 501 973 574 q 1047 310 1044 427 l 610 310 q 636 161 610 220 q 707 72 663 102 q 802 42 751 42 q 910 77 858 42 q 1006 189 963 112 l 1047 165 q 929 27 1001 74 q 773 -19 857 -19 q 531 127 629 -19 q 405 13 467 45 q 265 -19 342 -19 q 127 24 178 -19 q 76 135 76 68 q 165 286 76 221 q 495 387 254 351 l 495 452 q 456 565 495 527 q 344 604 418 604 q 248 582 284 604 q 219 545 219 565 q 233 520 219 535 q 256 465 256 494 q 236 415 256 434 q 182 395 216 395 q 128 417 149 395 q 106 475 106 439 q 177 600 106 545 q 366 654 247 654 q 478 637 427 654 q 584 580 528 621 m 610 366 l 863 366 q 906 380 893 366 q 919 434 919 395 q 875 558 919 508 q 768 608 831 608 q 654 549 699 608 q 610 366 610 490 m 495 336 q 256 259 330 314 q 201 153 201 219 q 231 72 201 103 q 308 41 261 41 q 441 99 388 41 q 495 257 495 157 l 495 336 z "},"ø":{"ha":694,"x_min":47,"x_max":648,"o":"m 121 87 q 47 318 47 178 q 133 561 47 467 q 342 654 219 654 q 538 583 457 654 l 583 635 l 644 635 l 572 549 q 648 318 648 457 q 609 140 648 214 q 497 24 570 67 q 342 -19 425 -19 q 155 54 237 -19 l 110 0 l 48 0 l 121 87 m 191 169 l 486 521 q 345 606 441 606 q 220 537 269 606 q 172 317 172 468 q 191 169 172 233 m 505 471 l 210 119 q 345 29 254 29 q 474 99 425 29 q 523 329 523 170 q 505 471 523 412 z "},"¿":{"ha":616,"x_min":63,"x_max":574,"o":"m 345 612 q 287 636 311 612 q 263 693 263 660 q 287 752 263 728 q 345 777 311 777 q 403 752 379 777 q 427 692 427 728 q 402 636 427 659 q 345 612 378 612 m 329 466 l 364 466 q 356 339 364 384 q 334 267 347 294 q 267 169 321 241 q 207 65 224 114 q 189 -43 189 16 q 234 -173 189 -123 q 345 -222 279 -222 q 438 -194 401 -222 q 476 -136 476 -166 q 450 -100 476 -121 q 410 -32 410 -69 q 431 22 410 0 q 484 43 452 43 q 548 13 522 43 q 574 -67 574 -18 q 502 -207 574 -145 q 321 -269 431 -269 q 136 -200 209 -269 q 63 -31 63 -131 q 76 52 63 14 q 109 117 88 90 q 212 218 130 144 q 306 328 286 285 q 329 466 326 371 z "},"¡":{"ha":411,"x_min":125,"x_max":297,"o":"m 211 612 q 152 637 176 612 q 128 695 128 661 q 153 752 128 728 q 211 777 177 777 q 269 753 245 777 q 293 696 293 729 q 269 636 293 660 q 211 612 245 612 m 193 465 l 229 465 q 236 282 230 342 q 270 47 246 182 q 297 -151 297 -104 q 273 -240 297 -210 q 211 -269 250 -269 q 148 -241 171 -269 q 125 -153 125 -213 q 152 47 125 -103 q 184 266 176 179 q 193 465 193 353 z "},"¬":{"ha":842,"x_min":47,"x_max":795,"o":"m 47 679 l 795 679 l 795 267 l 706 267 l 706 588 l 47 588 l 47 679 z "},"√":{"ha":762,"x_min":57,"x_max":762,"o":"m 712 1267 l 762 1267 l 551 -53 l 214 640 l 80 578 l 57 621 l 261 724 l 536 165 l 712 1267 z "},"ƒ":{"ha":772,"x_min":35,"x_max":751,"o":"m 524 667 l 649 667 l 637 621 l 515 621 q 403 155 475 418 q 263 -181 331 -108 q 125 -254 196 -254 q 58 -233 82 -254 q 35 -178 35 -212 q 51 -134 35 -152 q 90 -117 67 -117 q 122 -129 109 -117 q 135 -157 135 -141 q 126 -181 135 -169 q 117 -198 117 -193 q 123 -208 117 -205 q 139 -212 128 -212 q 204 -171 174 -212 q 258 -1 234 -130 q 399 621 316 305 l 275 621 l 286 667 q 374 678 353 670 q 406 702 395 686 q 445 795 420 723 q 542 985 496 941 q 651 1028 587 1028 q 724 1006 698 1028 q 751 948 751 983 q 737 909 751 924 q 705 895 724 895 q 672 907 685 895 q 659 935 659 919 q 667 960 659 946 q 674 978 674 972 q 667 991 674 987 q 646 996 661 996 q 600 976 622 996 q 566 904 578 957 q 524 667 545 813 z "},"≈":{"ha":762,"x_min":20,"x_max":743,"o":"m 713 704 l 743 704 q 693 569 741 618 q 578 519 646 519 q 512 529 547 519 q 326 601 477 539 q 176 644 220 644 q 95 615 128 644 q 50 520 62 585 l 20 520 q 43 620 23 581 q 101 683 63 660 q 178 705 140 705 q 238 696 207 705 q 435 622 309 676 q 541 583 501 593 q 587 577 562 577 q 672 610 637 577 q 713 704 707 642 m 713 371 l 743 371 q 693 235 741 285 q 578 185 646 185 q 477 206 547 185 l 326 268 q 176 311 220 311 q 95 281 128 311 q 50 186 62 252 l 20 186 q 43 287 23 247 q 101 349 62 326 q 177 372 139 372 q 237 363 206 372 q 435 288 309 342 q 541 250 502 260 q 587 244 562 244 q 672 276 637 244 q 713 371 707 309 z "},"∆":{"ha":850,"x_min":18,"x_max":831,"o":"m 831 0 l 18 0 l 444 941 l 831 0 m 671 56 l 401 711 l 102 56 l 671 56 z "},"«":{"ha":591,"x_min":-1,"x_max":557,"o":"m 220 675 l 281 675 l 142 379 l 281 85 l 220 85 l -1 379 l 220 675 m 496 675 l 557 675 l 418 379 l 557 85 l 496 85 l 281 379 l 496 675 z "},"»":{"ha":591,"x_min":-12,"x_max":546,"o":"m 326 675 l 546 379 l 326 85 l 264 85 l 402 379 l 264 675 l 326 675 m 49 675 l 264 379 l 49 85 l -12 85 l 127 379 l -12 675 l 49 675 z "},"…":{"ha":1389,"x_min":138,"x_max":1251,"o":"m 232 171 q 298 143 271 171 q 326 76 326 115 q 297 9 326 37 q 230 -19 269 -19 q 165 9 193 -19 q 138 76 138 37 q 165 143 138 115 q 232 171 193 171 m 695 171 q 762 143 734 171 q 789 76 789 115 q 761 9 789 37 q 694 -19 732 -19 q 629 9 656 -19 q 602 76 602 37 q 629 143 602 115 q 695 171 656 171 m 1157 168 q 1223 141 1196 168 q 1251 75 1251 115 q 1223 8 1251 35 q 1158 -19 1196 -19 q 1092 8 1119 -19 q 1065 75 1065 35 q 1092 141 1065 114 q 1157 168 1118 168 z "}," ":{"ha":399,"x_min":0,"x_max":0,"o":""},"À":{"ha":1003,"x_min":-10,"x_max":1010,"o":"m 485 1024 l 530 1024 l 890 106 q 979 51 912 51 l 1010 51 l 1010 0 l 610 0 l 610 51 l 642 51 q 730 64 705 51 q 748 94 748 74 q 743 118 748 105 l 660 331 l 264 331 l 217 209 q 199 132 199 160 q 230 75 199 98 q 319 51 260 51 l 353 51 l 353 0 l -10 0 l -10 51 q 82 76 48 51 q 144 173 116 102 l 485 1024 m 465 831 l 286 384 l 640 384 l 465 831 m 637 1093 l 621 1076 l 433 1214 q 358 1303 358 1269 q 375 1341 358 1324 q 415 1358 393 1358 q 483 1315 452 1358 l 637 1093 z "},"Ã":{"ha":1003,"x_min":-10,"x_max":1010,"o":"m 485 1024 l 530 1024 l 890 106 q 979 51 912 51 l 1010 51 l 1010 0 l 610 0 l 610 51 l 642 51 q 730 64 705 51 q 748 94 748 74 q 743 118 748 105 l 660 331 l 264 331 l 217 209 q 199 132 199 160 q 230 75 199 98 q 319 51 260 51 l 353 51 l 353 0 l -10 0 l -10 51 q 82 76 48 51 q 144 173 116 102 l 485 1024 m 465 831 l 286 384 l 640 384 l 465 831 m 709 1280 l 732 1280 q 692 1167 731 1208 q 597 1125 654 1125 q 458 1160 555 1125 q 363 1185 387 1185 q 296 1125 313 1185 l 273 1125 q 408 1278 287 1278 q 536 1249 452 1278 q 643 1218 622 1218 q 709 1280 691 1218 z "},"Õ":{"ha":1080,"x_min":75,"x_max":1006,"o":"m 532 1024 q 769 957 659 1024 q 943 771 880 890 q 1006 501 1006 651 q 943 231 1006 351 q 769 42 880 110 q 536 -25 659 -25 q 309 41 415 -25 q 139 230 203 107 q 75 503 75 353 q 137 770 75 651 q 307 957 199 889 q 532 1024 415 1024 m 543 972 q 328 862 410 972 q 246 504 246 752 q 330 132 246 235 q 538 28 414 28 q 691 75 625 28 q 796 224 757 122 q 835 491 835 326 q 798 773 835 671 q 694 923 762 874 q 543 972 626 972 m 748 1280 l 771 1280 q 732 1167 770 1208 q 637 1125 693 1125 q 498 1160 595 1125 q 402 1185 427 1185 q 335 1125 352 1185 l 312 1125 q 447 1278 326 1278 q 576 1249 492 1278 q 682 1218 661 1218 q 748 1280 730 1218 z "},"Œ":{"ha":1389,"x_min":46,"x_max":1322,"o":"m 1281 1003 l 1299 656 l 1251 656 q 1201 836 1231 781 q 1122 921 1172 890 q 1013 952 1072 952 l 859 952 q 825 939 836 952 q 813 900 813 926 l 813 543 l 870 543 q 987 587 947 543 q 1039 745 1027 631 l 1084 745 l 1084 279 l 1039 279 q 870 494 1026 494 l 813 494 l 813 90 q 827 61 813 72 q 870 51 841 51 l 1013 51 q 1131 80 1084 51 q 1214 177 1178 109 q 1275 382 1250 244 l 1322 382 l 1304 0 l 722 0 q 545 -8 650 0 q 468 -12 494 -12 q 174 131 300 -12 q 46 485 46 273 q 175 862 46 713 q 478 1010 304 1010 l 578 1005 l 637 1003 l 1281 1003 m 671 835 q 629 923 671 888 q 503 958 587 958 q 357 911 422 958 q 254 763 293 863 q 216 500 216 663 q 304 146 216 266 q 507 39 382 39 q 630 80 589 39 q 671 207 671 121 l 671 835 z "},"œ":{"ha":1157,"x_min":54,"x_max":1118,"o":"m 607 531 q 715 626 660 597 q 835 654 770 654 q 976 614 912 654 q 1076 497 1039 574 q 1114 312 1114 420 l 672 312 q 729 107 677 170 q 866 44 781 44 q 1076 192 991 44 l 1118 174 q 995 27 1065 73 q 839 -19 925 -19 q 707 13 768 -19 q 607 104 647 45 q 497 12 559 43 q 360 -19 435 -19 q 141 74 229 -19 q 54 315 54 167 q 142 560 54 466 q 361 654 231 654 q 607 531 503 654 m 672 368 l 937 368 q 974 381 962 368 q 985 431 985 394 q 942 558 985 509 q 837 607 899 607 q 725 551 770 607 q 672 368 680 494 m 363 606 q 239 541 286 606 q 182 317 182 463 q 234 102 182 172 q 363 32 286 32 q 492 102 440 32 q 544 313 544 172 q 519 479 544 412 q 453 575 494 545 q 363 606 412 606 z "},"–":{"ha":772,"x_min":-8,"x_max":781,"o":"m -8 368 l 781 368 l 781 298 l -8 298 l -8 368 z "},"—":{"ha":1389,"x_min":-8,"x_max":1397,"o":"m -8 368 l 1397 368 l 1397 298 l -8 298 l -8 368 z "},"“":{"ha":541,"x_min":51,"x_max":522,"o":"m 222 1031 l 243 1003 q 145 907 176 955 q 113 825 113 860 q 130 802 113 802 l 136 803 q 163 807 153 807 q 215 785 193 807 q 236 730 236 763 q 213 669 236 694 q 161 644 191 644 q 84 681 117 644 q 51 777 51 718 q 222 1031 51 918 m 500 1031 l 522 1003 q 424 907 455 955 q 392 825 392 860 q 408 802 392 802 l 414 803 q 441 807 431 807 q 493 785 472 807 q 515 730 515 763 q 492 669 515 694 q 439 644 469 644 q 362 681 395 644 q 330 777 330 718 q 500 1031 330 918 z "},"”":{"ha":541,"x_min":9,"x_max":480,"o":"m 31 640 l 9 670 q 107 765 76 718 q 139 846 139 812 q 135 864 139 858 q 123 869 132 869 l 117 868 q 90 864 100 864 q 38 886 59 864 q 16 939 16 908 q 39 999 16 974 q 92 1024 62 1024 q 168 987 135 1024 q 201 893 201 951 q 31 640 201 752 m 309 640 l 288 670 q 386 765 355 718 q 418 846 418 812 q 414 864 418 858 q 401 869 410 869 l 395 868 q 368 864 378 864 q 316 886 338 864 q 295 939 295 907 q 318 999 295 974 q 370 1024 340 1024 q 447 987 414 1024 q 480 893 480 951 q 309 640 480 751 z "},"‘":{"ha":283,"x_min":50,"x_max":243,"o":"m 221 1031 l 243 1003 q 144 907 176 955 q 113 825 113 860 q 129 802 113 802 l 136 803 q 163 807 152 807 q 214 785 193 807 q 235 730 235 763 q 213 669 235 694 q 160 644 190 644 q 83 681 117 644 q 50 777 50 718 q 221 1031 50 918 z "},"’":{"ha":283,"x_min":43,"x_max":235,"o":"m 64 640 l 43 670 q 141 765 110 718 q 173 846 173 812 q 169 864 173 858 q 157 869 165 869 l 151 868 q 123 864 134 864 q 72 886 93 864 q 50 939 50 908 q 73 999 50 974 q 125 1024 96 1024 q 202 987 169 1024 q 235 893 235 951 q 196 763 235 825 q 64 640 157 701 z "},"÷":{"ha":762,"x_min":16,"x_max":747,"o":"m 381 729 q 423 712 406 729 q 440 670 440 694 q 423 628 440 646 q 380 611 406 611 q 339 628 356 611 q 321 670 321 646 q 339 712 321 694 q 381 729 356 729 m 747 434 l 16 434 l 16 490 l 747 490 l 747 434 m 381 309 q 424 291 406 309 q 441 249 441 273 q 423 207 441 224 q 381 189 406 189 q 339 207 357 189 q 321 249 321 224 q 339 291 321 273 q 381 309 356 309 z "},"◊":{"ha":686,"x_min":32,"x_max":656,"o":"m 372 964 l 656 481 l 372 0 l 297 0 l 32 481 l 297 964 l 372 964 m 336 899 l 105 481 l 336 64 l 579 481 l 336 899 z "},"ÿ":{"ha":746,"x_min":29,"x_max":731,"o":"m 31 635 l 336 635 l 336 589 l 307 589 q 253 579 267 589 q 238 549 238 568 q 242 531 238 540 l 419 149 l 551 466 q 565 532 565 500 q 545 571 565 557 q 467 589 526 585 l 467 635 l 731 635 l 731 589 q 628 521 654 582 l 393 -26 q 273 -218 333 -165 q 142 -271 212 -271 q 60 -243 91 -271 q 29 -174 29 -215 q 48 -124 29 -144 q 96 -104 67 -104 q 139 -121 121 -104 q 157 -162 157 -138 q 154 -182 157 -170 q 151 -197 151 -193 q 172 -214 151 -214 q 223 -197 195 -214 q 275 -145 251 -181 q 361 14 300 -109 l 120 531 q 88 571 107 558 q 31 589 68 585 l 31 635 m 270 928 q 319 908 299 928 q 340 860 340 888 q 319 810 340 831 q 270 789 298 789 q 221 810 241 789 q 201 861 201 831 q 221 909 201 889 q 270 928 241 928 m 531 926 q 581 906 560 926 q 601 857 601 886 q 580 807 601 828 q 531 787 559 787 q 481 807 502 787 q 460 857 460 828 q 481 906 460 886 q 531 926 502 926 z "},"Ÿ":{"ha":978,"x_min":-8,"x_max":991,"o":"m -8 1003 l 431 1003 l 431 952 l 382 952 q 303 943 321 952 q 285 916 285 933 q 294 884 285 899 l 549 489 l 732 826 q 745 875 745 848 q 722 931 745 910 q 656 952 699 952 l 609 952 l 609 1003 l 991 1003 l 991 952 q 888 929 926 952 q 814 842 850 906 l 583 418 l 583 101 q 597 65 583 76 q 656 51 617 51 l 742 51 l 742 0 l 281 0 l 281 51 l 372 51 q 425 64 409 51 q 441 101 441 77 l 441 410 l 130 895 q 83 938 110 926 q -8 952 56 951 l -8 1003 m 372 1263 q 421 1243 401 1263 q 441 1195 441 1223 q 421 1145 441 1166 q 372 1124 400 1124 q 323 1145 343 1124 q 302 1196 302 1166 q 323 1244 302 1224 q 372 1263 343 1263 m 633 1261 q 682 1241 662 1261 q 703 1192 703 1221 q 682 1142 703 1163 q 633 1122 661 1122 q 583 1142 604 1122 q 562 1192 562 1163 q 583 1241 562 1221 q 633 1261 604 1261 z "},"⁄":{"ha":232,"x_min":-229,"x_max":477,"o":"m 418 941 l 477 941 l -172 0 l -229 0 l 418 941 z "},"€":{"ha":772,"x_min":8,"x_max":728,"o":"m 107 571 q 226 857 134 755 q 453 958 317 958 q 556 935 505 958 q 635 879 607 911 l 667 956 l 705 956 l 721 663 l 679 663 q 458 909 602 909 q 253 571 275 909 l 528 571 l 497 511 l 250 511 q 249 452 249 493 l 249 432 l 528 432 l 497 372 l 250 372 q 468 35 269 35 q 606 86 555 35 q 684 253 658 138 l 728 253 q 637 47 704 113 q 454 -18 571 -18 q 214 83 307 -18 q 104 372 122 185 l 8 372 l 36 432 l 100 432 l 100 452 q 102 511 100 493 l 8 511 l 36 571 l 107 571 z "},"‹":{"ha":359,"x_min":47,"x_max":330,"o":"m 269 671 l 330 671 l 190 376 l 330 80 l 269 80 l 47 376 l 269 671 z "},"›":{"ha":359,"x_min":30,"x_max":313,"o":"m 30 670 l 92 670 l 313 376 l 92 81 l 30 81 l 170 376 l 30 670 z "},"":{"ha":848,"x_min":45,"x_max":808,"o":"m 272 635 l 522 635 q 612 640 538 635 l 701 645 l 701 98 q 713 66 701 76 q 763 51 734 51 l 808 51 l 808 0 l 474 0 l 474 51 l 503 51 q 568 63 551 51 q 585 98 585 75 l 585 512 q 568 555 585 540 q 513 576 544 576 l 272 576 l 272 104 q 289 64 272 77 q 348 51 305 51 l 387 51 l 387 0 l 45 0 l 45 51 l 81 51 q 143 64 126 51 q 159 104 159 77 l 159 576 l 55 576 l 55 635 l 159 635 q 206 856 165 776 q 322 982 247 937 q 488 1028 397 1028 q 636 984 580 1028 q 692 882 692 939 q 673 826 692 846 q 626 805 655 805 q 577 823 595 805 q 558 869 558 842 q 573 916 558 895 q 582 933 582 928 q 557 964 582 949 q 486 979 533 979 q 328 896 383 979 q 272 691 272 813 l 272 635 z "},"":{"ha":848,"x_min":47,"x_max":811,"o":"m 564 1015 q 701 1028 632 1021 l 701 109 q 716 66 701 82 q 753 51 731 51 l 811 51 l 811 0 l 478 0 l 478 51 l 528 51 q 577 64 564 51 q 591 109 591 77 l 591 573 l 274 573 l 274 109 q 289 65 274 79 q 336 51 304 51 l 384 51 l 384 0 l 47 0 l 47 51 l 101 51 q 147 64 132 51 q 162 99 162 77 l 162 573 l 57 573 l 57 635 l 162 635 l 162 678 q 204 857 162 774 q 315 984 246 939 q 459 1028 385 1028 q 506 1025 479 1028 q 564 1015 532 1021 m 591 803 q 548 858 548 817 q 560 899 548 878 q 570 924 570 916 q 542 962 570 944 q 465 980 514 980 q 331 913 388 980 q 274 731 274 846 l 274 635 l 591 635 l 591 803 z "},"‡":{"ha":694,"x_min":35,"x_max":667,"o":"m 374 712 q 496 733 433 712 q 594 757 567 757 q 647 738 627 757 q 667 690 667 719 q 647 644 667 663 q 592 625 627 625 q 499 648 568 625 q 374 667 443 665 q 431 542 381 602 q 374 378 374 462 q 431 214 374 298 q 393 159 406 186 q 374 91 381 132 q 441 96 419 92 q 513 117 470 102 q 591 135 562 135 q 646 116 625 135 q 666 69 666 98 q 645 22 666 41 q 590 3 625 3 q 512 21 564 3 q 444 41 467 37 q 374 46 420 45 q 402 -87 376 -8 q 424 -188 424 -157 q 404 -247 424 -224 q 351 -269 383 -269 q 299 -246 319 -269 q 279 -189 279 -224 q 301 -90 279 -159 q 329 46 324 -18 q 183 19 258 43 q 111 3 136 3 q 56 22 76 3 q 35 71 35 41 q 55 116 35 99 q 109 134 75 134 q 139 131 123 134 l 219 108 q 329 91 275 92 q 270 214 318 164 q 315 294 302 255 q 328 383 328 333 q 316 465 328 430 q 270 542 303 500 q 329 667 318 593 q 263 663 287 667 q 195 643 239 659 q 113 625 141 625 q 57 644 78 625 q 36 691 36 663 q 57 738 36 720 q 115 755 78 755 q 206 733 140 755 q 329 712 266 712 q 306 836 326 775 q 279 946 279 920 q 300 1005 279 983 q 349 1028 321 1028 q 403 1006 381 1028 q 425 949 425 983 q 408 874 425 928 q 382 782 388 809 q 374 712 377 754 z "},"∙":{"ha":386,"x_min":118,"x_max":265,"o":"m 191 561 q 243 539 222 561 q 265 486 265 517 q 244 434 265 456 q 192 412 222 412 q 139 433 161 412 q 118 486 118 454 q 139 539 118 518 q 191 561 161 561 z "},"‚":{"ha":283,"x_min":47,"x_max":239,"o":"m 68 -241 l 47 -210 q 145 -116 114 -163 q 177 -35 177 -68 q 173 -17 177 -23 q 161 -12 170 -12 l 155 -13 q 126 -19 138 -19 q 76 4 97 -19 q 54 59 54 26 q 77 121 54 96 q 130 147 100 147 q 206 110 173 147 q 239 15 239 73 q 68 -241 239 -127 z "},"„":{"ha":541,"x_min":9,"x_max":480,"o":"m 31 -241 l 9 -210 q 107 -116 76 -163 q 139 -35 139 -68 q 135 -17 139 -23 q 123 -12 132 -12 l 117 -13 q 88 -19 100 -19 q 38 4 59 -19 q 16 59 16 26 q 39 121 16 96 q 92 147 62 147 q 168 110 135 147 q 201 15 201 73 q 31 -241 201 -127 m 309 -241 l 288 -210 q 386 -116 354 -163 q 418 -35 418 -68 q 414 -17 418 -23 q 401 -12 410 -12 l 395 -13 q 366 -19 379 -19 q 316 4 338 -19 q 295 59 295 26 q 318 121 295 95 q 370 146 340 146 q 447 110 414 146 q 480 15 480 73 q 441 -117 480 -54 q 309 -241 402 -180 z "},"‰":{"ha":1389,"x_min":28,"x_max":1362,"o":"m 220 958 q 363 895 311 958 q 416 707 416 831 q 363 523 416 585 q 222 460 310 460 q 89 511 138 460 q 28 705 28 575 q 80 893 28 829 q 220 958 133 958 m 222 926 q 153 885 178 926 q 129 716 129 844 q 153 532 129 573 q 222 490 176 490 q 292 529 269 490 q 315 716 315 568 q 292 889 315 851 q 222 926 269 926 m 762 941 l 821 941 l 173 0 l 115 0 l 762 941 m 709 479 q 852 416 800 479 q 905 229 905 353 q 852 44 905 106 q 711 -19 799 -19 q 569 43 621 -19 q 517 226 517 105 q 569 415 517 350 q 709 479 622 479 m 711 448 q 642 407 667 448 q 618 237 618 365 q 642 53 618 94 q 712 12 665 12 q 781 51 758 12 q 804 237 804 90 q 781 410 804 372 q 711 448 758 448 m 1165 479 q 1309 416 1256 479 q 1362 229 1362 353 q 1309 44 1362 106 q 1166 -19 1255 -19 q 1025 43 1077 -19 q 973 226 973 105 q 1026 415 973 350 q 1165 479 1078 479 m 1168 448 q 1099 407 1123 448 q 1074 238 1074 365 q 1098 53 1074 94 q 1168 12 1122 12 q 1237 51 1215 12 q 1259 237 1259 90 q 1237 410 1259 372 q 1168 448 1214 448 z "},"Â":{"ha":1003,"x_min":-10,"x_max":1010,"o":"m 485 1024 l 530 1024 l 890 106 q 979 51 912 51 l 1010 51 l 1010 0 l 610 0 l 610 51 l 642 51 q 730 64 705 51 q 748 94 748 74 q 743 118 748 105 l 660 331 l 264 331 l 217 209 q 199 132 199 160 q 230 75 199 98 q 319 51 260 51 l 353 51 l 353 0 l -10 0 l -10 51 q 82 76 48 51 q 144 173 116 102 l 485 1024 m 465 831 l 286 384 l 640 384 l 465 831 m 473 1350 l 529 1350 l 691 1116 l 648 1116 l 500 1251 l 355 1116 l 312 1116 l 473 1350 z "},"Ê":{"ha":1003,"x_min":91,"x_max":935,"o":"m 91 1003 l 886 1003 l 905 665 l 859 665 q 773 888 832 825 q 621 952 715 952 l 424 952 q 388 939 400 952 q 376 900 376 926 l 376 543 l 462 543 q 574 592 531 543 q 621 744 617 642 l 667 744 l 667 279 l 621 279 q 573 445 617 395 q 454 494 530 494 l 376 494 l 376 96 q 390 62 376 74 q 439 51 405 51 l 594 51 q 886 374 847 51 l 935 374 l 918 0 l 91 0 l 91 51 l 159 51 q 216 65 199 51 q 232 105 232 79 l 232 900 q 218 939 232 926 q 173 952 203 952 l 91 952 l 91 1003 m 473 1350 l 529 1350 l 691 1116 l 648 1116 l 500 1251 l 355 1116 l 312 1116 l 473 1350 z "},"Á":{"ha":1003,"x_min":-10,"x_max":1010,"o":"m 485 1024 l 530 1024 l 890 106 q 979 51 912 51 l 1010 51 l 1010 0 l 610 0 l 610 51 l 642 51 q 730 64 705 51 q 748 94 748 74 q 743 118 748 105 l 660 331 l 264 331 l 217 209 q 199 132 199 160 q 230 75 199 98 q 319 51 260 51 l 353 51 l 353 0 l -10 0 l -10 51 q 82 76 48 51 q 144 173 116 102 l 485 1024 m 465 831 l 286 384 l 640 384 l 465 831 m 425 1080 l 408 1097 l 524 1263 q 591 1348 572 1333 q 630 1362 610 1362 q 669 1346 652 1362 q 686 1308 686 1329 q 638 1238 686 1274 l 425 1080 z "},"Ë":{"ha":1003,"x_min":91,"x_max":935,"o":"m 91 1003 l 886 1003 l 905 665 l 859 665 q 773 888 832 825 q 621 952 715 952 l 424 952 q 388 939 400 952 q 376 900 376 926 l 376 543 l 462 543 q 574 592 531 543 q 621 744 617 642 l 667 744 l 667 279 l 621 279 q 573 445 617 395 q 454 494 530 494 l 376 494 l 376 96 q 390 62 376 74 q 439 51 405 51 l 594 51 q 886 374 847 51 l 935 374 l 918 0 l 91 0 l 91 51 l 159 51 q 216 65 199 51 q 232 105 232 79 l 232 900 q 218 939 232 926 q 173 952 203 952 l 91 952 l 91 1003 m 371 1263 q 420 1243 400 1263 q 441 1195 441 1223 q 420 1145 441 1166 q 371 1124 399 1124 q 322 1145 342 1124 q 302 1196 302 1166 q 322 1244 302 1224 q 371 1263 342 1263 m 632 1261 q 682 1241 661 1261 q 702 1192 702 1221 q 681 1142 702 1163 q 632 1122 661 1122 q 582 1142 603 1122 q 562 1192 562 1163 q 582 1241 562 1221 q 632 1261 603 1261 z "},"È":{"ha":1003,"x_min":91,"x_max":935,"o":"m 91 1003 l 886 1003 l 905 665 l 859 665 q 773 888 832 825 q 621 952 715 952 l 424 952 q 388 939 400 952 q 376 900 376 926 l 376 543 l 462 543 q 574 592 531 543 q 621 744 617 642 l 667 744 l 667 279 l 621 279 q 573 445 617 395 q 454 494 530 494 l 376 494 l 376 96 q 390 62 376 74 q 439 51 405 51 l 594 51 q 886 374 847 51 l 935 374 l 918 0 l 91 0 l 91 51 l 159 51 q 216 65 199 51 q 232 105 232 79 l 232 900 q 218 939 232 926 q 173 952 203 952 l 91 952 l 91 1003 m 637 1093 l 621 1076 l 433 1214 q 358 1303 358 1269 q 375 1341 358 1324 q 415 1358 393 1358 q 483 1315 452 1358 l 637 1093 z "},"Í":{"ha":566,"x_min":52,"x_max":514,"o":"m 52 1003 l 514 1003 l 514 952 l 435 952 q 368 939 382 952 q 354 883 354 926 l 354 123 q 366 66 354 78 q 425 51 382 51 l 514 51 l 514 0 l 52 0 l 52 51 l 139 51 q 199 64 185 51 q 212 123 212 78 l 212 883 q 200 937 212 926 q 130 952 181 952 l 52 952 l 52 1003 m 206 1076 l 189 1093 l 305 1259 q 372 1343 353 1329 q 411 1358 391 1358 q 450 1342 433 1358 q 467 1304 467 1325 q 419 1234 467 1270 l 206 1076 z "},"Î":{"ha":566,"x_min":52,"x_max":514,"o":"m 52 1003 l 514 1003 l 514 952 l 435 952 q 368 939 382 952 q 354 883 354 926 l 354 123 q 366 66 354 78 q 425 51 382 51 l 514 51 l 514 0 l 52 0 l 52 51 l 139 51 q 199 64 185 51 q 212 123 212 78 l 212 883 q 200 937 212 926 q 130 952 181 952 l 52 952 l 52 1003 m 254 1350 l 310 1350 l 472 1116 l 429 1116 l 281 1251 l 136 1116 l 93 1116 l 254 1350 z "},"Ï":{"ha":566,"x_min":52,"x_max":514,"o":"m 52 1003 l 514 1003 l 514 952 l 435 952 q 368 939 382 952 q 354 883 354 926 l 354 123 q 366 66 354 78 q 425 51 382 51 l 514 51 l 514 0 l 52 0 l 52 51 l 139 51 q 199 64 185 51 q 212 123 212 78 l 212 883 q 200 937 212 926 q 130 952 181 952 l 52 952 l 52 1003 m 152 1263 q 201 1243 181 1263 q 222 1195 222 1223 q 201 1145 222 1166 q 152 1124 180 1124 q 103 1145 123 1124 q 83 1196 83 1166 q 103 1244 83 1224 q 152 1263 123 1263 m 413 1261 q 463 1241 442 1261 q 483 1192 483 1221 q 462 1142 483 1163 q 413 1122 441 1122 q 363 1142 384 1122 q 342 1192 342 1163 q 363 1241 342 1221 q 413 1261 384 1261 z "},"Ì":{"ha":566,"x_min":52,"x_max":514,"o":"m 52 1003 l 514 1003 l 514 952 l 435 952 q 368 939 382 952 q 354 883 354 926 l 354 123 q 366 66 354 78 q 425 51 382 51 l 514 51 l 514 0 l 52 0 l 52 51 l 139 51 q 199 64 185 51 q 212 123 212 78 l 212 883 q 200 937 212 926 q 130 952 181 952 l 52 952 l 52 1003 m 418 1093 l 402 1076 l 214 1214 q 139 1303 139 1269 q 156 1341 139 1324 q 196 1358 174 1358 q 264 1315 233 1358 l 418 1093 z "},"Ó":{"ha":1080,"x_min":75,"x_max":1006,"o":"m 532 1024 q 769 957 659 1024 q 943 771 880 890 q 1006 501 1006 651 q 943 231 1006 351 q 769 42 880 110 q 536 -25 659 -25 q 309 41 415 -25 q 139 230 203 107 q 75 503 75 353 q 137 770 75 651 q 307 957 199 889 q 532 1024 415 1024 m 543 972 q 328 862 410 972 q 246 504 246 752 q 330 132 246 235 q 538 28 414 28 q 691 75 625 28 q 796 224 757 122 q 835 491 835 326 q 798 773 835 671 q 694 923 762 874 q 543 972 626 972 m 426 1076 l 409 1093 l 525 1259 q 592 1343 572 1329 q 631 1358 611 1358 q 670 1342 653 1358 q 687 1304 687 1325 q 639 1234 687 1270 l 426 1076 z "},"Ô":{"ha":1080,"x_min":75,"x_max":1006,"o":"m 532 1024 q 769 957 659 1024 q 943 771 880 890 q 1006 501 1006 651 q 943 231 1006 351 q 769 42 880 110 q 536 -25 659 -25 q 309 41 415 -25 q 139 230 203 107 q 75 503 75 353 q 137 770 75 651 q 307 957 199 889 q 532 1024 415 1024 m 543 972 q 328 862 410 972 q 246 504 246 752 q 330 132 246 235 q 538 28 414 28 q 691 75 625 28 q 796 224 757 122 q 835 491 835 326 q 798 773 835 671 q 694 923 762 874 q 543 972 626 972 m 512 1350 l 568 1350 l 730 1116 l 686 1116 l 539 1251 l 394 1116 l 351 1116 l 512 1350 z "},"":{"ha":1097,"x_min":0,"x_max":0,"o":""},"Ò":{"ha":1080,"x_min":75,"x_max":1006,"o":"m 532 1024 q 769 957 659 1024 q 943 771 880 890 q 1006 501 1006 651 q 943 231 1006 351 q 769 42 880 110 q 536 -25 659 -25 q 309 41 415 -25 q 139 230 203 107 q 75 503 75 353 q 137 770 75 651 q 307 957 199 889 q 532 1024 415 1024 m 543 972 q 328 862 410 972 q 246 504 246 752 q 330 132 246 235 q 538 28 414 28 q 691 75 625 28 q 796 224 757 122 q 835 491 835 326 q 798 773 835 671 q 694 923 762 874 q 543 972 626 972 m 675 1093 l 660 1076 l 471 1214 q 397 1303 397 1269 q 414 1341 397 1324 q 454 1358 431 1358 q 522 1315 491 1358 l 675 1093 z "},"Ú":{"ha":1132,"x_min":37,"x_max":1105,"o":"m 37 1003 l 500 1003 l 500 952 l 407 952 q 355 940 370 952 q 340 903 340 928 l 340 336 q 355 202 340 248 q 440 95 378 135 q 600 55 501 55 q 809 126 737 55 q 881 315 881 197 l 881 776 q 872 868 881 837 q 848 918 864 900 q 808 944 832 935 q 726 952 783 952 l 726 1003 l 1105 1003 l 1105 952 l 1078 952 q 983 918 1015 952 q 952 819 952 884 l 952 326 q 860 78 952 164 q 584 -19 756 -19 q 349 23 435 -19 q 225 145 264 66 q 196 297 196 205 l 196 903 q 180 939 196 926 q 132 952 164 952 l 37 952 l 37 1003 m 530 1076 l 513 1093 l 629 1259 q 696 1343 677 1329 q 735 1358 715 1358 q 774 1342 758 1358 q 791 1304 791 1325 q 743 1234 791 1270 l 530 1076 z "},"Û":{"ha":1132,"x_min":37,"x_max":1105,"o":"m 37 1003 l 500 1003 l 500 952 l 407 952 q 355 940 370 952 q 340 903 340 928 l 340 336 q 355 202 340 248 q 440 95 378 135 q 600 55 501 55 q 809 126 737 55 q 881 315 881 197 l 881 776 q 872 868 881 837 q 848 918 864 900 q 808 944 832 935 q 726 952 783 952 l 726 1003 l 1105 1003 l 1105 952 l 1078 952 q 983 918 1015 952 q 952 819 952 884 l 952 326 q 860 78 952 164 q 584 -19 756 -19 q 349 23 435 -19 q 225 145 264 66 q 196 297 196 205 l 196 903 q 180 939 196 926 q 132 952 164 952 l 37 952 l 37 1003 m 565 1350 l 621 1350 l 783 1116 l 739 1116 l 592 1251 l 447 1116 l 404 1116 l 565 1350 z "},"Ù":{"ha":1132,"x_min":37,"x_max":1105,"o":"m 37 1003 l 500 1003 l 500 952 l 407 952 q 355 940 370 952 q 340 903 340 928 l 340 336 q 355 202 340 248 q 440 95 378 135 q 600 55 501 55 q 809 126 737 55 q 881 315 881 197 l 881 776 q 872 868 881 837 q 848 918 864 900 q 808 944 832 935 q 726 952 783 952 l 726 1003 l 1105 1003 l 1105 952 l 1078 952 q 983 918 1015 952 q 952 819 952 884 l 952 326 q 860 78 952 164 q 584 -19 756 -19 q 349 23 435 -19 q 225 145 264 66 q 196 297 196 205 l 196 903 q 180 939 196 926 q 132 952 164 952 l 37 952 l 37 1003 m 701 1093 l 686 1076 l 497 1214 q 422 1303 422 1269 q 440 1341 422 1324 q 479 1358 457 1358 q 547 1315 517 1358 l 701 1093 z "},"ı":{"ha":437,"x_min":33,"x_max":408,"o":"m 33 635 l 286 643 l 286 96 q 296 64 286 74 q 336 51 312 51 l 408 51 l 408 0 l 47 0 l 47 51 l 114 51 q 158 65 144 51 q 172 108 172 80 l 172 508 q 150 565 172 546 q 85 585 128 585 l 33 585 l 33 635 z "},"ˆ":{"ha":463,"x_min":41,"x_max":420,"o":"m 203 1015 l 258 1015 l 420 781 l 377 781 l 230 916 l 85 781 l 41 781 l 203 1015 z "},"˜":{"ha":463,"x_min":3,"x_max":462,"o":"m 439 945 l 462 945 q 422 832 461 873 q 328 790 384 790 q 189 825 286 790 q 93 850 117 850 q 26 790 43 850 l 3 790 q 138 943 17 943 q 267 913 182 943 q 373 883 352 883 q 439 945 421 883 z "},"ˉ":{"ha":463,"x_min":12,"x_max":451,"o":"m 12 946 l 451 946 l 451 858 l 12 858 l 12 946 z "},"˘":{"ha":463,"x_min":22,"x_max":433,"o":"m 22 1003 l 64 1003 q 120 937 82 959 q 224 916 157 916 q 338 940 294 916 q 389 1003 371 959 l 433 1003 q 399 886 427 932 q 325 814 371 840 q 225 787 279 787 q 90 842 145 787 q 22 1003 35 897 z "},"˙":{"ha":463,"x_min":162,"x_max":301,"o":"m 231 974 q 281 954 260 974 q 301 905 301 934 q 280 856 301 876 q 231 835 260 835 q 182 856 203 835 q 162 905 162 876 q 182 954 162 934 q 231 974 203 974 z "},"˚":{"ha":463,"x_min":87,"x_max":370,"o":"m 231 1035 q 329 994 288 1035 q 370 895 370 952 q 329 794 370 836 q 229 752 288 752 q 129 793 170 752 q 87 892 87 834 q 129 993 87 951 q 231 1035 171 1035 m 230 979 q 169 954 194 979 q 143 892 143 928 q 168 832 143 857 q 229 808 193 808 q 289 833 264 808 q 315 894 315 859 q 290 955 315 930 q 230 979 265 979 z "},"¸":{"ha":463,"x_min":71,"x_max":326,"o":"m 216 -26 q 298 -63 270 -35 q 326 -127 326 -91 q 278 -224 326 -185 q 141 -264 231 -264 q 71 -261 115 -264 l 71 -209 l 103 -209 q 191 -188 163 -209 q 218 -136 218 -167 q 150 -79 218 -91 l 165 7 l 220 7 l 216 -26 z "},"˝":{"ha":463,"x_min":63,"x_max":615,"o":"m 354 742 l 337 759 l 452 925 q 520 1009 500 994 q 558 1024 539 1024 q 598 1008 581 1024 q 615 970 615 991 q 567 900 615 936 l 354 742 m 80 742 l 63 759 l 179 925 q 246 1009 227 994 q 285 1024 265 1024 q 324 1007 307 1024 q 341 970 341 991 q 293 900 341 936 l 80 742 z "},"˛":{"ha":463,"x_min":98,"x_max":414,"o":"m 153 7 l 189 7 q 171 -63 171 -31 q 212 -162 171 -124 q 318 -201 254 -201 q 400 -185 355 -201 l 414 -208 q 328 -250 363 -239 q 255 -261 294 -261 q 140 -224 182 -261 q 98 -129 98 -186 q 153 7 98 -48 z "},"ˇ":{"ha":463,"x_min":41,"x_max":420,"o":"m 41 1015 l 84 1015 l 230 879 l 376 1015 l 420 1015 l 256 779 l 199 779 l 41 1015 z "},"Ł":{"ha":926,"x_min":18,"x_max":876,"o":"m 319 103 q 335 63 319 75 q 399 51 351 51 l 541 51 q 725 126 653 51 q 829 386 796 201 l 876 386 l 853 0 l 18 0 l 18 51 l 100 51 q 159 67 142 51 q 176 118 176 83 l 176 444 l 18 348 l 18 415 l 176 513 l 176 901 q 161 940 176 927 q 119 952 147 952 l 18 952 l 18 1003 l 482 1003 l 482 952 l 371 952 q 332 938 345 952 q 319 895 319 924 l 319 591 l 602 768 l 602 699 l 319 522 l 319 103 z "},"ł":{"ha":437,"x_min":20,"x_max":391,"o":"m 20 952 l 20 1003 l 271 1015 l 271 628 l 391 736 l 391 673 l 271 565 l 271 94 q 283 64 271 75 q 324 51 300 51 l 391 51 l 391 0 l 32 0 l 32 51 l 96 51 q 142 66 127 51 q 157 108 157 81 l 157 477 l 28 370 l 28 432 l 157 541 l 157 881 q 139 930 157 915 q 77 952 114 952 l 20 952 z "},"Š":{"ha":875,"x_min":90,"x_max":812,"o":"m 642 927 l 703 1015 l 753 1015 l 757 649 l 712 649 q 588 895 670 817 q 398 972 505 972 q 252 918 309 972 q 195 787 195 865 q 216 703 195 739 q 281 644 238 667 q 444 595 324 621 q 679 522 611 559 q 779 428 746 484 q 812 295 812 371 q 721 70 812 159 q 486 -19 630 -19 q 216 81 330 -19 l 139 -12 l 90 -12 l 90 376 l 139 376 q 267 123 168 216 q 490 30 366 30 q 653 89 590 30 q 717 233 717 149 q 693 318 717 281 q 618 379 669 354 q 415 439 566 404 q 189 527 249 478 q 104 723 104 596 q 188 940 104 855 q 404 1024 273 1024 q 524 1002 467 1024 q 642 927 581 979 m 247 1350 l 290 1350 l 436 1214 l 583 1350 l 626 1350 l 463 1114 l 405 1114 l 247 1350 z "},"š":{"ha":643,"x_min":77,"x_max":585,"o":"m 121 239 q 218 77 163 122 q 353 32 273 32 q 466 64 427 32 q 506 146 506 96 q 491 196 506 174 q 451 228 477 217 q 317 258 425 238 q 174 301 214 279 q 110 363 133 323 q 87 448 87 402 q 134 575 87 518 q 303 648 195 648 q 456 595 386 648 l 501 643 l 529 643 l 547 416 l 501 416 q 420 555 471 513 q 295 597 370 597 q 194 566 231 597 q 157 489 157 534 q 191 422 157 449 q 321 380 224 395 q 468 348 434 361 q 554 285 524 328 q 585 182 585 243 q 518 39 585 98 q 351 -19 452 -19 q 176 43 256 -19 l 126 -14 l 90 -14 l 77 239 l 121 239 m 147 1015 l 191 1015 l 336 879 l 483 1015 l 526 1015 l 363 779 l 305 779 l 147 1015 z "},"Ž":{"ha":848,"x_min":50,"x_max":794,"o":"m 102 1003 l 785 1003 l 785 952 l 212 51 l 429 51 q 583 81 523 51 q 679 173 642 112 q 747 376 716 233 l 794 376 l 776 0 l 50 0 l 50 45 l 629 952 l 422 952 q 290 932 337 952 q 186 838 227 906 q 130 656 146 770 l 83 656 l 102 1003 m 234 1350 l 277 1350 l 423 1214 l 570 1350 l 613 1350 l 450 1114 l 392 1114 l 234 1350 z "},"ž":{"ha":668,"x_min":66,"x_max":616,"o":"m 102 635 l 606 635 l 606 595 l 207 51 l 401 51 q 509 93 469 51 q 570 249 549 135 l 616 249 l 601 0 l 66 0 l 66 47 l 465 587 l 296 587 q 217 573 243 587 q 172 525 191 558 q 137 409 153 491 l 87 409 l 102 635 m 167 1015 l 210 1015 l 356 879 l 503 1015 l 546 1015 l 382 779 l 325 779 l 167 1015 z "},"¦":{"ha":842,"x_min":376,"x_max":467,"o":"m 376 1003 l 467 1003 l 467 594 l 376 594 l 376 1003 m 376 218 l 467 218 l 467 -191 l 376 -191 l 376 218 z "},"Ð":{"ha":1080,"x_min":22,"x_max":977,"o":"m 22 952 l 22 1003 l 540 1003 q 736 962 655 1003 q 906 791 836 911 q 977 507 977 671 q 935 262 977 371 q 837 117 903 179 q 675 23 770 54 q 486 0 604 0 l 22 0 l 22 51 l 117 51 q 166 62 153 51 q 180 98 180 74 l 180 472 l 22 472 l 22 532 l 180 532 l 180 906 q 165 940 180 927 q 124 952 151 952 l 22 952 m 326 472 l 326 100 q 343 63 326 76 q 400 51 359 51 l 486 51 q 686 110 600 51 q 772 220 743 149 q 812 486 812 317 q 724 854 812 737 q 500 952 650 952 l 385 952 q 340 939 355 952 q 326 901 326 926 l 326 532 l 500 532 l 500 472 l 326 472 z "},"ð":{"ha":694,"x_min":42,"x_max":646,"o":"m 482 597 q 426 756 465 688 q 312 895 388 824 l 190 842 l 161 878 l 276 926 q 180 992 232 961 l 217 1020 q 333 952 283 987 l 439 992 l 472 957 l 375 918 q 576 670 507 810 q 646 376 646 530 q 606 158 646 247 q 497 25 566 69 q 340 -19 429 -19 q 128 74 214 -19 q 42 317 42 168 q 128 561 42 467 q 336 654 214 654 q 427 638 385 654 q 482 597 457 627 m 342 606 q 216 538 264 606 q 167 320 167 469 q 216 99 167 168 q 343 30 264 30 q 471 100 422 30 q 520 328 520 170 q 472 540 520 474 q 342 606 423 606 z "},"Ý":{"ha":978,"x_min":-8,"x_max":991,"o":"m -8 1003 l 431 1003 l 431 952 l 382 952 q 303 943 321 952 q 285 916 285 933 q 294 884 285 899 l 549 489 l 732 826 q 745 875 745 848 q 722 931 745 910 q 656 952 699 952 l 609 952 l 609 1003 l 991 1003 l 991 952 q 888 929 926 952 q 814 842 850 906 l 583 418 l 583 101 q 597 65 583 76 q 656 51 617 51 l 742 51 l 742 0 l 281 0 l 281 51 l 372 51 q 425 64 409 51 q 441 101 441 77 l 441 410 l 130 895 q 83 938 110 926 q -8 952 56 951 l -8 1003 m 439 1076 l 422 1093 l 538 1259 q 605 1343 586 1329 q 644 1358 625 1358 q 684 1342 667 1358 q 701 1304 701 1325 q 652 1234 701 1270 l 439 1076 z "},"ý":{"ha":746,"x_min":29,"x_max":731,"o":"m 31 635 l 336 635 l 336 589 l 307 589 q 253 579 267 589 q 238 549 238 568 q 242 531 238 540 l 419 149 l 551 466 q 565 532 565 500 q 545 571 565 557 q 467 589 526 585 l 467 635 l 731 635 l 731 589 q 628 521 654 582 l 393 -26 q 273 -218 333 -165 q 142 -271 212 -271 q 60 -243 91 -271 q 29 -174 29 -215 q 48 -124 29 -144 q 96 -104 67 -104 q 139 -121 121 -104 q 157 -162 157 -138 q 154 -182 157 -170 q 151 -197 151 -193 q 172 -214 151 -214 q 223 -197 195 -214 q 275 -145 251 -181 q 361 14 300 -109 l 120 531 q 88 571 107 558 q 31 589 68 585 l 31 635 m 304 742 l 287 759 l 403 925 q 470 1009 450 994 q 509 1024 489 1024 q 548 1007 531 1024 q 565 970 565 991 q 517 900 565 936 l 304 742 z "},"Þ":{"ha":926,"x_min":28,"x_max":867,"o":"m 330 242 l 330 110 q 345 67 330 80 q 395 51 363 51 l 511 51 l 511 0 l 28 0 l 28 51 l 129 51 q 173 63 159 51 q 186 95 186 75 l 186 895 q 169 939 186 925 q 102 952 151 952 l 28 952 l 28 1003 l 511 1003 l 511 952 l 414 952 q 348 938 366 952 q 330 895 330 924 l 330 793 l 523 793 q 779 717 690 793 q 867 518 867 641 q 785 331 867 395 q 511 242 673 242 l 330 242 m 330 292 l 467 292 q 653 346 596 292 q 711 523 711 399 q 686 653 711 604 q 617 723 661 701 q 481 745 573 745 l 330 745 l 330 292 z "},"þ":{"ha":798,"x_min":16,"x_max":707,"o":"m 238 1015 l 238 510 q 336 616 285 585 q 449 647 388 647 q 573 607 514 647 q 670 490 633 567 q 707 315 707 412 q 616 62 707 160 q 435 -19 541 -19 q 328 12 376 -19 q 242 102 279 42 l 242 -155 q 256 -197 242 -184 q 307 -213 275 -213 l 354 -213 l 354 -261 l 16 -261 l 16 -213 l 62 -213 q 111 -200 95 -213 q 127 -166 127 -187 l 127 865 q 105 931 127 912 q 16 952 83 950 l 16 1003 l 238 1015 m 418 585 q 293 514 344 585 q 241 308 241 443 q 291 106 241 172 q 417 41 340 41 q 528 97 489 41 q 577 311 577 170 q 532 522 577 459 q 418 585 488 585 z "},"−":{"ha":842,"x_min":47,"x_max":795,"o":"m 47 515 l 795 515 l 795 425 l 47 425 l 47 515 z "},"×":{"ha":842,"x_min":77,"x_max":765,"o":"m 141 814 l 421 534 l 701 814 l 765 750 l 485 470 l 764 190 l 701 126 l 421 406 l 142 127 l 78 191 l 357 470 l 77 750 l 141 814 z "},"¹":{"ha":463,"x_min":85,"x_max":374,"o":"m 85 906 q 189 919 150 907 q 268 958 228 930 l 277 958 l 277 532 q 285 513 277 520 q 307 507 293 507 l 374 507 l 374 473 l 94 473 l 94 507 l 153 507 q 190 518 180 507 q 199 557 199 529 l 199 833 q 188 866 199 857 q 144 875 177 875 l 85 875 l 85 906 z "},"²":{"ha":463,"x_min":25,"x_max":377,"o":"m 119 554 l 289 554 q 324 565 313 554 q 349 629 335 576 l 374 629 l 363 473 l 25 473 l 25 502 l 194 671 q 281 836 281 758 q 254 900 281 874 q 182 926 226 926 q 117 908 143 926 q 92 870 92 889 q 119 845 92 856 q 148 808 148 833 q 134 772 148 786 q 98 758 120 758 q 54 778 72 758 q 36 831 36 798 q 83 921 36 883 q 214 958 130 958 q 337 926 297 958 q 377 840 377 893 q 349 760 377 802 q 216 634 321 718 q 119 554 151 582 z "},"³":{"ha":463,"x_min":54,"x_max":410,"o":"m 303 720 q 383 677 357 707 q 410 600 410 647 q 361 502 410 541 q 230 463 313 463 q 101 499 147 463 q 54 580 54 534 q 70 623 54 606 q 109 639 85 639 q 142 626 130 639 q 154 591 154 613 q 141 555 154 574 q 132 532 132 541 q 149 509 132 519 q 213 494 174 494 q 289 520 264 494 q 314 605 314 546 q 295 682 314 656 q 241 706 275 706 l 212 704 l 185 703 q 156 708 163 703 q 149 722 149 713 q 156 735 149 730 q 179 741 163 741 l 211 739 q 245 736 235 736 q 295 758 278 736 q 312 828 312 779 q 289 904 312 880 q 219 928 265 928 q 167 917 184 928 q 149 889 149 905 q 157 867 149 881 q 165 841 165 852 q 152 813 165 824 q 119 802 140 802 q 85 815 98 802 q 72 853 72 829 q 116 926 72 893 q 235 958 161 958 q 353 922 309 958 q 396 832 396 885 q 373 769 396 797 q 303 720 350 741 z "},"½":{"ha":1157,"x_min":113,"x_max":1011,"o":"m 113 907 q 217 920 178 908 q 296 959 256 931 l 306 959 l 306 533 q 314 514 306 521 q 336 507 321 507 l 403 507 l 403 474 l 123 474 l 123 507 l 182 507 q 218 518 208 507 q 228 557 228 530 l 228 834 q 217 866 228 857 q 173 876 205 876 l 113 876 l 113 907 m 849 941 l 908 941 l 260 0 l 202 0 l 849 941 m 753 80 l 923 80 q 958 91 947 80 q 983 155 969 102 l 1008 155 l 997 -1 l 659 -1 l 659 28 l 828 197 q 916 361 916 283 q 888 426 916 400 q 817 452 860 452 q 751 434 777 452 q 726 396 726 415 q 753 371 726 382 q 782 334 782 359 q 768 298 782 312 q 732 284 754 284 q 688 304 706 284 q 670 357 670 323 q 717 447 670 409 q 848 484 764 484 q 971 452 931 484 q 1011 366 1011 419 q 983 286 1011 328 q 850 160 956 244 q 753 80 785 108 z "},"¼":{"ha":1157,"x_min":113,"x_max":1000,"o":"m 113 907 q 217 920 178 908 q 296 959 256 931 l 306 959 l 306 533 q 314 514 306 521 q 336 507 321 507 l 403 507 l 403 474 l 123 474 l 123 507 l 182 507 q 218 518 208 507 q 228 557 228 530 l 228 834 q 217 866 228 857 q 173 876 205 876 l 113 876 l 113 907 m 886 941 l 945 941 l 297 0 l 239 0 l 886 941 m 886 484 l 909 484 l 909 149 l 1000 149 l 1000 109 l 909 109 l 909 71 q 919 40 909 50 q 951 31 929 31 l 985 31 l 985 -1 l 748 -1 l 748 31 l 785 31 q 819 40 808 31 q 829 66 829 50 l 829 109 l 602 109 l 602 149 l 886 484 m 829 370 l 644 149 l 829 149 l 829 370 z "},"¾":{"ha":1157,"x_min":127,"x_max":1017,"o":"m 376 720 q 456 677 429 707 q 482 600 482 647 q 434 502 482 541 q 302 463 386 463 q 173 499 220 463 q 127 580 127 534 q 142 623 127 606 q 181 639 157 639 q 214 626 202 639 q 227 591 227 613 q 214 555 227 574 q 204 532 204 541 q 222 509 204 519 q 286 494 246 494 q 362 520 337 494 q 387 605 387 546 q 368 682 387 656 q 314 706 348 706 l 285 704 l 258 703 q 229 708 236 703 q 221 722 221 713 q 228 735 221 730 q 252 741 235 741 l 283 739 q 318 736 307 736 q 368 758 351 736 q 385 828 385 779 q 361 904 385 880 q 292 928 338 928 q 239 917 257 928 q 222 889 222 905 q 229 867 222 881 q 237 841 237 852 q 225 813 237 824 q 191 802 212 802 q 157 815 170 802 q 144 853 144 829 q 189 926 144 893 q 308 958 233 958 q 425 922 382 958 q 469 832 469 885 q 446 769 469 797 q 376 720 422 741 m 905 941 l 964 941 l 316 0 l 258 0 l 905 941 m 903 485 l 926 485 l 926 150 l 1017 150 l 1017 110 l 926 110 l 926 71 q 936 41 926 50 q 968 32 946 32 l 1002 32 l 1002 0 l 765 0 l 765 32 l 802 32 q 836 41 825 32 q 846 66 846 50 l 846 110 l 618 110 l 618 150 l 903 485 m 846 371 l 661 150 l 846 150 l 846 371 z "},"₣":{"ha":926,"x_min":72,"x_max":901,"o":"m 377 245 l 564 245 l 564 186 l 377 186 l 377 113 q 393 65 377 79 q 450 51 410 51 l 554 51 l 554 0 l 72 0 l 72 51 l 175 51 q 219 63 206 51 q 233 104 233 76 l 233 186 l 72 186 l 72 245 l 233 245 l 233 902 q 219 941 233 929 q 170 952 205 952 l 72 952 l 72 1003 l 888 1003 l 901 656 l 854 656 q 767 889 823 835 q 583 952 703 952 l 422 952 q 388 941 399 952 q 377 907 377 930 l 377 545 l 463 545 q 578 592 535 545 q 624 739 621 640 l 673 739 l 673 286 l 624 286 q 578 447 619 399 q 463 495 536 495 l 377 495 l 377 245 z "},"Ğ":{"ha":1080,"x_min":71,"x_max":1042,"o":"m 781 924 l 836 1024 l 882 1024 l 907 624 l 863 624 q 743 874 812 797 q 541 972 654 972 q 384 923 453 972 q 278 774 315 873 q 241 496 241 675 q 278 223 241 321 q 380 78 315 125 q 532 32 445 32 q 716 98 651 32 q 781 270 781 165 l 781 364 q 763 399 781 387 q 707 411 746 411 l 622 411 l 622 458 l 1042 458 l 1042 411 l 985 411 q 931 398 947 411 q 915 359 915 385 l 915 -24 l 870 -24 q 819 148 846 66 q 698 23 768 64 q 539 -19 628 -19 q 304 46 412 -19 q 133 230 196 111 q 71 497 71 348 q 134 766 71 647 q 306 954 197 884 q 528 1024 416 1024 q 649 1003 591 1024 q 781 924 707 981 m 347 1336 l 390 1336 q 445 1270 408 1292 q 550 1249 483 1249 q 663 1273 619 1249 q 714 1336 696 1292 l 759 1336 q 725 1219 753 1265 q 650 1147 696 1173 q 551 1120 604 1120 q 415 1175 471 1120 q 347 1336 360 1230 z "},"ğ":{"ha":746,"x_min":67,"x_max":736,"o":"m 532 600 q 657 668 600 668 q 713 646 691 668 q 736 593 736 625 q 721 552 736 568 q 685 535 705 535 q 633 583 646 535 q 614 603 627 603 q 564 572 591 603 q 604 503 593 532 q 615 439 615 473 q 587 335 615 380 q 492 256 558 290 q 366 221 426 221 l 292 221 q 187 205 213 221 q 161 155 161 188 q 182 115 161 129 q 262 100 203 100 l 429 104 q 612 61 556 104 q 668 -55 668 19 q 604 -192 668 -136 q 339 -271 515 -271 q 123 -217 193 -271 q 67 -123 67 -175 q 103 -50 67 -83 q 222 0 138 -16 q 121 48 155 16 q 87 126 87 79 q 115 202 87 170 q 210 257 142 234 q 123 334 153 289 q 94 437 94 379 q 167 592 94 530 q 355 654 239 654 q 447 641 403 654 q 532 600 491 627 m 354 611 q 254 567 294 611 q 215 442 215 522 q 254 310 215 357 q 355 262 294 262 q 455 308 416 262 q 494 439 494 354 q 454 565 494 519 q 354 611 414 611 m 394 -1 q 216 -35 269 -1 q 163 -119 163 -70 q 203 -191 163 -165 q 353 -227 256 -227 q 529 -188 470 -227 q 588 -102 588 -149 q 570 -50 588 -74 q 511 -13 551 -26 q 394 -1 471 -1 m 155 1003 l 197 1003 q 253 937 215 959 q 357 916 290 916 q 471 940 427 916 q 522 1003 504 959 l 566 1003 q 532 886 560 932 q 458 814 504 840 q 358 787 412 787 q 223 842 278 787 q 155 1003 168 897 z "},"İ":{"ha":566,"x_min":52,"x_max":514,"o":"m 52 1003 l 514 1003 l 514 952 l 435 952 q 368 939 382 952 q 354 883 354 926 l 354 123 q 366 66 354 78 q 425 51 382 51 l 514 51 l 514 0 l 52 0 l 52 51 l 139 51 q 199 64 185 51 q 212 123 212 78 l 212 883 q 200 937 212 926 q 130 952 181 952 l 52 952 l 52 1003 m 282 1307 q 332 1287 311 1307 q 352 1238 352 1267 q 331 1188 352 1209 q 282 1168 311 1168 q 233 1188 254 1168 q 213 1238 213 1209 q 233 1287 213 1267 q 282 1307 254 1307 z "},"Ş":{"ha":875,"x_min":90,"x_max":812,"o":"m 642 927 l 703 1015 l 753 1015 l 757 649 l 712 649 q 588 895 670 817 q 398 972 505 972 q 252 918 309 972 q 195 787 195 865 q 216 703 195 739 q 281 644 238 667 q 444 595 324 621 q 679 522 611 559 q 779 428 746 484 q 812 295 812 371 q 721 70 812 159 q 486 -19 630 -19 q 216 81 330 -19 l 139 -12 l 90 -12 l 90 376 l 139 376 q 267 123 168 216 q 490 30 366 30 q 653 89 590 30 q 717 233 717 149 q 693 318 717 281 q 618 379 669 354 q 415 439 566 404 q 189 527 249 478 q 104 723 104 596 q 188 940 104 855 q 404 1024 273 1024 q 524 1002 467 1024 q 642 927 581 979 m 487 -26 q 569 -63 541 -35 q 597 -127 597 -91 q 550 -224 597 -185 q 412 -264 502 -264 q 342 -261 387 -264 l 342 -209 l 374 -209 q 462 -188 434 -209 q 490 -136 490 -167 q 421 -79 490 -91 l 436 7 l 491 7 l 487 -26 z "},"ş":{"ha":643,"x_min":77,"x_max":585,"o":"m 121 239 q 218 77 163 122 q 353 32 273 32 q 466 64 427 32 q 506 146 506 96 q 491 196 506 174 q 451 228 477 217 q 317 258 425 238 q 174 301 214 279 q 110 363 133 323 q 87 448 87 402 q 134 575 87 518 q 303 648 195 648 q 456 595 386 648 l 501 643 l 529 643 l 547 416 l 501 416 q 420 555 471 513 q 295 597 370 597 q 194 566 231 597 q 157 489 157 534 q 191 422 157 449 q 321 380 224 395 q 468 348 434 361 q 554 285 524 328 q 585 182 585 243 q 518 39 585 98 q 351 -19 452 -19 q 176 43 256 -19 l 126 -14 l 90 -14 l 77 239 l 121 239 m 347 -26 q 429 -63 401 -35 q 457 -127 457 -91 q 409 -224 457 -185 q 272 -264 361 -264 q 201 -261 246 -264 l 201 -209 l 234 -209 q 321 -188 294 -209 q 349 -136 349 -167 q 281 -79 349 -91 l 296 7 l 351 7 l 347 -26 z "},"Ć":{"ha":1003,"x_min":96,"x_max":936,"o":"m 804 925 l 850 1022 l 893 1022 l 911 618 l 865 618 q 753 869 821 789 q 552 970 669 970 q 347 858 426 970 q 267 477 267 745 q 358 132 267 251 q 575 32 435 32 q 780 110 697 32 q 888 347 863 189 l 936 347 q 813 71 915 168 q 557 -25 711 -25 q 327 38 431 -25 q 159 219 222 101 q 96 479 96 338 q 161 760 96 629 q 327 958 226 892 q 545 1024 428 1024 q 671 1002 610 1024 q 804 925 732 979 m 466 1075 l 449 1092 l 565 1258 q 632 1342 612 1327 q 671 1357 651 1357 q 710 1340 693 1357 q 727 1303 727 1324 q 679 1233 727 1269 l 466 1075 z "},"ć":{"ha":616,"x_min":41,"x_max":575,"o":"m 531 189 l 575 176 q 342 -19 522 -19 q 125 68 210 -19 q 41 301 41 156 q 134 562 41 469 q 351 654 226 654 q 505 603 444 654 q 566 488 566 551 q 544 426 566 450 q 490 401 521 401 q 438 422 459 401 q 417 473 417 443 q 440 530 417 503 q 451 550 451 543 q 425 588 451 570 q 353 607 398 607 q 227 547 270 607 q 166 316 166 459 q 220 110 166 180 q 359 39 275 39 q 531 189 475 39 m 257 742 l 240 759 l 356 925 q 423 1009 404 994 q 462 1024 442 1024 q 501 1007 484 1024 q 518 970 518 991 q 470 900 518 936 l 257 742 z "},"Č":{"ha":1003,"x_min":96,"x_max":936,"o":"m 804 925 l 850 1022 l 893 1022 l 911 618 l 865 618 q 753 869 821 789 q 552 970 669 970 q 347 858 426 970 q 267 477 267 745 q 358 132 267 251 q 575 32 435 32 q 780 110 697 32 q 888 347 863 189 l 936 347 q 813 71 915 168 q 557 -25 711 -25 q 327 38 431 -25 q 159 219 222 101 q 96 479 96 338 q 161 760 96 629 q 327 958 226 892 q 545 1024 428 1024 q 671 1002 610 1024 q 804 925 732 979 m 351 1348 l 395 1348 l 541 1213 l 687 1348 l 730 1348 l 567 1112 l 509 1112 l 351 1348 z "},"č":{"ha":616,"x_min":41,"x_max":575,"o":"m 531 189 l 575 176 q 342 -19 522 -19 q 125 68 210 -19 q 41 301 41 156 q 134 562 41 469 q 351 654 226 654 q 505 603 444 654 q 566 488 566 551 q 544 426 566 450 q 490 401 521 401 q 438 422 459 401 q 417 473 417 443 q 440 530 417 503 q 451 550 451 543 q 425 588 451 570 q 353 607 398 607 q 227 547 270 607 q 166 316 166 459 q 220 110 166 180 q 359 39 275 39 q 531 189 475 39 m 151 1015 l 194 1015 l 340 879 l 486 1015 l 530 1015 l 366 779 l 309 779 l 151 1015 z "},"đ":{"ha":798,"x_min":74,"x_max":781,"o":"m 406 1003 l 654 1015 l 654 821 l 781 821 l 781 772 l 654 772 l 654 145 q 673 73 654 94 q 731 51 692 51 l 775 51 l 775 0 l 558 0 l 542 130 q 451 25 503 60 q 335 -9 399 -9 q 150 81 227 -9 q 74 321 74 172 q 172 579 74 483 q 348 654 248 654 q 457 624 409 654 q 542 532 506 593 l 542 772 l 315 772 l 315 821 l 542 821 l 542 890 q 520 936 542 919 q 451 952 498 952 l 406 952 l 406 1003 m 366 598 q 250 538 293 598 q 207 334 207 477 q 251 116 207 179 q 364 52 295 52 q 491 123 438 52 q 543 330 543 194 q 487 533 543 459 q 366 598 438 598 z "},"¯":{"ha":694,"x_min":-8,"x_max":703,"o":"m -8 1177 l 703 1177 l 703 1107 l -8 1107 l -8 1177 z "},"·":{"ha":463,"x_min":348,"x_max":487,"o":"m 417 577 q 467 557 446 577 q 487 509 487 536 q 466 458 487 479 q 417 437 446 437 q 368 458 389 437 q 348 509 348 479 q 368 557 348 537 q 417 577 389 577 z "},"":{"ha":463,"x_min":16,"x_max":414,"o":"m 300 958 l 323 958 l 323 623 l 414 623 l 414 583 l 323 583 l 323 545 q 333 514 323 524 q 365 505 343 505 l 399 505 l 399 473 l 162 473 l 162 505 l 199 505 q 233 514 222 505 q 243 540 243 524 l 243 583 l 16 583 l 16 623 l 300 958 m 243 844 l 58 623 l 243 623 l 243 844 z "},"Ă":{"ha":1003,"x_min":-10,"x_max":1010,"o":"m 485 1024 l 530 1024 l 890 106 q 979 51 912 51 l 1010 51 l 1010 0 l 610 0 l 610 51 l 642 51 q 730 64 705 51 q 748 94 748 74 q 743 118 748 105 l 660 331 l 264 331 l 217 209 q 199 132 199 160 q 230 75 199 98 q 319 51 260 51 l 353 51 l 353 0 l -10 0 l -10 51 q 82 76 48 51 q 144 173 116 102 l 485 1024 m 465 831 l 286 384 l 640 384 l 465 831 m 304 1337 l 347 1337 q 402 1272 365 1293 q 507 1250 440 1250 q 621 1274 576 1250 q 671 1337 654 1293 l 716 1337 q 682 1220 710 1266 q 608 1148 654 1175 q 508 1122 562 1122 q 373 1176 428 1122 q 304 1337 317 1231 z "},"ă":{"ha":772,"x_min":68,"x_max":741,"o":"m 717 70 l 741 32 q 631 -19 692 -19 q 554 6 585 -19 q 498 94 522 31 q 385 4 434 26 q 268 -19 336 -19 q 119 23 170 -19 q 68 131 68 65 q 185 295 68 230 q 494 382 301 361 l 494 479 q 453 567 494 530 q 348 604 412 604 q 246 579 289 604 q 216 543 216 561 q 232 511 216 533 q 252 463 252 484 q 232 413 252 433 q 180 394 212 394 q 124 417 146 394 q 101 476 101 440 q 177 599 101 543 q 375 654 252 654 q 548 606 488 654 q 608 486 608 556 l 608 138 q 623 71 608 92 q 661 48 637 48 q 717 70 688 48 m 494 338 q 250 260 322 314 q 197 145 197 220 q 224 63 197 93 q 297 34 252 34 q 436 95 377 34 q 494 247 494 155 l 494 338 m 157 1003 l 200 1003 q 255 937 218 959 q 360 916 293 916 q 473 940 429 916 q 524 1003 507 959 l 569 1003 q 535 886 563 932 q 460 814 507 840 q 361 787 414 787 q 225 842 281 787 q 157 1003 170 897 z "},"Ą":{"ha":1003,"x_min":-10,"x_max":1110,"o":"m 485 1024 l 530 1024 l 890 106 q 979 51 912 51 l 1010 51 l 1010 0 l 610 0 l 610 51 l 642 51 q 730 64 705 51 q 748 94 748 74 q 743 118 748 105 l 660 331 l 264 331 l 217 209 q 199 132 199 160 q 230 75 199 98 q 319 51 260 51 l 353 51 l 353 0 l -10 0 l -10 51 q 82 76 48 51 q 144 173 116 102 l 485 1024 m 465 831 l 286 384 l 640 384 l 465 831 m 849 7 l 885 7 q 867 -63 867 -31 q 908 -162 867 -124 q 1014 -201 949 -201 q 1096 -185 1051 -201 l 1110 -208 q 1024 -250 1059 -239 q 951 -261 989 -261 q 836 -224 878 -261 q 794 -129 794 -186 q 849 7 794 -48 z "},"ą":{"ha":772,"x_min":68,"x_max":889,"o":"m 717 70 l 741 32 q 631 -19 692 -19 q 554 6 585 -19 q 498 94 522 31 q 385 4 434 26 q 268 -19 336 -19 q 119 23 170 -19 q 68 131 68 65 q 185 295 68 230 q 494 382 301 361 l 494 479 q 453 567 494 530 q 348 604 412 604 q 246 579 289 604 q 216 543 216 561 q 232 511 216 533 q 252 463 252 484 q 232 413 252 433 q 180 394 212 394 q 124 417 146 394 q 101 476 101 440 q 177 599 101 543 q 375 654 252 654 q 548 606 488 654 q 608 486 608 556 l 608 138 q 623 71 608 92 q 661 48 637 48 q 717 70 688 48 m 494 338 q 250 260 322 314 q 197 145 197 220 q 224 63 197 93 q 297 34 252 34 q 436 95 377 34 q 494 247 494 155 l 494 338 m 628 7 l 664 7 q 646 -63 646 -31 q 687 -162 646 -124 q 793 -201 728 -201 q 875 -185 830 -201 l 889 -208 q 803 -250 838 -239 q 730 -261 768 -261 q 615 -224 657 -261 q 573 -129 573 -186 q 628 7 573 -48 z "},"Ď":{"ha":1080,"x_min":47,"x_max":1002,"o":"m 47 1003 l 566 1003 q 762 962 681 1003 q 932 791 862 911 q 1002 507 1002 671 q 960 262 1002 371 q 862 117 928 179 q 701 23 796 54 q 511 0 630 0 l 47 0 l 47 51 l 142 51 q 192 62 178 51 q 206 98 206 74 l 206 906 q 191 940 206 927 q 150 952 176 952 l 47 952 l 47 1003 m 411 952 q 366 939 380 952 q 351 901 351 926 l 351 100 q 368 63 351 76 q 426 51 385 51 l 511 51 q 712 110 626 51 q 798 220 768 149 q 838 486 838 317 q 750 854 838 737 q 525 952 675 952 l 411 952 m 278 1348 l 321 1348 l 467 1212 l 614 1348 l 657 1348 l 494 1112 l 436 1112 l 278 1348 z "},"ď":{"ha":904,"x_min":74,"x_max":896,"o":"m 406 1003 l 654 1015 l 654 145 q 673 73 654 94 q 731 51 692 51 l 775 51 l 775 0 l 558 0 l 542 130 q 451 25 503 60 q 335 -9 399 -9 q 150 81 227 -9 q 74 321 74 172 q 172 579 74 483 q 348 654 248 654 q 457 624 409 654 q 542 532 506 593 l 542 890 q 520 936 542 919 q 451 952 498 952 l 406 952 l 406 1003 m 366 598 q 250 538 293 598 q 207 334 207 477 q 251 116 207 179 q 364 52 295 52 q 491 123 438 52 q 543 330 543 194 q 487 533 543 459 q 366 598 438 598 m 790 800 l 779 824 q 848 901 848 853 q 836 914 848 914 q 825 913 833 914 q 808 911 814 911 q 765 927 783 911 q 747 964 747 943 q 765 1000 747 984 q 812 1015 783 1015 q 873 992 850 1015 q 896 930 896 969 q 790 800 896 841 z "},"Đ":{"ha":1080,"x_min":22,"x_max":977,"o":"m 22 952 l 22 1003 l 540 1003 q 736 962 655 1003 q 906 791 836 911 q 977 507 977 671 q 935 262 977 371 q 837 117 903 179 q 675 23 770 54 q 486 0 604 0 l 22 0 l 22 51 l 117 51 q 166 62 153 51 q 180 98 180 74 l 180 472 l 22 472 l 22 532 l 180 532 l 180 906 q 165 940 180 927 q 124 952 151 952 l 22 952 m 326 472 l 326 100 q 343 63 326 76 q 400 51 359 51 l 486 51 q 686 110 600 51 q 772 220 743 149 q 812 486 812 317 q 724 854 812 737 q 500 952 650 952 l 385 952 q 340 939 355 952 q 326 901 326 926 l 326 532 l 500 532 l 500 472 l 326 472 z "},"Ę":{"ha":1003,"x_min":91,"x_max":970,"o":"m 91 1003 l 886 1003 l 905 665 l 859 665 q 773 888 832 825 q 621 952 715 952 l 424 952 q 388 939 400 952 q 376 900 376 926 l 376 543 l 462 543 q 574 592 531 543 q 621 744 617 642 l 667 744 l 667 279 l 621 279 q 573 445 617 395 q 454 494 530 494 l 376 494 l 376 96 q 390 62 376 74 q 439 51 405 51 l 594 51 q 886 374 847 51 l 935 374 l 918 0 l 91 0 l 91 51 l 159 51 q 216 65 199 51 q 232 105 232 79 l 232 900 q 218 939 232 926 q 173 952 203 952 l 91 952 l 91 1003 m 709 7 l 745 7 q 727 -63 727 -31 q 768 -162 727 -124 q 874 -201 810 -201 q 956 -185 911 -201 l 970 -208 q 884 -250 919 -239 q 811 -261 850 -261 q 696 -224 739 -261 q 654 -129 654 -186 q 709 7 654 -48 z "},"ę":{"ha":694,"x_min":59,"x_max":647,"o":"m 642 313 l 186 313 q 241 109 190 168 q 389 41 299 41 q 603 193 522 41 l 647 174 q 361 -19 548 -19 q 146 73 233 -19 q 59 309 59 165 q 145 559 59 464 q 356 654 231 654 q 515 607 448 654 q 616 471 583 559 q 642 313 640 408 m 186 361 l 462 361 q 500 378 486 361 q 513 435 513 395 q 467 562 513 509 q 357 614 420 614 q 238 551 287 614 q 186 361 189 488 m 357 7 l 393 7 q 374 -63 374 -31 q 416 -162 374 -124 q 522 -201 457 -201 q 604 -185 559 -201 l 618 -208 q 532 -250 566 -239 q 458 -261 497 -261 q 344 -224 386 -261 q 302 -129 302 -186 q 357 7 302 -48 z "},"Ě":{"ha":1003,"x_min":91,"x_max":935,"o":"m 91 1003 l 886 1003 l 905 665 l 859 665 q 773 888 832 825 q 621 952 715 952 l 424 952 q 388 939 400 952 q 376 900 376 926 l 376 543 l 462 543 q 574 592 531 543 q 621 744 617 642 l 667 744 l 667 279 l 621 279 q 573 445 617 395 q 454 494 530 494 l 376 494 l 376 96 q 390 62 376 74 q 439 51 405 51 l 594 51 q 886 374 847 51 l 935 374 l 918 0 l 91 0 l 91 51 l 159 51 q 216 65 199 51 q 232 105 232 79 l 232 900 q 218 939 232 926 q 173 952 203 952 l 91 952 l 91 1003 m 312 1349 l 355 1349 l 501 1213 l 648 1349 l 691 1349 l 528 1113 l 470 1113 l 312 1349 z "},"ě":{"ha":694,"x_min":59,"x_max":647,"o":"m 642 313 l 186 313 q 241 109 190 168 q 389 41 299 41 q 603 193 522 41 l 647 174 q 361 -19 548 -19 q 146 73 233 -19 q 59 309 59 165 q 145 559 59 464 q 356 654 231 654 q 515 607 448 654 q 616 471 583 559 q 642 313 640 408 m 186 361 l 462 361 q 500 378 486 361 q 513 435 513 395 q 467 562 513 509 q 357 614 420 614 q 238 551 287 614 q 186 361 189 488 m 146 1015 l 189 1015 l 335 879 l 481 1015 l 525 1015 l 361 779 l 304 779 l 146 1015 z "},"Ĳ":{"ha":1337,"x_min":52,"x_max":1295,"o":"m 514 51 l 514 0 l 52 0 l 52 51 l 139 51 q 199 64 185 51 q 212 123 212 77 l 212 880 q 197 940 212 928 q 139 952 182 952 l 52 952 l 52 1003 l 514 1003 l 514 952 l 427 952 q 367 939 380 952 q 353 880 353 926 l 353 123 q 369 63 353 76 q 427 51 384 51 l 514 51 m 852 1003 l 1295 1003 l 1295 952 l 1236 952 q 1176 939 1190 952 q 1163 880 1163 926 l 1163 249 q 1078 56 1163 131 q 858 -19 994 -19 q 661 54 735 -19 q 586 225 586 126 q 624 345 586 298 q 720 392 661 392 q 795 362 766 392 q 825 287 825 333 q 800 221 825 247 q 745 195 775 195 q 711 201 732 195 q 686 207 692 207 q 661 169 661 207 q 714 75 661 115 q 838 35 768 35 q 972 96 924 35 q 1020 257 1020 157 l 1020 880 q 1005 940 1020 928 q 947 952 990 952 l 852 952 l 852 1003 z "},"ĳ":{"ha":848,"x_min":33,"x_max":730,"o":"m 286 939 q 263 886 286 908 q 210 863 241 863 q 155 886 178 863 q 133 939 133 908 q 155 994 133 971 q 210 1016 178 1016 q 263 994 241 1016 q 286 939 286 971 m 730 939 q 708 886 730 908 q 654 863 686 863 q 600 886 623 863 q 578 939 578 908 q 600 994 578 971 q 654 1016 623 1016 q 708 994 686 1016 q 730 939 730 971 m 722 645 l 722 37 q 651 -181 722 -91 q 488 -271 579 -271 q 395 -190 395 -271 q 415 -134 395 -153 q 464 -115 436 -115 q 526 -176 511 -115 q 549 -207 532 -207 q 596 -147 581 -207 q 612 -24 612 -87 l 612 511 q 519 588 612 588 l 462 588 l 462 635 l 722 645 m 33 635 l 286 643 l 286 96 q 336 51 286 51 l 408 51 l 408 0 l 47 0 l 47 51 l 114 51 q 172 108 172 51 l 172 508 q 85 585 172 585 l 33 585 l 33 635 z "},"Ĺ":{"ha":926,"x_min":43,"x_max":902,"o":"m 43 1003 l 508 1003 l 508 952 l 397 952 q 358 938 370 952 q 345 895 345 924 l 345 103 q 361 63 345 75 q 425 51 377 51 l 566 51 q 750 126 679 51 q 854 386 822 201 l 902 386 l 879 0 l 43 0 l 43 51 l 125 51 q 184 67 168 51 q 201 118 201 83 l 201 901 q 187 939 201 926 q 145 952 173 952 l 43 952 l 43 1003 m 338 1076 l 321 1093 l 437 1259 q 504 1343 484 1329 q 543 1358 523 1358 q 582 1342 565 1358 q 599 1304 599 1325 q 551 1234 599 1270 l 338 1076 z "},"ĺ":{"ha":437,"x_min":34,"x_max":405,"o":"m 285 1015 l 285 94 q 296 64 285 75 q 338 51 313 51 l 405 51 l 405 0 l 45 0 l 45 51 l 109 51 q 156 66 140 51 q 171 108 171 81 l 171 881 q 153 930 171 915 q 91 952 127 952 l 34 952 l 34 1003 l 285 1015 m 121 1076 l 104 1093 l 220 1259 q 287 1343 267 1329 q 326 1358 306 1358 q 365 1342 348 1358 q 382 1304 382 1325 q 334 1234 382 1270 l 121 1076 z "},"Ľ":{"ha":926,"x_min":43,"x_max":902,"o":"m 43 1003 l 508 1003 l 508 952 l 397 952 q 358 938 370 952 q 345 895 345 924 l 345 103 q 361 63 345 75 q 425 51 377 51 l 566 51 q 750 126 679 51 q 854 386 822 201 l 902 386 l 879 0 l 43 0 l 43 51 l 125 51 q 184 67 168 51 q 201 118 201 83 l 201 901 q 187 939 201 926 q 145 952 173 952 l 43 952 l 43 1003 m 607 800 l 596 824 q 665 901 665 853 q 653 914 665 914 q 642 913 650 914 q 625 911 631 911 q 582 927 600 911 q 564 964 564 943 q 582 1000 564 984 q 629 1015 600 1015 q 690 992 667 1015 q 713 930 713 969 q 607 800 713 841 z "},"ľ":{"ha":535,"x_min":34,"x_max":545,"o":"m 285 1015 l 285 94 q 296 64 285 75 q 338 51 313 51 l 405 51 l 405 0 l 45 0 l 45 51 l 109 51 q 156 66 140 51 q 171 108 171 81 l 171 881 q 153 930 171 915 q 91 952 127 952 l 34 952 l 34 1003 l 285 1015 m 439 800 l 429 824 q 498 901 498 853 q 486 914 498 914 q 474 913 483 914 q 457 911 463 911 q 414 927 432 911 q 396 964 396 943 q 414 1000 396 984 q 462 1015 432 1015 q 522 992 499 1015 q 545 930 545 969 q 439 800 545 841 z "},"Ŀ":{"ha":926,"x_min":43,"x_max":902,"o":"m 43 1003 l 508 1003 l 508 952 l 397 952 q 358 938 370 952 q 345 895 345 924 l 345 103 q 361 63 345 75 q 425 51 377 51 l 566 51 q 750 126 679 51 q 854 386 822 201 l 902 386 l 879 0 l 43 0 l 43 51 l 125 51 q 184 67 168 51 q 201 118 201 83 l 201 901 q 187 939 201 926 q 145 952 173 952 l 43 952 l 43 1003 m 607 577 q 656 557 636 577 q 677 509 677 536 q 656 458 677 479 q 607 437 635 437 q 558 458 578 437 q 538 509 538 479 q 558 557 538 537 q 607 577 578 577 z "},"ŀ":{"ha":454,"x_min":34,"x_max":470,"o":"m 285 1015 l 285 94 q 296 64 285 75 q 338 51 313 51 l 405 51 l 405 0 l 45 0 l 45 51 l 109 51 q 156 66 140 51 q 171 108 171 81 l 171 881 q 153 930 171 915 q 91 952 127 952 l 34 952 l 34 1003 l 285 1015 m 400 577 q 450 557 429 577 q 470 509 470 536 q 449 458 470 479 q 400 437 429 437 q 351 458 372 437 q 331 509 331 479 q 351 557 331 537 q 400 577 372 577 z "},"Ń":{"ha":1132,"x_min":57,"x_max":1105,"o":"m 57 1003 l 296 1003 l 901 215 l 901 785 q 862 913 901 871 q 755 952 826 951 l 755 1003 l 1105 1003 l 1105 952 q 1025 937 1052 952 q 979 883 999 922 q 960 797 960 844 l 960 0 l 896 0 l 270 820 l 270 215 q 311 93 270 133 q 439 51 353 52 l 439 0 l 57 0 l 57 51 q 171 98 129 54 q 213 207 213 142 l 213 887 l 201 899 q 153 943 168 936 q 102 952 134 952 l 57 952 l 57 1003 m 480 1076 l 463 1093 l 579 1259 q 646 1343 627 1329 q 685 1358 665 1358 q 724 1342 707 1358 q 741 1304 741 1325 q 693 1234 741 1270 l 480 1076 z "},"ń":{"ha":848,"x_min":45,"x_max":820,"o":"m 45 635 l 256 648 q 275 509 269 589 q 376 612 318 578 q 507 647 434 647 q 613 622 570 647 q 682 544 656 597 q 707 424 707 490 l 707 115 q 723 65 707 80 q 775 51 739 51 l 820 51 l 820 0 l 485 0 l 485 51 l 517 51 q 579 65 562 51 q 597 108 597 79 l 597 380 q 570 511 597 469 q 454 572 532 572 q 327 511 378 572 q 275 350 275 449 l 275 115 q 291 65 275 80 q 344 51 307 51 l 388 51 l 388 0 l 52 0 l 52 51 l 96 51 q 146 64 129 51 q 163 98 163 78 l 163 509 q 141 570 163 549 q 78 591 119 591 l 45 591 l 45 635 m 338 742 l 321 759 l 437 925 q 504 1009 484 994 q 543 1024 523 1024 q 582 1007 565 1024 q 599 970 599 991 q 551 900 599 936 l 338 742 z "},"Ň":{"ha":1132,"x_min":57,"x_max":1105,"o":"m 57 1003 l 296 1003 l 901 215 l 901 785 q 862 913 901 871 q 755 952 826 951 l 755 1003 l 1105 1003 l 1105 952 q 1025 937 1052 952 q 979 883 999 922 q 960 797 960 844 l 960 0 l 896 0 l 270 820 l 270 215 q 311 93 270 133 q 439 51 353 52 l 439 0 l 57 0 l 57 51 q 171 98 129 54 q 213 207 213 142 l 213 887 l 201 899 q 153 943 168 936 q 102 952 134 952 l 57 952 l 57 1003 m 366 1349 l 410 1349 l 555 1213 l 702 1349 l 745 1349 l 582 1113 l 524 1113 l 366 1349 z "},"ň":{"ha":848,"x_min":45,"x_max":820,"o":"m 45 635 l 256 648 q 275 509 269 589 q 376 612 318 578 q 507 647 434 647 q 613 622 570 647 q 682 544 656 597 q 707 424 707 490 l 707 115 q 723 65 707 80 q 775 51 739 51 l 820 51 l 820 0 l 485 0 l 485 51 l 517 51 q 579 65 562 51 q 597 108 597 79 l 597 380 q 570 511 597 469 q 454 572 532 572 q 327 511 378 572 q 275 350 275 449 l 275 115 q 291 65 275 80 q 344 51 307 51 l 388 51 l 388 0 l 52 0 l 52 51 l 96 51 q 146 64 129 51 q 163 98 163 78 l 163 509 q 141 570 163 549 q 78 591 119 591 l 45 591 l 45 635 m 224 1015 l 267 1015 l 413 879 l 559 1015 l 603 1015 l 439 779 l 382 779 l 224 1015 z "},"ŉ":{"ha":1017,"x_min":-14,"x_max":989,"o":"m 214 635 l 425 648 q 444 509 438 589 q 545 612 487 578 q 676 647 603 647 q 782 622 739 647 q 850 544 825 597 q 876 424 876 490 l 876 115 q 892 65 876 80 q 944 51 907 51 l 989 51 l 989 0 l 654 0 l 654 51 l 686 51 q 748 65 730 51 q 766 108 766 79 l 766 380 q 739 511 766 469 q 623 572 701 572 q 495 511 547 572 q 444 350 444 449 l 444 115 q 460 65 444 80 q 513 51 476 51 l 557 51 l 557 0 l 220 0 l 220 51 l 264 51 q 315 64 298 51 q 332 98 332 78 l 332 509 q 310 570 332 549 q 247 591 288 591 l 214 591 l 214 635 m 7 640 l -14 670 q 84 765 53 718 q 116 846 116 812 q 112 864 116 858 q 100 869 109 869 l 94 868 q 66 864 77 864 q 15 886 36 864 q -7 939 -7 908 q 16 999 -7 974 q 68 1024 39 1024 q 145 987 112 1024 q 178 893 178 951 q 139 763 178 825 q 7 640 100 701 z "},"Ő":{"ha":1080,"x_min":75,"x_max":1006,"o":"m 532 1024 q 769 957 659 1024 q 943 771 880 890 q 1006 501 1006 651 q 943 231 1006 351 q 769 42 880 110 q 536 -25 659 -25 q 309 41 415 -25 q 139 230 203 107 q 75 503 75 353 q 137 770 75 651 q 307 957 199 889 q 532 1024 415 1024 m 543 972 q 328 862 410 972 q 246 504 246 752 q 330 132 246 235 q 538 28 414 28 q 691 75 625 28 q 796 224 757 122 q 835 491 835 326 q 798 773 835 671 q 694 923 762 874 q 543 972 626 972 m 625 1076 l 608 1093 l 724 1259 q 791 1343 772 1329 q 829 1358 810 1358 q 869 1342 852 1358 q 886 1304 886 1326 q 838 1234 886 1270 l 625 1076 m 351 1076 l 334 1093 l 450 1259 q 517 1343 498 1329 q 556 1358 536 1358 q 595 1342 578 1358 q 612 1304 612 1325 q 564 1234 612 1270 l 351 1076 z "},"ő":{"ha":694,"x_min":47,"x_max":731,"o":"m 345 654 q 561 562 473 654 q 648 318 648 469 q 609 140 648 214 q 497 24 570 66 q 342 -19 425 -19 q 133 75 218 -19 q 47 317 47 168 q 133 561 47 467 q 345 654 219 654 m 345 606 q 220 537 269 606 q 172 320 172 469 q 220 99 172 169 q 345 29 269 29 q 474 99 425 29 q 523 328 523 169 q 474 541 523 475 q 345 606 426 606 m 470 742 l 453 759 l 568 925 q 636 1009 616 994 q 674 1024 655 1024 q 714 1008 696 1024 q 731 970 731 991 q 683 900 731 936 l 470 742 m 196 742 l 179 759 l 295 925 q 362 1009 342 994 q 401 1024 381 1024 q 440 1007 423 1024 q 457 970 457 991 q 409 900 457 936 l 196 742 z "},"Ŕ":{"ha":1003,"x_min":35,"x_max":979,"o":"m 35 1003 l 553 1003 q 787 935 704 1003 q 870 755 870 866 q 837 636 870 688 q 742 554 804 585 q 547 509 680 523 q 681 457 644 483 q 740 392 718 432 q 790 227 762 351 q 833 106 810 138 q 871 81 851 81 q 910 112 892 81 q 932 220 928 142 l 979 220 q 808 -10 966 -10 q 723 15 759 -10 q 668 89 686 40 q 636 281 654 125 q 604 409 626 371 q 535 470 582 447 q 423 493 488 493 l 341 493 l 341 99 q 354 64 341 74 q 405 51 370 51 l 501 51 l 501 0 l 35 0 l 35 51 l 134 51 q 181 64 166 51 q 197 99 197 77 l 197 901 q 181 939 197 926 q 134 952 165 952 l 35 952 l 35 1003 m 341 542 l 460 542 q 647 587 579 542 q 714 747 714 632 q 689 873 714 827 q 622 936 663 919 q 459 953 581 953 q 360 942 379 953 q 341 903 341 930 l 341 542 m 426 1076 l 409 1093 l 525 1259 q 592 1343 572 1329 q 631 1358 611 1358 q 670 1342 653 1358 q 687 1304 687 1325 q 639 1234 687 1270 l 426 1076 z "},"ŕ":{"ha":616,"x_min":35,"x_max":593,"o":"m 35 635 l 264 647 l 264 390 q 352 582 300 517 q 479 647 404 647 q 562 615 531 647 q 593 531 593 584 q 572 465 593 488 q 520 441 551 441 q 471 461 490 441 q 452 516 452 481 q 463 558 452 538 q 473 579 473 576 q 460 589 473 589 q 397 557 433 589 q 322 432 349 511 q 281 235 281 309 l 281 98 q 298 63 281 75 q 353 51 314 51 l 434 51 l 434 0 l 39 0 l 39 51 l 102 51 q 151 63 134 51 q 167 94 167 76 l 167 498 q 147 566 167 545 q 91 587 127 587 l 35 587 l 35 635 m 256 742 l 239 759 l 355 925 q 422 1009 403 994 q 461 1024 441 1024 q 500 1007 484 1024 q 517 970 517 991 q 469 900 517 936 l 256 742 z "},"Ř":{"ha":1003,"x_min":35,"x_max":979,"o":"m 35 1003 l 553 1003 q 787 935 704 1003 q 870 755 870 866 q 837 636 870 688 q 742 554 804 585 q 547 509 680 523 q 681 457 644 483 q 740 392 718 432 q 790 227 762 351 q 833 106 810 138 q 871 81 851 81 q 910 112 892 81 q 932 220 928 142 l 979 220 q 808 -10 966 -10 q 723 15 759 -10 q 668 89 686 40 q 636 281 654 125 q 604 409 626 371 q 535 470 582 447 q 423 493 488 493 l 341 493 l 341 99 q 354 64 341 74 q 405 51 370 51 l 501 51 l 501 0 l 35 0 l 35 51 l 134 51 q 181 64 166 51 q 197 99 197 77 l 197 901 q 181 939 197 926 q 134 952 165 952 l 35 952 l 35 1003 m 341 542 l 460 542 q 647 587 579 542 q 714 747 714 632 q 689 873 714 827 q 622 936 663 919 q 459 953 581 953 q 360 942 379 953 q 341 903 341 930 l 341 542 m 312 1349 l 355 1349 l 501 1213 l 648 1349 l 691 1349 l 528 1113 l 470 1113 l 312 1349 z "},"ř":{"ha":616,"x_min":35,"x_max":593,"o":"m 35 635 l 264 647 l 264 390 q 352 582 300 517 q 479 647 404 647 q 562 615 531 647 q 593 531 593 584 q 572 465 593 488 q 520 441 551 441 q 471 461 490 441 q 452 516 452 481 q 463 558 452 538 q 473 579 473 576 q 460 589 473 589 q 397 557 433 589 q 322 432 349 511 q 281 235 281 309 l 281 98 q 298 63 281 75 q 353 51 314 51 l 434 51 l 434 0 l 39 0 l 39 51 l 102 51 q 151 63 134 51 q 167 94 167 76 l 167 498 q 147 566 167 545 q 91 587 127 587 l 35 587 l 35 635 m 95 1015 l 138 1015 l 284 879 l 431 1015 l 474 1015 l 311 779 l 253 779 l 95 1015 z "},"Ś":{"ha":875,"x_min":90,"x_max":812,"o":"m 642 927 l 703 1015 l 753 1015 l 757 649 l 712 649 q 588 895 670 817 q 398 972 505 972 q 252 918 309 972 q 195 787 195 865 q 216 703 195 739 q 281 644 238 667 q 444 595 324 621 q 679 522 611 559 q 779 428 746 484 q 812 295 812 371 q 721 70 812 159 q 486 -19 630 -19 q 216 81 330 -19 l 139 -12 l 90 -12 l 90 376 l 139 376 q 267 123 168 216 q 490 30 366 30 q 653 89 590 30 q 717 233 717 149 q 693 318 717 281 q 618 379 669 354 q 415 439 566 404 q 189 527 249 478 q 104 723 104 596 q 188 940 104 855 q 404 1024 273 1024 q 524 1002 467 1024 q 642 927 581 979 m 392 1076 l 375 1093 l 491 1259 q 558 1343 538 1329 q 597 1358 577 1358 q 636 1342 619 1358 q 653 1304 653 1325 q 605 1234 653 1270 l 392 1076 z "},"ś":{"ha":643,"x_min":77,"x_max":585,"o":"m 121 239 q 218 77 163 122 q 353 32 273 32 q 466 64 427 32 q 506 146 506 96 q 491 196 506 174 q 451 228 477 217 q 317 258 425 238 q 174 301 214 279 q 110 363 133 323 q 87 448 87 402 q 134 575 87 518 q 303 648 195 648 q 456 595 386 648 l 501 643 l 529 643 l 547 416 l 501 416 q 420 555 471 513 q 295 597 370 597 q 194 566 231 597 q 157 489 157 534 q 191 422 157 449 q 321 380 224 395 q 468 348 434 361 q 554 285 524 328 q 585 182 585 243 q 518 39 585 98 q 351 -19 452 -19 q 176 43 256 -19 l 126 -14 l 90 -14 l 77 239 l 121 239 m 219 742 l 202 759 l 318 925 q 385 1009 366 994 q 424 1024 404 1024 q 463 1007 446 1024 q 480 970 480 991 q 432 900 480 936 l 219 742 z "},"Ţ":{"ha":926,"x_min":39,"x_max":895,"o":"m 61 1003 l 875 1003 l 895 624 l 848 624 q 606 958 802 958 q 552 945 567 958 q 538 900 538 931 l 538 98 q 552 62 538 74 q 599 51 566 51 l 700 51 l 700 0 l 234 0 l 234 51 l 349 51 q 385 62 372 51 q 397 93 397 74 l 397 906 q 381 945 397 932 q 331 958 366 958 q 167 865 233 958 q 89 624 113 789 l 39 624 l 61 1003 m 444 -286 l 433 -261 q 503 -184 503 -232 q 490 -171 503 -171 q 479 -172 488 -171 q 462 -174 468 -174 q 419 -158 437 -174 q 401 -121 401 -142 q 419 -85 401 -101 q 467 -70 437 -70 q 527 -93 504 -70 q 550 -155 550 -116 q 444 -286 550 -244 z "},"ţ":{"ha":541,"x_min":35,"x_max":509,"o":"m 212 895 l 258 895 l 258 635 l 464 635 l 464 573 l 258 573 l 258 165 q 283 84 258 113 q 347 56 309 56 q 426 99 393 56 q 464 240 458 142 l 509 240 q 452 52 505 113 q 313 -9 398 -9 q 190 34 234 -9 q 145 146 145 77 l 145 573 l 35 573 l 35 621 q 149 684 110 633 q 212 895 208 759 m 234 -286 l 223 -261 q 292 -184 292 -232 q 280 -171 292 -171 q 269 -172 277 -171 q 252 -174 258 -174 q 209 -158 227 -174 q 191 -121 191 -142 q 209 -85 191 -101 q 256 -70 227 -70 q 317 -93 294 -70 q 340 -155 340 -116 q 234 -286 340 -244 z "},"Ť":{"ha":926,"x_min":39,"x_max":895,"o":"m 61 1003 l 875 1003 l 895 624 l 848 624 q 606 958 802 958 q 552 945 567 958 q 538 900 538 931 l 538 98 q 552 62 538 74 q 599 51 566 51 l 700 51 l 700 0 l 234 0 l 234 51 l 349 51 q 385 62 372 51 q 397 93 397 74 l 397 906 q 381 945 397 932 q 331 958 366 958 q 167 865 233 958 q 89 624 113 789 l 39 624 l 61 1003 m 285 1349 l 328 1349 l 474 1213 l 621 1349 l 664 1349 l 500 1113 l 443 1113 l 285 1349 z "},"ť":{"ha":541,"x_min":35,"x_max":509,"o":"m 212 895 l 258 895 l 258 635 l 464 635 l 464 573 l 258 573 l 258 165 q 283 84 258 113 q 347 56 309 56 q 426 99 393 56 q 464 240 458 142 l 509 240 q 452 52 505 113 q 313 -9 398 -9 q 190 34 234 -9 q 145 146 145 77 l 145 573 l 35 573 l 35 621 q 149 684 110 633 q 212 895 208 759 m 383 800 l 372 824 q 441 901 441 853 q 429 914 441 914 q 418 913 427 914 q 401 911 407 911 q 358 927 376 911 q 340 964 340 943 q 358 1000 340 984 q 406 1015 376 1015 q 466 992 443 1015 q 489 930 489 969 q 383 800 489 841 z "},"Ů":{"ha":1132,"x_min":37,"x_max":1105,"o":"m 37 1003 l 500 1003 l 500 952 l 407 952 q 355 940 370 952 q 340 903 340 928 l 340 336 q 355 202 340 248 q 440 95 378 135 q 600 55 501 55 q 809 126 737 55 q 881 315 881 197 l 881 776 q 872 868 881 837 q 848 918 864 900 q 808 944 832 935 q 726 952 783 952 l 726 1003 l 1105 1003 l 1105 952 l 1078 952 q 983 918 1015 952 q 952 819 952 884 l 952 326 q 860 78 952 164 q 584 -19 756 -19 q 349 23 435 -19 q 225 145 264 66 q 196 297 196 205 l 196 903 q 180 939 196 926 q 132 952 164 952 l 37 952 l 37 1003 m 583 1369 q 682 1328 640 1369 q 723 1229 723 1286 q 682 1128 723 1170 q 581 1086 640 1086 q 481 1127 523 1086 q 440 1227 440 1168 q 482 1328 440 1286 q 583 1369 524 1369 m 583 1314 q 521 1288 547 1314 q 496 1227 496 1263 q 521 1167 496 1192 q 582 1142 546 1142 q 642 1167 616 1142 q 667 1228 667 1193 q 643 1289 667 1264 q 583 1314 618 1314 z "},"ů":{"ha":848,"x_min":38,"x_max":812,"o":"m 263 647 l 263 226 q 302 106 263 149 q 403 64 341 64 q 532 126 479 64 q 585 279 585 187 l 585 517 q 562 568 585 550 q 472 588 538 586 l 472 635 l 695 647 l 695 125 q 715 70 695 90 q 772 51 736 51 l 812 51 l 812 5 l 599 0 l 585 125 q 471 24 528 58 q 354 -9 413 -9 q 210 48 268 -9 q 151 241 151 105 l 151 517 q 121 573 151 554 q 38 588 101 587 l 38 635 l 263 647 m 414 1035 q 512 994 471 1035 q 553 895 553 952 q 512 794 553 836 q 412 752 471 752 q 312 793 353 752 q 271 892 271 834 q 312 993 271 951 q 414 1035 354 1035 m 413 979 q 352 954 377 979 q 326 892 326 928 q 351 832 326 857 q 412 808 376 808 q 472 833 447 808 q 498 894 498 859 q 473 955 498 930 q 413 979 448 979 z "},"Ű":{"ha":1132,"x_min":37,"x_max":1105,"o":"m 37 1003 l 500 1003 l 500 952 l 407 952 q 355 940 370 952 q 340 903 340 928 l 340 336 q 355 202 340 248 q 440 95 378 135 q 600 55 501 55 q 809 126 737 55 q 881 315 881 197 l 881 776 q 872 868 881 837 q 848 918 864 900 q 808 944 832 935 q 726 952 783 952 l 726 1003 l 1105 1003 l 1105 952 l 1078 952 q 983 918 1015 952 q 952 819 952 884 l 952 326 q 860 78 952 164 q 584 -19 756 -19 q 349 23 435 -19 q 225 145 264 66 q 196 297 196 205 l 196 903 q 180 939 196 926 q 132 952 164 952 l 37 952 l 37 1003 m 693 1076 l 676 1093 l 791 1259 q 859 1343 840 1329 q 897 1358 878 1358 q 937 1342 920 1358 q 954 1304 954 1326 q 906 1234 954 1270 l 693 1076 m 419 1076 l 402 1093 l 518 1259 q 585 1343 566 1329 q 624 1358 604 1358 q 663 1342 646 1358 q 680 1304 680 1325 q 632 1234 680 1270 l 419 1076 z "},"ű":{"ha":848,"x_min":38,"x_max":812,"o":"m 263 647 l 263 226 q 302 106 263 149 q 403 64 341 64 q 532 126 479 64 q 585 279 585 187 l 585 517 q 562 568 585 550 q 472 588 538 586 l 472 635 l 695 647 l 695 125 q 715 70 695 90 q 772 51 736 51 l 812 51 l 812 5 l 599 0 l 585 125 q 471 24 528 58 q 354 -9 413 -9 q 210 48 268 -9 q 151 241 151 105 l 151 517 q 121 573 151 554 q 38 588 101 587 l 38 635 l 263 647 m 524 742 l 507 759 l 622 925 q 689 1009 670 994 q 728 1024 709 1024 q 767 1008 750 1024 q 785 970 785 991 q 736 900 785 936 l 524 742 m 250 742 l 233 759 l 349 925 q 415 1009 396 994 q 454 1024 435 1024 q 494 1007 477 1024 q 511 970 511 991 q 463 900 511 936 l 250 742 z "},"Ź":{"ha":848,"x_min":50,"x_max":794,"o":"m 102 1003 l 785 1003 l 785 952 l 212 51 l 429 51 q 583 81 523 51 q 679 173 642 112 q 747 376 716 233 l 794 376 l 776 0 l 50 0 l 50 45 l 629 952 l 422 952 q 290 932 337 952 q 186 838 227 906 q 130 656 146 770 l 83 656 l 102 1003 m 324 1076 l 307 1093 l 423 1259 q 490 1343 471 1329 q 529 1358 509 1358 q 568 1342 551 1358 q 585 1304 585 1325 q 537 1234 585 1270 l 324 1076 z "},"ź":{"ha":668,"x_min":66,"x_max":616,"o":"m 102 635 l 606 635 l 606 595 l 207 51 l 401 51 q 509 93 469 51 q 570 249 549 135 l 616 249 l 601 0 l 66 0 l 66 47 l 465 587 l 296 587 q 217 573 243 587 q 172 525 191 558 q 137 409 153 491 l 87 409 l 102 635 m 256 742 l 239 759 l 355 925 q 422 1009 403 994 q 461 1024 441 1024 q 500 1007 484 1024 q 517 970 517 991 q 469 900 517 936 l 256 742 z "},"Ż":{"ha":848,"x_min":50,"x_max":794,"o":"m 102 1003 l 785 1003 l 785 952 l 212 51 l 429 51 q 583 81 523 51 q 679 173 642 112 q 747 376 716 233 l 794 376 l 776 0 l 50 0 l 50 45 l 629 952 l 422 952 q 290 932 337 952 q 186 838 227 906 q 130 656 146 770 l 83 656 l 102 1003 m 414 1308 q 464 1288 444 1308 q 484 1240 484 1268 q 464 1190 484 1211 q 414 1169 443 1169 q 366 1190 386 1169 q 345 1240 345 1211 q 366 1288 345 1268 q 414 1308 386 1308 z "},"ż":{"ha":668,"x_min":66,"x_max":616,"o":"m 102 635 l 606 635 l 606 595 l 207 51 l 401 51 q 509 93 469 51 q 570 249 549 135 l 616 249 l 601 0 l 66 0 l 66 47 l 465 587 l 296 587 q 217 573 243 587 q 172 525 191 558 q 137 409 153 491 l 87 409 l 102 635 m 333 974 q 382 954 362 974 q 403 905 403 934 q 382 856 403 876 q 333 835 361 835 q 284 856 304 835 q 264 905 264 876 q 284 954 264 934 q 333 974 304 974 z "},"":{"ha":897,"x_min":65,"x_max":859,"o":"m 849 920 l 859 709 l 834 709 q 760 834 820 806 q 614 862 700 862 l 341 862 l 341 116 q 371 51 340 75 q 475 24 401 26 l 475 0 l 65 0 l 65 24 q 165 47 134 24 q 197 133 197 70 l 197 791 q 166 871 197 848 q 65 895 136 895 l 65 920 l 849 920 z "},"":{"ha":1084,"x_min":75,"x_max":1009,"o":"m 1009 462 q 872 119 1009 260 q 545 -21 735 -21 q 215 120 355 -21 q 75 460 75 261 q 212 799 75 657 q 542 941 348 941 q 871 801 733 941 q 1009 462 1009 662 m 844 457 q 763 770 844 653 q 540 888 682 888 q 321 773 401 888 q 241 462 241 659 q 324 148 241 264 q 543 31 408 31 q 764 151 685 31 q 844 457 844 270 m 379 621 l 404 621 q 427 541 403 566 q 505 515 451 515 l 580 515 q 657 541 633 515 q 681 621 682 566 l 705 621 l 705 296 l 681 296 q 657 378 682 352 q 580 404 633 404 l 505 404 q 427 378 452 404 q 404 296 403 352 l 379 296 l 379 621 z "},"":{"ha":1084,"x_min":75,"x_max":1010,"o":"m 615 130 q 745 24 623 24 l 745 0 l 340 0 l 340 24 q 469 130 458 24 q 182 226 290 130 q 75 460 75 323 q 189 699 75 608 q 469 790 303 790 q 340 895 461 895 l 340 920 l 745 920 l 745 895 q 615 790 624 895 q 902 694 795 790 q 1010 460 1010 597 q 895 219 1010 309 q 615 130 781 130 m 469 753 q 332 714 391 751 q 247 618 272 678 q 222 452 222 558 q 469 167 222 177 l 469 753 m 615 753 l 615 167 q 787 230 710 167 q 863 468 863 292 q 615 753 863 743 z "},"":{"ha":735,"x_min":54,"x_max":715,"o":"m 530 621 l 643 621 l 575 304 q 541 176 559 231 q 621 62 554 62 q 690 150 677 62 l 715 150 q 677 25 707 70 q 604 -19 647 -19 q 523 127 542 -19 q 293 -19 451 -19 q 118 67 181 -19 q 54 308 54 154 q 125 552 54 465 q 295 640 195 640 q 489 426 430 640 l 530 621 m 475 364 q 307 600 408 600 q 215 526 250 600 q 180 300 180 451 q 213 82 180 141 q 299 24 246 24 q 381 72 345 24 q 452 262 418 121 l 475 364 z "},"":{"ha":640,"x_min":47,"x_max":593,"o":"m 328 579 q 233 670 289 622 q 138 776 155 738 q 121 845 121 814 q 298 963 121 963 q 474 929 404 963 q 544 846 544 895 q 529 806 544 823 q 490 788 513 788 q 417 834 459 788 q 340 905 369 888 q 270 922 311 922 q 191 901 220 922 q 161 848 161 880 q 187 783 161 815 q 320 677 212 751 q 481 554 430 602 q 562 441 532 506 q 593 303 593 377 q 505 78 593 175 q 300 -19 416 -19 q 120 58 194 -19 q 47 267 47 135 q 131 479 47 396 q 328 579 215 563 m 357 547 q 163 280 163 515 q 213 90 163 155 q 324 25 262 25 q 435 90 391 25 q 478 264 478 154 q 455 402 478 345 q 388 510 432 458 q 357 547 362 540 z "},"":{"ha":598,"x_min":52,"x_max":557,"o":"m 216 330 q 82 478 82 382 q 150 595 82 550 q 324 640 218 640 q 473 610 414 640 q 533 535 533 580 q 515 494 533 511 q 474 477 498 477 q 412 528 436 477 q 310 599 378 599 q 223 566 258 599 q 187 469 187 533 q 315 345 187 345 q 347 347 329 345 q 394 352 378 352 q 435 328 435 352 q 394 301 435 301 q 349 307 379 301 q 313 310 326 310 q 178 172 178 310 q 214 64 178 104 q 315 23 250 23 q 422 106 395 23 q 452 168 436 151 q 496 184 469 184 q 538 168 519 184 q 557 124 557 152 q 486 21 557 61 q 320 -19 415 -19 q 136 33 219 -19 q 52 171 52 84 q 216 330 52 277 z "},"":{"ha":804,"x_min":47,"x_max":773,"o":"m 773 621 l 773 522 l 477 522 q 611 407 548 487 q 673 236 673 326 q 582 51 673 121 q 382 -19 490 -19 q 146 81 245 -19 q 47 322 47 182 q 98 496 47 420 q 218 596 150 571 q 391 621 287 621 l 773 621 m 431 522 l 408 522 q 271 503 318 522 q 194 434 224 483 q 163 314 163 385 q 228 110 163 195 q 382 25 293 25 q 506 88 456 25 q 555 249 555 151 q 431 522 555 397 z "},"":{"ha":570,"x_min":25,"x_max":530,"o":"m 530 621 l 530 522 l 327 522 q 302 203 302 304 q 326 120 302 148 q 385 92 349 92 q 462 171 450 92 l 486 171 q 448 40 486 98 q 350 -19 410 -19 q 229 205 229 -19 q 253 522 229 300 l 193 522 q 107 504 138 522 q 50 429 76 486 l 25 429 q 79 551 50 509 q 136 607 108 593 q 214 621 165 621 l 530 621 z "},"":{"ha":760,"x_min":47,"x_max":713,"o":"m 304 640 l 304 615 q 165 336 165 578 q 339 22 165 70 l 339 418 q 349 539 339 500 q 394 609 358 579 q 480 640 429 640 q 586 604 532 640 q 676 496 640 568 q 713 333 713 425 q 637 101 713 203 q 409 -16 562 -2 l 409 -284 l 339 -284 l 339 -16 q 127 90 207 -4 q 47 334 47 183 q 123 554 47 472 q 304 640 199 636 m 409 37 q 612 314 612 68 q 570 498 612 422 q 465 575 527 575 q 423 550 438 575 q 408 441 408 525 l 409 37 z "},"‗":{"ha":694,"x_min":-8,"x_max":703,"o":"m -8 -85 l 703 -85 l 703 -155 l -8 -155 l -8 -85 m -8 -222 l 703 -222 l 703 -292 l -8 -292 l -8 -222 z "},"′":{"ha":283,"x_min":54,"x_max":231,"o":"m 54 556 l 71 760 q 87 877 78 840 q 120 936 96 914 q 176 958 143 958 q 231 907 231 958 q 176 760 231 880 l 84 556 l 54 556 z "},"″":{"ha":541,"x_min":56,"x_max":485,"o":"m 56 556 l 73 758 q 106 916 83 874 q 178 958 130 958 q 232 907 232 958 q 177 758 232 878 l 86 556 l 56 556 m 309 556 l 325 758 q 340 878 332 841 q 373 936 349 914 q 433 958 397 958 q 485 908 485 958 q 434 758 485 866 l 341 556 l 309 556 z "},"‼":{"ha":746,"x_min":123,"x_max":623,"o":"m 227 294 l 191 294 q 150 711 191 478 q 123 913 123 863 q 146 996 123 964 q 210 1028 168 1028 q 296 911 296 1028 q 269 711 296 861 q 227 294 227 483 m 554 294 l 519 294 q 477 711 519 478 q 451 913 451 863 q 473 996 451 964 q 537 1028 495 1028 q 623 911 623 1028 q 595 711 623 861 q 554 294 554 483 m 210 146 q 269 122 245 146 q 292 63 292 97 q 268 6 292 31 q 210 -19 244 -19 q 152 4 177 -19 q 127 63 127 28 q 151 122 127 97 q 210 146 174 146 m 537 146 q 596 121 572 146 q 619 63 619 96 q 595 5 619 30 q 536 -19 570 -19 q 479 5 503 -19 q 455 63 455 28 q 478 122 455 97 q 537 146 502 146 z "},"ⁿ":{"ha":551,"x_min":21,"x_max":541,"o":"m 21 951 l 174 959 q 185 891 182 926 q 330 958 240 958 q 435 917 404 958 q 467 819 467 875 l 467 640 q 473 609 467 617 q 503 600 479 600 l 541 600 l 541 561 l 307 561 l 307 600 l 336 600 q 372 607 364 600 q 379 638 379 614 l 379 793 q 295 905 379 905 q 217 867 247 905 q 187 775 187 830 l 187 640 q 193 609 187 617 q 223 600 199 600 l 260 600 l 260 561 l 25 561 l 25 600 l 62 600 q 90 607 83 600 q 98 632 98 614 l 98 870 q 50 916 98 916 l 21 916 l 21 951 z "},"₧":{"ha":1789,"x_min":54,"x_max":1730,"o":"m 887 673 q 960 895 956 752 l 1006 895 l 1006 635 l 1212 635 l 1212 573 l 1006 573 l 1006 165 q 1030 86 1006 116 q 1095 56 1053 56 q 1176 103 1146 56 q 1212 240 1206 149 l 1267 240 q 1498 32 1335 32 q 1611 64 1571 32 q 1651 146 1651 96 q 1633 200 1651 178 q 1587 231 1615 222 q 1463 258 1559 240 q 1330 295 1373 276 q 1260 356 1286 315 q 1233 448 1233 397 q 1286 583 1233 517 q 1449 648 1340 648 q 1602 595 1533 648 l 1647 643 l 1674 643 l 1692 416 l 1647 416 q 1442 597 1594 597 q 1338 564 1373 597 q 1303 489 1303 531 q 1334 424 1303 452 q 1467 380 1365 397 q 1626 343 1581 361 q 1700 284 1670 326 q 1730 183 1730 242 q 1662 37 1730 94 q 1497 -19 1593 -19 q 1321 43 1398 -19 l 1272 -14 l 1236 -14 l 1230 99 q 1060 -9 1177 -9 q 940 30 988 -9 q 892 146 892 70 l 892 573 l 843 573 q 735 495 817 537 q 535 452 654 452 l 356 452 l 356 123 q 371 63 356 76 q 429 51 387 51 l 535 51 l 535 0 l 54 0 l 54 51 l 140 51 q 199 64 185 51 q 212 123 212 77 l 212 880 q 197 940 212 928 q 140 952 182 952 l 54 952 l 54 1003 l 549 1003 q 803 928 714 1003 q 892 728 892 853 q 887 673 892 699 m 356 502 l 492 502 q 676 554 616 502 q 736 734 736 606 q 711 867 736 818 q 633 937 685 916 q 472 958 581 958 q 378 946 400 958 q 356 895 356 933 l 356 502 z "},"℅":{"ha":1176,"x_min":73,"x_max":1104,"o":"m 389 616 l 431 602 q 272 451 396 451 q 133 511 194 451 q 73 694 73 570 q 135 891 73 823 q 279 958 198 958 q 384 918 342 958 q 425 831 425 878 q 409 781 425 802 q 368 761 393 761 q 329 778 345 761 q 313 819 313 794 q 330 865 313 843 q 335 875 335 871 q 334 879 335 876 q 318 903 333 892 q 281 914 304 914 q 199 857 229 914 q 169 703 169 800 q 199 558 169 614 q 283 503 229 503 q 389 616 354 503 m 863 941 l 930 941 l 283 0 l 216 0 l 863 941 m 902 493 q 1043 427 982 493 q 1104 239 1104 361 q 1039 47 1104 109 q 900 -14 974 -14 q 763 52 823 -14 q 703 239 703 118 q 759 421 703 349 q 902 493 814 493 m 902 449 q 826 395 854 449 q 799 244 799 340 q 829 79 799 128 q 903 31 860 31 q 1008 246 1008 31 q 902 449 1008 449 z "},"ℓ":{"ha":587,"x_min":24,"x_max":579,"o":"m 24 221 l 158 356 l 158 692 q 212 896 158 823 q 357 969 266 969 q 460 930 425 969 q 496 834 496 890 q 435 648 496 743 q 267 435 374 553 l 267 209 q 385 22 267 22 q 554 203 496 22 l 579 203 q 500 47 558 113 q 355 -18 443 -18 q 238 20 288 -18 q 174 106 189 58 q 158 254 158 155 l 158 319 l 41 204 l 24 221 m 267 473 q 458 807 458 684 q 431 896 458 862 q 363 930 405 930 q 267 749 267 930 l 267 473 z "},"←":{"ha":1389,"x_min":54,"x_max":1335,"o":"m 334 594 l 385 594 q 253 385 330 479 l 1335 385 l 1335 316 l 253 316 q 387 106 322 247 l 334 106 q 54 338 183 278 l 54 368 q 334 594 174 416 z "},"↑":{"ha":694,"x_min":104,"x_max":591,"o":"m 104 712 q 330 992 281 872 l 361 992 q 591 711 420 862 l 591 659 q 382 792 451 724 l 382 -291 l 313 -291 l 313 792 q 104 660 219 715 l 104 712 z "},"→":{"ha":1389,"x_min":54,"x_max":1335,"o":"m 1055 594 q 1335 368 1215 416 l 1335 338 q 1054 106 1205 278 l 1002 106 q 1135 316 1066 247 l 54 316 l 54 385 l 1135 385 q 1003 594 1058 479 l 1055 594 z "},"↓":{"ha":694,"x_min":104,"x_max":591,"o":"m 104 -11 l 104 41 q 313 -92 219 -14 l 313 992 l 382 992 l 382 -92 q 591 42 451 -22 l 591 -10 q 361 -291 420 -161 l 330 -291 q 104 -11 281 -172 z "},"↔":{"ha":1389,"x_min":54,"x_max":1335,"o":"m 1335 366 l 1335 336 q 1059 107 1212 282 l 1005 107 q 1137 318 1052 224 l 252 318 q 383 107 336 224 l 329 107 q 54 336 177 282 l 54 366 q 329 595 177 420 l 383 595 q 252 385 336 479 l 1137 385 q 1005 595 1052 479 l 1059 595 q 1335 366 1212 420 z "},"↕":{"ha":694,"x_min":103,"x_max":591,"o":"m 332 992 l 362 992 q 591 716 416 869 l 591 662 q 380 794 475 709 l 380 -92 q 591 40 475 -6 l 591 -14 q 362 -290 416 -166 l 332 -290 q 103 -14 278 -166 l 103 40 q 314 -92 219 -6 l 314 794 q 103 662 219 709 l 103 716 q 332 992 278 869 z "},"↨":{"ha":694,"x_min":103,"x_max":591,"o":"m 332 992 l 362 992 q 591 716 416 869 l 591 662 q 380 794 475 709 l 380 -92 q 591 40 475 -6 l 591 -14 q 362 -290 416 -166 l 332 -290 q 103 -14 278 -166 l 103 40 q 314 -92 219 -6 l 314 794 q 103 662 219 709 l 103 716 q 332 992 278 869 m 104 -354 l 591 -354 l 591 -420 l 104 -420 l 104 -354 z "},"∟":{"ha":1360,"x_min":245,"x_max":1114,"o":"m 245 867 l 313 867 l 313 68 l 1114 68 l 1114 0 l 245 0 l 245 867 z "},"∩":{"ha":999,"x_min":130,"x_max":869,"o":"m 204 0 l 130 0 l 130 399 q 139 652 130 580 q 190 794 147 724 q 318 911 233 863 q 499 958 403 958 q 681 910 597 958 q 807 797 766 863 q 859 657 849 730 q 869 399 869 583 l 869 0 l 794 0 l 794 404 q 786 630 794 561 q 746 754 779 699 q 645 848 713 809 q 499 886 576 886 q 353 847 422 886 q 252 754 283 807 q 213 631 221 701 q 204 404 204 562 l 204 0 z "},"≡":{"ha":842,"x_min":47,"x_max":795,"o":"m 47 820 l 795 820 l 795 730 l 47 730 l 47 820 m 47 515 l 795 515 l 795 425 l 47 425 l 47 515 m 47 209 l 795 209 l 795 119 l 47 119 l 47 209 z "},"□":{"ha":839,"x_min":99,"x_max":739,"o":"m 99 640 l 739 640 l 739 0 l 99 0 l 99 640 m 151 589 l 151 52 l 688 52 l 688 589 l 151 589 z "},"▪":{"ha":493,"x_min":62,"x_max":431,"o":"m 431 643 l 431 275 l 62 275 l 62 643 l 431 643 z "},"▫":{"ha":493,"x_min":62,"x_max":431,"o":"m 431 643 l 431 275 l 62 275 l 62 643 l 431 643 m 379 591 l 114 591 l 114 326 l 379 326 l 379 591 z "},"●":{"ha":839,"x_min":121,"x_max":718,"o":"m 718 392 q 630 181 718 269 q 420 93 543 93 q 208 180 296 93 q 121 392 121 268 q 209 603 121 515 q 420 690 296 690 q 630 603 543 690 q 718 392 718 515 z "},"◦":{"ha":493,"x_min":53,"x_max":440,"o":"m 440 458 q 384 321 440 378 q 247 264 327 264 q 110 321 167 264 q 53 458 53 378 q 110 595 53 538 q 247 652 167 652 q 384 595 327 652 q 440 458 440 538 m 389 458 q 347 559 389 517 q 247 601 305 601 q 146 559 189 601 q 104 458 104 517 q 146 358 104 400 q 247 316 188 316 q 348 358 306 316 q 389 458 389 400 z "},"":{"ha":463,"x_min":157,"x_max":306,"o":"m 200 -286 l 189 -261 q 258 -184 258 -232 q 246 -171 258 -171 q 235 -172 243 -171 q 218 -174 224 -174 q 175 -158 193 -174 q 157 -121 157 -142 q 175 -85 157 -101 q 222 -70 193 -70 q 283 -93 260 -70 q 306 -155 306 -116 q 200 -286 306 -244 z "},"Ā":{"ha":1003,"x_min":-10,"x_max":1010,"o":"m 485 1024 l 530 1024 l 890 106 q 979 51 912 51 l 1010 51 l 1010 0 l 610 0 l 610 51 l 642 51 q 730 64 705 51 q 748 94 748 74 q 743 118 748 105 l 660 331 l 264 331 l 217 209 q 199 132 199 160 q 230 75 199 98 q 319 51 260 51 l 353 51 l 353 0 l -10 0 l -10 51 q 82 76 48 51 q 144 173 116 102 l 485 1024 m 465 831 l 286 384 l 640 384 l 465 831 m 281 1279 l 720 1279 l 720 1191 l 281 1191 l 281 1279 z "},"ā":{"ha":772,"x_min":68,"x_max":741,"o":"m 717 70 l 741 32 q 631 -19 692 -19 q 554 6 585 -19 q 498 94 522 31 q 385 4 434 26 q 268 -19 336 -19 q 119 23 170 -19 q 68 131 68 65 q 185 295 68 230 q 494 382 301 361 l 494 479 q 453 567 494 530 q 348 604 412 604 q 246 579 289 604 q 216 543 216 561 q 232 511 216 533 q 252 463 252 484 q 232 413 252 433 q 180 394 212 394 q 124 417 146 394 q 101 476 101 440 q 177 599 101 543 q 375 654 252 654 q 548 606 488 654 q 608 486 608 556 l 608 138 q 623 71 608 92 q 661 48 637 48 q 717 70 688 48 m 494 338 q 250 260 322 314 q 197 145 197 220 q 224 63 197 93 q 297 34 252 34 q 436 95 377 34 q 494 247 494 155 l 494 338 m 160 946 l 599 946 l 599 858 l 160 858 l 160 946 z "},"Ĉ":{"ha":1003,"x_min":96,"x_max":936,"o":"m 804 925 l 850 1022 l 893 1022 l 911 618 l 865 618 q 753 869 821 789 q 552 970 669 970 q 347 858 426 970 q 267 477 267 745 q 358 132 267 251 q 575 32 435 32 q 780 110 697 32 q 888 347 863 189 l 936 347 q 813 71 915 168 q 557 -25 711 -25 q 327 38 431 -25 q 159 219 222 101 q 96 479 96 338 q 161 760 96 629 q 327 958 226 892 q 545 1024 428 1024 q 671 1002 610 1024 q 804 925 732 979 m 513 1348 l 569 1348 l 731 1114 l 688 1114 l 541 1249 l 395 1114 l 352 1114 l 513 1348 z "},"ĉ":{"ha":616,"x_min":41,"x_max":575,"o":"m 531 189 l 575 176 q 342 -19 522 -19 q 125 68 210 -19 q 41 301 41 156 q 134 562 41 469 q 351 654 226 654 q 505 603 444 654 q 566 488 566 551 q 544 426 566 450 q 490 401 521 401 q 438 422 459 401 q 417 473 417 443 q 440 530 417 503 q 451 550 451 543 q 425 588 451 570 q 353 607 398 607 q 227 547 270 607 q 166 316 166 459 q 220 110 166 180 q 359 39 275 39 q 531 189 475 39 m 289 1015 l 345 1015 l 507 781 l 463 781 l 316 916 l 171 781 l 127 781 l 289 1015 z "},"Ċ":{"ha":1003,"x_min":96,"x_max":936,"o":"m 804 925 l 850 1022 l 893 1022 l 911 618 l 865 618 q 753 869 821 789 q 552 970 669 970 q 347 858 426 970 q 267 477 267 745 q 358 132 267 251 q 575 32 435 32 q 780 110 697 32 q 888 347 863 189 l 936 347 q 813 71 915 168 q 557 -25 711 -25 q 327 38 431 -25 q 159 219 222 101 q 96 479 96 338 q 161 760 96 629 q 327 958 226 892 q 545 1024 428 1024 q 671 1002 610 1024 q 804 925 732 979 m 532 1261 q 582 1241 562 1261 q 602 1193 602 1221 q 582 1143 602 1164 q 532 1122 561 1122 q 484 1143 504 1122 q 463 1193 463 1164 q 484 1241 463 1221 q 532 1261 504 1261 z "},"ċ":{"ha":616,"x_min":41,"x_max":575,"o":"m 531 189 l 575 176 q 342 -19 522 -19 q 125 68 210 -19 q 41 301 41 156 q 134 562 41 469 q 351 654 226 654 q 505 603 444 654 q 566 488 566 551 q 544 426 566 450 q 490 401 521 401 q 438 422 459 401 q 417 473 417 443 q 440 530 417 503 q 451 550 451 543 q 425 588 451 570 q 353 607 398 607 q 227 547 270 607 q 166 316 166 459 q 220 110 166 180 q 359 39 275 39 q 531 189 475 39 m 342 928 q 391 908 371 928 q 412 860 412 888 q 391 810 412 831 q 342 789 370 789 q 293 810 313 789 q 273 860 273 831 q 293 908 273 888 q 342 928 313 928 z "},"Ē":{"ha":1003,"x_min":91,"x_max":935,"o":"m 91 1003 l 886 1003 l 905 665 l 859 665 q 773 888 832 825 q 621 952 715 952 l 424 952 q 388 939 400 952 q 376 900 376 926 l 376 543 l 462 543 q 574 592 531 543 q 621 744 617 642 l 667 744 l 667 279 l 621 279 q 573 445 617 395 q 454 494 530 494 l 376 494 l 376 96 q 390 62 376 74 q 439 51 405 51 l 594 51 q 886 374 847 51 l 935 374 l 918 0 l 91 0 l 91 51 l 159 51 q 216 65 199 51 q 232 105 232 79 l 232 900 q 218 939 232 926 q 173 952 203 952 l 91 952 l 91 1003 m 294 1279 l 732 1279 l 732 1191 l 294 1191 l 294 1279 z "},"ē":{"ha":694,"x_min":59,"x_max":647,"o":"m 642 313 l 186 313 q 241 109 190 168 q 389 41 299 41 q 603 193 522 41 l 647 174 q 361 -19 548 -19 q 146 73 233 -19 q 59 309 59 165 q 145 559 59 464 q 356 654 231 654 q 515 607 448 654 q 616 471 583 559 q 642 313 640 408 m 186 361 l 462 361 q 500 378 486 361 q 513 435 513 395 q 467 562 513 509 q 357 614 420 614 q 238 551 287 614 q 186 361 189 488 m 134 946 l 572 946 l 572 858 l 134 858 l 134 946 z "},"Ĕ":{"ha":1003,"x_min":91,"x_max":935,"o":"m 91 1003 l 886 1003 l 905 665 l 859 665 q 773 888 832 825 q 621 952 715 952 l 424 952 q 388 939 400 952 q 376 900 376 926 l 376 543 l 462 543 q 574 592 531 543 q 621 744 617 642 l 667 744 l 667 279 l 621 279 q 573 445 617 395 q 454 494 530 494 l 376 494 l 376 96 q 390 62 376 74 q 439 51 405 51 l 594 51 q 886 374 847 51 l 935 374 l 918 0 l 91 0 l 91 51 l 159 51 q 216 65 199 51 q 232 105 232 79 l 232 900 q 218 939 232 926 q 173 952 203 952 l 91 952 l 91 1003 m 307 1336 l 349 1336 q 405 1270 367 1292 q 509 1249 442 1249 q 623 1273 578 1249 q 673 1336 656 1292 l 718 1336 q 684 1219 712 1265 q 610 1147 656 1173 q 510 1120 564 1120 q 375 1175 430 1120 q 307 1336 319 1230 z "},"ĕ":{"ha":694,"x_min":59,"x_max":647,"o":"m 642 313 l 186 313 q 241 109 190 168 q 389 41 299 41 q 603 193 522 41 l 647 174 q 361 -19 548 -19 q 146 73 233 -19 q 59 309 59 165 q 145 559 59 464 q 356 654 231 654 q 515 607 448 654 q 616 471 583 559 q 642 313 640 408 m 186 361 l 462 361 q 500 378 486 361 q 513 435 513 395 q 467 562 513 509 q 357 614 420 614 q 238 551 287 614 q 186 361 189 488 m 147 1003 l 190 1003 q 245 937 208 959 q 350 916 283 916 q 463 940 419 916 q 514 1003 496 959 l 559 1003 q 525 886 553 932 q 450 814 496 840 q 351 787 404 787 q 215 842 271 787 q 147 1003 160 897 z "},"Ė":{"ha":1003,"x_min":91,"x_max":935,"o":"m 91 1003 l 886 1003 l 905 665 l 859 665 q 773 888 832 825 q 621 952 715 952 l 424 952 q 388 939 400 952 q 376 900 376 926 l 376 543 l 462 543 q 574 592 531 543 q 621 744 617 642 l 667 744 l 667 279 l 621 279 q 573 445 617 395 q 454 494 530 494 l 376 494 l 376 96 q 390 62 376 74 q 439 51 405 51 l 594 51 q 886 374 847 51 l 935 374 l 918 0 l 91 0 l 91 51 l 159 51 q 216 65 199 51 q 232 105 232 79 l 232 900 q 218 939 232 926 q 173 952 203 952 l 91 952 l 91 1003 m 513 1261 q 562 1241 542 1261 q 583 1193 583 1221 q 562 1143 583 1164 q 513 1122 541 1122 q 464 1143 484 1122 q 444 1193 444 1164 q 464 1241 444 1221 q 513 1261 484 1261 z "},"ė":{"ha":694,"x_min":59,"x_max":647,"o":"m 642 313 l 186 313 q 241 109 190 168 q 389 41 299 41 q 603 193 522 41 l 647 174 q 361 -19 548 -19 q 146 73 233 -19 q 59 309 59 165 q 145 559 59 464 q 356 654 231 654 q 515 607 448 654 q 616 471 583 559 q 642 313 640 408 m 186 361 l 462 361 q 500 378 486 361 q 513 435 513 395 q 467 562 513 509 q 357 614 420 614 q 238 551 287 614 q 186 361 189 488 m 370 928 q 419 908 399 928 q 439 860 439 888 q 419 810 439 831 q 370 789 398 789 q 321 810 341 789 q 300 860 300 831 q 321 908 300 888 q 370 928 341 928 z "},"Ĝ":{"ha":1080,"x_min":71,"x_max":1042,"o":"m 781 924 l 836 1024 l 882 1024 l 907 624 l 863 624 q 743 874 812 797 q 541 972 654 972 q 384 923 453 972 q 278 774 315 873 q 241 496 241 675 q 278 223 241 321 q 380 78 315 125 q 532 32 445 32 q 716 98 651 32 q 781 270 781 165 l 781 364 q 763 399 781 387 q 707 411 746 411 l 622 411 l 622 458 l 1042 458 l 1042 411 l 985 411 q 931 398 947 411 q 915 359 915 385 l 915 -24 l 870 -24 q 819 148 846 66 q 698 23 768 64 q 539 -19 628 -19 q 304 46 412 -19 q 133 230 196 111 q 71 497 71 348 q 134 766 71 647 q 306 954 197 884 q 528 1024 416 1024 q 649 1003 591 1024 q 781 924 707 981 m 528 1348 l 584 1348 l 746 1114 l 703 1114 l 555 1249 l 410 1114 l 367 1114 l 528 1348 z "},"ĝ":{"ha":746,"x_min":67,"x_max":736,"o":"m 532 600 q 657 668 600 668 q 713 646 691 668 q 736 593 736 625 q 721 552 736 568 q 685 535 705 535 q 633 583 646 535 q 614 603 627 603 q 564 572 591 603 q 604 503 593 532 q 615 439 615 473 q 587 335 615 380 q 492 256 558 290 q 366 221 426 221 l 292 221 q 187 205 213 221 q 161 155 161 188 q 182 115 161 129 q 262 100 203 100 l 429 104 q 612 61 556 104 q 668 -55 668 19 q 604 -192 668 -136 q 339 -271 515 -271 q 123 -217 193 -271 q 67 -123 67 -175 q 103 -50 67 -83 q 222 0 138 -16 q 121 48 155 16 q 87 126 87 79 q 115 202 87 170 q 210 257 142 234 q 123 334 153 289 q 94 437 94 379 q 167 592 94 530 q 355 654 239 654 q 447 641 403 654 q 532 600 491 627 m 354 611 q 254 567 294 611 q 215 442 215 522 q 254 310 215 357 q 355 262 294 262 q 455 308 416 262 q 494 439 494 354 q 454 565 494 519 q 354 611 414 611 m 394 -1 q 216 -35 269 -1 q 163 -119 163 -70 q 203 -191 163 -165 q 353 -227 256 -227 q 529 -188 470 -227 q 588 -102 588 -149 q 570 -50 588 -74 q 511 -13 551 -26 q 394 -1 471 -1 m 348 1015 l 404 1015 l 566 781 l 522 781 l 375 916 l 230 781 l 186 781 l 348 1015 z "},"Ġ":{"ha":1080,"x_min":71,"x_max":1042,"o":"m 781 924 l 836 1024 l 882 1024 l 907 624 l 863 624 q 743 874 812 797 q 541 972 654 972 q 384 923 453 972 q 278 774 315 873 q 241 496 241 675 q 278 223 241 321 q 380 78 315 125 q 532 32 445 32 q 716 98 651 32 q 781 270 781 165 l 781 364 q 763 399 781 387 q 707 411 746 411 l 622 411 l 622 458 l 1042 458 l 1042 411 l 985 411 q 931 398 947 411 q 915 359 915 385 l 915 -24 l 870 -24 q 819 148 846 66 q 698 23 768 64 q 539 -19 628 -19 q 304 46 412 -19 q 133 230 196 111 q 71 497 71 348 q 134 766 71 647 q 306 954 197 884 q 528 1024 416 1024 q 649 1003 591 1024 q 781 924 707 981 m 556 1261 q 606 1241 585 1261 q 626 1193 626 1221 q 605 1143 626 1164 q 556 1122 585 1122 q 507 1143 528 1122 q 487 1193 487 1164 q 507 1241 487 1221 q 556 1261 528 1261 z "},"ġ":{"ha":746,"x_min":67,"x_max":736,"o":"m 532 600 q 657 668 600 668 q 713 646 691 668 q 736 593 736 625 q 721 552 736 568 q 685 535 705 535 q 633 583 646 535 q 614 603 627 603 q 564 572 591 603 q 604 503 593 532 q 615 439 615 473 q 587 335 615 380 q 492 256 558 290 q 366 221 426 221 l 292 221 q 187 205 213 221 q 161 155 161 188 q 182 115 161 129 q 262 100 203 100 l 429 104 q 612 61 556 104 q 668 -55 668 19 q 604 -192 668 -136 q 339 -271 515 -271 q 123 -217 193 -271 q 67 -123 67 -175 q 103 -50 67 -83 q 222 0 138 -16 q 121 48 155 16 q 87 126 87 79 q 115 202 87 170 q 210 257 142 234 q 123 334 153 289 q 94 437 94 379 q 167 592 94 530 q 355 654 239 654 q 447 641 403 654 q 532 600 491 627 m 354 611 q 254 567 294 611 q 215 442 215 522 q 254 310 215 357 q 355 262 294 262 q 455 308 416 262 q 494 439 494 354 q 454 565 494 519 q 354 611 414 611 m 394 -1 q 216 -35 269 -1 q 163 -119 163 -70 q 203 -191 163 -165 q 353 -227 256 -227 q 529 -188 470 -227 q 588 -102 588 -149 q 570 -50 588 -74 q 511 -13 551 -26 q 394 -1 471 -1 m 385 928 q 434 908 414 928 q 454 860 454 888 q 434 810 454 831 q 385 789 413 789 q 336 810 356 789 q 315 860 315 831 q 336 908 315 888 q 385 928 356 928 z "},"Ģ":{"ha":1080,"x_min":71,"x_max":1042,"o":"m 781 924 l 836 1024 l 882 1024 l 907 624 l 863 624 q 743 874 812 797 q 541 972 654 972 q 384 923 453 972 q 278 774 315 873 q 241 496 241 675 q 278 223 241 321 q 380 78 315 125 q 532 32 445 32 q 716 98 651 32 q 781 270 781 165 l 781 364 q 763 399 781 387 q 707 411 746 411 l 622 411 l 622 458 l 1042 458 l 1042 411 l 985 411 q 931 398 947 411 q 915 359 915 385 l 915 -24 l 870 -24 q 819 148 846 66 q 698 23 768 64 q 539 -19 628 -19 q 304 46 412 -19 q 133 230 196 111 q 71 497 71 348 q 134 766 71 647 q 306 954 197 884 q 528 1024 416 1024 q 649 1003 591 1024 q 781 924 707 981 m 525 -26 q 607 -63 579 -35 q 635 -127 635 -91 q 588 -224 635 -185 q 450 -264 540 -264 q 380 -261 425 -264 l 380 -209 l 412 -209 q 500 -188 472 -209 q 528 -136 528 -167 q 459 -79 528 -91 l 474 7 l 529 7 l 525 -26 z "},"ģ":{"ha":746,"x_min":67,"x_max":736,"o":"m 532 600 q 657 668 600 668 q 713 646 691 668 q 736 593 736 625 q 721 552 736 568 q 685 535 705 535 q 633 583 646 535 q 614 603 627 603 q 564 572 591 603 q 604 503 593 532 q 615 439 615 473 q 587 335 615 380 q 492 256 558 290 q 366 221 426 221 l 292 221 q 187 205 213 221 q 161 155 161 188 q 182 115 161 129 q 262 100 203 100 l 429 104 q 612 61 556 104 q 668 -55 668 19 q 604 -192 668 -136 q 339 -271 515 -271 q 123 -217 193 -271 q 67 -123 67 -175 q 103 -50 67 -83 q 222 0 138 -16 q 121 48 155 16 q 87 126 87 79 q 115 202 87 170 q 210 257 142 234 q 123 334 153 289 q 94 437 94 379 q 167 592 94 530 q 355 654 239 654 q 447 641 403 654 q 532 600 491 627 m 354 611 q 254 567 294 611 q 215 442 215 522 q 254 310 215 357 q 355 262 294 262 q 455 308 416 262 q 494 439 494 354 q 454 565 494 519 q 354 611 414 611 m 394 -1 q 216 -35 269 -1 q 163 -119 163 -70 q 203 -191 163 -165 q 353 -227 256 -227 q 529 -188 470 -227 q 588 -102 588 -149 q 570 -50 588 -74 q 511 -13 551 -26 q 394 -1 471 -1 m 388 1003 l 399 979 q 330 901 330 949 q 342 888 330 888 q 353 890 345 888 q 370 891 364 891 q 413 875 395 891 q 431 838 431 859 q 413 802 431 818 q 366 787 395 787 q 305 810 328 787 q 282 871 282 833 q 388 1003 282 964 z "},"Ĥ":{"ha":1157,"x_min":65,"x_max":1092,"o":"m 65 1003 l 493 1003 l 493 952 l 414 952 q 360 938 373 952 q 348 867 348 923 l 348 557 l 807 557 l 807 867 q 795 939 807 925 q 739 952 783 952 l 666 952 l 666 1003 l 1092 1003 l 1092 952 l 1014 952 q 973 945 985 952 q 954 919 961 937 q 949 859 949 907 l 949 137 q 958 74 949 85 q 1023 51 976 51 l 1092 51 l 1092 0 l 666 0 l 666 51 l 739 51 q 798 75 783 51 q 807 142 807 87 l 807 491 l 348 491 l 348 137 q 356 73 348 84 q 414 51 373 51 l 493 51 l 493 0 l 65 0 l 65 51 l 147 51 q 182 60 169 51 q 201 85 195 68 q 204 142 204 96 l 204 867 q 192 938 204 923 q 137 952 179 952 l 65 952 l 65 1003 m 550 1348 l 606 1348 l 768 1114 l 724 1114 l 577 1249 l 432 1114 l 389 1114 l 550 1348 z "},"ĥ":{"ha":848,"x_min":29,"x_max":817,"o":"m 29 1004 l 270 1015 l 270 526 q 378 623 320 591 q 500 655 435 655 q 610 626 561 655 q 674 545 648 603 q 701 409 701 488 l 701 107 q 716 65 701 78 q 763 52 731 52 l 817 52 l 817 1 l 474 1 l 474 52 l 512 52 q 572 65 555 52 q 589 107 589 79 l 589 409 q 550 533 589 488 q 452 577 512 577 q 366 552 406 577 q 298 476 326 527 q 270 368 270 425 l 270 114 q 284 66 270 80 q 331 52 298 52 l 385 52 l 385 1 l 50 1 l 50 52 l 87 52 q 142 67 126 52 q 159 114 159 82 l 159 872 q 137 933 159 913 q 75 953 116 953 l 29 953 l 29 1004 m 395 1301 l 451 1301 l 613 1067 l 570 1067 l 422 1202 l 277 1067 l 234 1067 l 395 1301 z "},"Ħ":{"ha":1157,"x_min":65,"x_max":1092,"o":"m 204 732 l 73 732 l 73 792 l 204 792 l 204 880 q 190 939 204 926 q 132 952 176 952 l 65 952 l 65 1003 l 493 1003 l 493 952 l 420 952 q 361 939 374 952 q 348 880 348 926 l 348 792 l 809 792 l 809 880 q 795 939 809 926 q 736 952 781 952 l 664 952 l 664 1003 l 1092 1003 l 1092 952 l 1025 952 q 967 940 981 952 q 953 880 953 928 l 953 792 l 1084 792 l 1084 732 l 953 732 l 953 123 q 967 64 953 77 q 1025 51 981 51 l 1092 51 l 1092 0 l 664 0 l 664 51 l 736 51 q 795 63 781 51 q 809 123 809 75 l 809 491 l 348 491 l 348 123 q 362 64 348 77 q 420 51 376 51 l 493 51 l 493 0 l 65 0 l 65 51 l 132 51 q 191 64 177 51 q 204 123 204 77 l 204 732 m 348 732 l 348 557 l 809 557 l 809 732 l 348 732 z "},"ħ":{"ha":848,"x_min":29,"x_max":817,"o":"m 270 825 l 501 825 l 501 777 l 270 777 l 270 525 q 501 654 370 654 q 612 623 564 654 q 681 538 661 591 q 701 370 701 484 l 701 106 q 763 51 701 51 l 817 51 l 817 0 l 474 0 l 474 51 l 512 51 q 589 106 589 51 l 589 408 q 552 530 589 483 q 452 576 515 576 q 323 515 377 576 q 270 367 270 454 l 270 113 q 331 51 270 51 l 385 51 l 385 0 l 50 0 l 50 51 l 87 51 q 159 113 159 51 l 159 777 l 29 777 l 29 825 l 159 825 l 159 871 q 75 952 159 952 l 29 952 l 29 1003 l 270 1016 l 270 825 z "},"Ĩ":{"ha":566,"x_min":52,"x_max":514,"o":"m 52 1003 l 514 1003 l 514 952 l 435 952 q 368 939 382 952 q 354 883 354 926 l 354 123 q 366 66 354 78 q 425 51 382 51 l 514 51 l 514 0 l 52 0 l 52 51 l 139 51 q 199 64 185 51 q 212 123 212 78 l 212 883 q 200 937 212 926 q 130 952 181 952 l 52 952 l 52 1003 m 489 1278 l 512 1278 q 473 1165 511 1206 q 378 1123 434 1123 q 239 1158 336 1123 q 143 1183 168 1183 q 76 1123 93 1183 l 53 1123 q 188 1276 67 1276 q 317 1246 233 1276 q 423 1216 402 1216 q 489 1278 471 1216 z "},"ĩ":{"ha":437,"x_min":-52,"x_max":408,"o":"m 33 635 l 286 643 l 286 96 q 296 64 286 74 q 336 51 312 51 l 408 51 l 408 0 l 47 0 l 47 51 l 114 51 q 158 65 144 51 q 172 108 172 80 l 172 508 q 150 565 172 546 q 85 585 128 585 l 33 585 l 33 635 m 385 945 l 408 945 q 368 832 407 873 q 273 790 330 790 q 134 825 231 790 q 39 850 63 850 q -28 790 -12 850 l -52 790 q 83 943 -37 943 q 212 913 128 943 q 319 883 298 883 q 385 945 367 883 z "},"Ī":{"ha":566,"x_min":52,"x_max":514,"o":"m 52 1003 l 514 1003 l 514 952 l 435 952 q 368 939 382 952 q 354 883 354 926 l 354 123 q 366 66 354 78 q 425 51 382 51 l 514 51 l 514 0 l 52 0 l 52 51 l 139 51 q 199 64 185 51 q 212 123 212 78 l 212 883 q 200 937 212 926 q 130 952 181 952 l 52 952 l 52 1003 m 64 1279 l 503 1279 l 503 1191 l 64 1191 l 64 1279 z "},"ī":{"ha":437,"x_min":-16,"x_max":423,"o":"m 33 635 l 286 643 l 286 96 q 296 64 286 74 q 336 51 312 51 l 408 51 l 408 0 l 47 0 l 47 51 l 114 51 q 158 65 144 51 q 172 108 172 80 l 172 508 q 150 565 172 546 q 85 585 128 585 l 33 585 l 33 635 m -16 946 l 423 946 l 423 858 l -16 858 l -16 946 z "},"Ĭ":{"ha":566,"x_min":52,"x_max":514,"o":"m 52 1003 l 514 1003 l 514 952 l 435 952 q 368 939 382 952 q 354 883 354 926 l 354 123 q 366 66 354 78 q 425 51 382 51 l 514 51 l 514 0 l 52 0 l 52 51 l 139 51 q 199 64 185 51 q 212 123 212 78 l 212 883 q 200 937 212 926 q 130 952 181 952 l 52 952 l 52 1003 m 77 1336 l 119 1336 q 175 1270 137 1292 q 279 1249 212 1249 q 393 1273 349 1249 q 444 1336 426 1292 l 488 1336 q 454 1219 482 1265 q 380 1147 426 1173 q 280 1120 334 1120 q 145 1175 200 1120 q 77 1336 90 1230 z "},"ĭ":{"ha":437,"x_min":-11,"x_max":408,"o":"m 33 635 l 286 643 l 286 96 q 296 64 286 74 q 336 51 312 51 l 408 51 l 408 0 l 47 0 l 47 51 l 114 51 q 158 65 144 51 q 172 108 172 80 l 172 508 q 150 565 172 546 q 85 585 128 585 l 33 585 l 33 635 m -11 1003 l 32 1003 q 87 937 50 959 q 192 916 125 916 q 305 940 261 916 q 356 1003 338 959 l 401 1003 q 367 886 395 932 q 292 814 338 840 q 193 787 246 787 q 57 842 113 787 q -11 1003 2 897 z "},"Į":{"ha":566,"x_min":52,"x_max":514,"o":"m 52 1003 l 514 1003 l 514 952 l 435 952 q 368 939 382 952 q 354 883 354 926 l 354 123 q 366 66 354 78 q 425 51 382 51 l 514 51 l 514 0 l 52 0 l 52 51 l 139 51 q 199 64 185 51 q 212 123 212 78 l 212 883 q 200 937 212 926 q 130 952 181 952 l 52 952 l 52 1003 m 245 7 l 281 7 q 263 -63 263 -31 q 304 -162 263 -124 q 410 -201 346 -201 q 492 -185 448 -201 l 507 -208 q 420 -250 455 -239 q 347 -261 386 -261 q 233 -224 275 -261 q 191 -129 191 -186 q 245 7 191 -48 z "},"į":{"ha":437,"x_min":33,"x_max":452,"o":"m 209 1015 q 262 991 239 1015 q 286 937 286 968 q 263 884 286 907 q 210 862 241 862 q 156 885 178 862 q 133 938 133 907 q 156 991 133 968 q 209 1015 179 1015 m 33 635 l 286 643 l 286 96 q 296 64 286 74 q 336 51 312 51 l 408 51 l 408 0 l 47 0 l 47 51 l 114 51 q 158 65 144 51 q 172 108 172 80 l 172 508 q 150 565 172 546 q 85 585 128 585 l 33 585 l 33 635 m 191 7 l 227 7 q 209 -63 209 -31 q 250 -162 209 -124 q 356 -201 292 -201 q 438 -185 393 -201 l 452 -208 q 366 -250 401 -239 q 293 -261 332 -261 q 178 -224 220 -261 q 136 -129 136 -186 q 191 7 136 -48 z "},"Ĵ":{"ha":772,"x_min":21,"x_max":730,"o":"m 287 1003 l 730 1003 l 730 952 l 667 952 q 614 939 630 952 q 598 899 598 925 l 598 249 q 562 113 598 174 q 454 17 525 52 q 295 -19 384 -19 q 98 52 174 -19 q 21 225 21 123 q 60 347 21 301 q 155 392 98 392 q 231 362 201 392 q 260 288 260 333 q 236 221 260 248 q 180 195 212 195 q 146 201 168 195 q 121 207 127 207 q 103 197 110 207 q 96 169 96 188 q 147 76 96 118 q 273 35 198 35 q 406 93 357 35 q 455 257 455 152 l 455 899 q 437 939 455 926 q 376 952 419 952 l 287 952 l 287 1003 m 467 1348 l 522 1348 l 684 1114 l 641 1114 l 494 1249 l 349 1114 l 305 1114 l 467 1348 z "},"ĵ":{"ha":411,"x_min":-43,"x_max":340,"o":"m 121 1016 l 178 1016 l 340 781 l 296 781 l 149 916 l 3 781 l -39 781 l 121 1016 m 284 645 l 284 37 q 213 -181 284 -91 q 51 -271 142 -271 q -43 -190 -43 -271 q -23 -134 -43 -153 q 26 -115 -2 -115 q 87 -176 73 -115 q 112 -207 94 -207 q 158 -147 142 -207 q 174 -24 174 -87 l 174 511 q 82 588 174 588 l 24 588 l 24 635 l 284 645 z "},"Ķ":{"ha":1080,"x_min":56,"x_max":1101,"o":"m 56 1003 l 515 1003 l 515 952 l 417 952 q 369 936 386 952 q 352 895 352 920 l 352 429 l 730 832 q 762 899 762 867 q 740 937 762 922 q 667 952 718 952 l 639 952 l 639 1003 l 1050 1003 l 1050 952 l 1019 952 q 928 928 977 952 q 836 860 878 903 l 604 618 l 937 127 q 994 68 964 85 q 1065 51 1024 51 l 1101 51 l 1101 0 l 649 0 l 649 51 l 701 51 q 775 60 757 51 q 794 84 794 70 q 786 110 794 97 l 509 517 l 352 348 l 352 101 q 366 67 352 78 q 417 51 387 51 l 515 51 l 515 0 l 56 0 l 56 51 l 144 51 q 195 65 178 51 q 211 101 211 79 l 211 902 q 193 939 211 926 q 131 952 174 952 l 56 952 l 56 1003 m 429 -58 q 501 -55 477 -55 q 598 -77 562 -55 q 635 -143 635 -100 q 590 -232 635 -193 q 448 -271 546 -271 q 399 -270 432 -271 l 399 -218 q 528 -151 528 -218 q 431 -115 528 -115 l 429 -58 z "},"ķ":{"ha":823,"x_min":35,"x_max":797,"o":"m 35 1003 l 277 1015 l 277 321 l 484 500 q 514 547 514 527 q 496 573 514 564 q 410 588 470 587 l 410 635 l 749 635 l 749 588 q 595 535 648 583 l 450 406 l 686 80 q 762 51 708 51 l 797 51 l 797 0 l 450 0 l 450 51 l 484 51 q 536 58 523 51 q 549 74 549 64 q 543 93 549 83 l 370 334 l 277 254 l 277 93 q 290 64 277 73 q 341 51 309 51 l 385 51 l 385 0 l 44 0 l 44 51 l 99 51 q 149 65 133 51 q 165 103 165 79 l 165 887 q 146 932 165 918 q 69 952 117 952 l 35 952 l 35 1003 m 301 -58 q 373 -55 349 -55 q 470 -77 433 -55 q 507 -143 507 -100 q 462 -232 507 -193 q 319 -271 418 -271 q 271 -270 304 -271 l 271 -218 q 399 -151 399 -218 q 302 -115 399 -115 l 301 -58 z "},"ĸ":{"ha":822,"x_min":33,"x_max":795,"o":"m 33 635 l 276 648 l 276 321 l 483 500 q 513 547 513 527 q 409 585 513 583 l 409 635 l 747 635 l 747 585 q 594 535 646 581 l 448 406 l 685 80 q 760 51 707 51 l 795 51 l 795 0 l 448 0 l 448 51 l 483 51 q 548 75 548 51 q 541 93 548 83 l 369 334 l 276 254 l 276 93 q 340 51 276 51 l 384 51 l 384 0 l 43 0 l 43 51 l 98 51 q 164 103 164 51 l 164 503 q 81 588 164 588 l 33 588 l 33 635 z "},"Ļ":{"ha":926,"x_min":43,"x_max":902,"o":"m 43 1003 l 508 1003 l 508 952 l 397 952 q 358 938 370 952 q 345 895 345 924 l 345 103 q 361 63 345 75 q 425 51 377 51 l 566 51 q 750 126 679 51 q 854 386 822 201 l 902 386 l 879 0 l 43 0 l 43 51 l 125 51 q 184 67 168 51 q 201 118 201 83 l 201 901 q 187 939 201 926 q 145 952 173 952 l 43 952 l 43 1003 m 361 -58 q 433 -55 409 -55 q 530 -77 493 -55 q 566 -143 566 -100 q 522 -232 566 -193 q 379 -271 477 -271 q 331 -270 363 -271 l 331 -218 q 459 -151 459 -218 q 362 -115 459 -115 l 361 -58 z "},"ļ":{"ha":437,"x_min":34,"x_max":405,"o":"m 285 1015 l 285 94 q 296 64 285 75 q 338 51 313 51 l 405 51 l 405 0 l 45 0 l 45 51 l 109 51 q 156 66 140 51 q 171 108 171 81 l 171 881 q 153 930 171 915 q 91 952 127 952 l 34 952 l 34 1003 l 285 1015 m 125 -58 q 197 -55 173 -55 q 294 -77 257 -55 q 330 -143 330 -100 q 286 -232 330 -193 q 143 -271 241 -271 q 95 -270 127 -271 l 95 -218 q 223 -151 223 -218 q 126 -115 223 -115 l 125 -58 z "},"Ņ":{"ha":1132,"x_min":57,"x_max":1105,"o":"m 57 1003 l 296 1003 l 901 215 l 901 785 q 862 913 901 871 q 755 952 826 951 l 755 1003 l 1105 1003 l 1105 952 q 1025 937 1052 952 q 979 883 999 922 q 960 797 960 844 l 960 0 l 896 0 l 270 820 l 270 215 q 311 93 270 133 q 439 51 353 52 l 439 0 l 57 0 l 57 51 q 171 98 129 54 q 213 207 213 142 l 213 887 l 201 899 q 153 943 168 936 q 102 952 134 952 l 57 952 l 57 1003 m 472 -58 q 544 -55 520 -55 q 641 -77 604 -55 q 677 -143 677 -100 q 633 -232 677 -193 q 490 -271 589 -271 q 442 -270 475 -271 l 442 -218 q 570 -151 570 -218 q 473 -115 570 -115 l 472 -58 z "},"ņ":{"ha":848,"x_min":45,"x_max":820,"o":"m 45 635 l 256 648 q 275 509 269 589 q 376 612 318 578 q 507 647 434 647 q 613 622 570 647 q 682 544 656 597 q 707 424 707 490 l 707 115 q 723 65 707 80 q 775 51 739 51 l 820 51 l 820 0 l 485 0 l 485 51 l 517 51 q 579 65 562 51 q 597 108 597 79 l 597 380 q 570 511 597 469 q 454 572 532 572 q 327 511 378 572 q 275 350 275 449 l 275 115 q 291 65 275 80 q 344 51 307 51 l 388 51 l 388 0 l 52 0 l 52 51 l 96 51 q 146 64 129 51 q 163 98 163 78 l 163 509 q 141 570 163 549 q 78 591 119 591 l 45 591 l 45 635 m 322 -58 q 394 -55 370 -55 q 491 -77 454 -55 q 528 -143 528 -100 q 483 -232 528 -193 q 340 -271 439 -271 q 292 -270 325 -271 l 292 -218 q 420 -151 420 -218 q 323 -115 420 -115 l 322 -58 z "},"Ŋ":{"ha":1103,"x_min":65,"x_max":1027,"o":"m 348 777 l 348 123 q 362 64 348 77 q 420 51 376 51 l 441 51 l 441 0 l 65 0 l 65 51 l 132 51 q 191 64 177 51 q 204 123 204 77 l 204 880 q 190 939 204 926 q 132 952 176 952 l 65 952 l 65 1003 l 348 1003 l 348 878 q 616 1024 445 1024 q 908 881 789 1024 q 1027 501 1027 737 q 932 132 1027 283 q 678 -20 836 -20 q 514 48 572 -20 q 456 222 456 117 q 495 353 456 307 q 590 399 533 399 q 666 369 636 399 q 696 294 696 339 q 671 228 696 254 q 616 201 646 201 q 570 211 604 201 q 556 214 562 214 q 531 173 531 214 q 568 74 531 114 q 665 35 606 35 q 805 128 753 35 q 857 479 857 221 q 788 857 857 745 q 596 968 720 968 q 348 777 427 968 z "},"ŋ":{"ha":811,"x_min":45,"x_max":707,"o":"m 707 424 l 707 47 q 635 -188 707 -105 q 473 -271 563 -271 q 379 -190 379 -271 q 400 -134 379 -153 q 448 -115 421 -115 q 511 -176 496 -115 q 534 -207 517 -207 q 581 -147 566 -207 q 596 -24 596 -87 l 596 198 l 597 198 l 597 380 q 454 572 597 572 q 327 511 378 572 q 275 350 275 449 l 275 115 q 294 63 275 75 q 344 51 313 51 l 388 51 l 388 0 l 52 0 l 52 51 l 96 51 q 163 98 163 51 l 163 509 q 78 591 163 591 l 45 591 l 45 635 l 256 648 q 275 509 270 592 q 507 647 360 647 q 658 585 609 647 q 707 424 707 522 z "},"Ō":{"ha":1080,"x_min":75,"x_max":1006,"o":"m 532 1024 q 769 957 659 1024 q 943 771 880 890 q 1006 501 1006 651 q 943 231 1006 351 q 769 42 880 110 q 536 -25 659 -25 q 309 41 415 -25 q 139 230 203 107 q 75 503 75 353 q 137 770 75 651 q 307 957 199 889 q 532 1024 415 1024 m 543 972 q 328 862 410 972 q 246 504 246 752 q 330 132 246 235 q 538 28 414 28 q 691 75 625 28 q 796 224 757 122 q 835 491 835 326 q 798 773 835 671 q 694 923 762 874 q 543 972 626 972 m 321 1277 l 760 1277 l 760 1189 l 321 1189 l 321 1277 z "},"ō":{"ha":694,"x_min":47,"x_max":648,"o":"m 345 654 q 561 562 473 654 q 648 318 648 469 q 609 140 648 214 q 497 24 570 66 q 342 -19 425 -19 q 133 75 218 -19 q 47 317 47 168 q 133 561 47 467 q 345 654 219 654 m 345 606 q 220 537 269 606 q 172 320 172 469 q 220 99 172 169 q 345 29 269 29 q 474 99 425 29 q 523 328 523 169 q 474 541 523 475 q 345 606 426 606 m 128 946 l 567 946 l 567 858 l 128 858 l 128 946 z "},"Ŏ":{"ha":1080,"x_min":75,"x_max":1006,"o":"m 532 1024 q 769 957 659 1024 q 943 771 880 890 q 1006 501 1006 651 q 943 231 1006 351 q 769 42 880 110 q 536 -25 659 -25 q 309 41 415 -25 q 139 230 203 107 q 75 503 75 353 q 137 770 75 651 q 307 957 199 889 q 532 1024 415 1024 m 543 972 q 328 862 410 972 q 246 504 246 752 q 330 132 246 235 q 538 28 414 28 q 691 75 625 28 q 796 224 757 122 q 835 491 835 326 q 798 773 835 671 q 694 923 762 874 q 543 972 626 972 m 331 1334 l 374 1334 q 429 1268 391 1290 q 534 1246 467 1246 q 647 1271 603 1246 q 698 1334 680 1290 l 743 1334 q 708 1217 736 1263 q 634 1145 680 1171 q 534 1118 588 1118 q 399 1173 454 1118 q 331 1334 344 1227 z "},"ŏ":{"ha":694,"x_min":47,"x_max":648,"o":"m 345 654 q 561 562 473 654 q 648 318 648 469 q 609 140 648 214 q 497 24 570 66 q 342 -19 425 -19 q 133 75 218 -19 q 47 317 47 168 q 133 561 47 467 q 345 654 219 654 m 345 606 q 220 537 269 606 q 172 320 172 469 q 220 99 172 169 q 345 29 269 29 q 474 99 425 29 q 523 328 523 169 q 474 541 523 475 q 345 606 426 606 m 141 1003 l 184 1003 q 239 937 201 959 q 344 916 277 916 q 457 940 413 916 q 508 1003 490 959 l 553 1003 q 518 886 547 932 q 444 814 490 840 q 345 787 398 787 q 209 842 264 787 q 141 1003 154 897 z "},"Ŗ":{"ha":1003,"x_min":35,"x_max":979,"o":"m 35 1003 l 553 1003 q 787 935 704 1003 q 870 755 870 866 q 837 636 870 688 q 742 554 804 585 q 547 509 680 523 q 681 457 644 483 q 740 392 718 432 q 790 227 762 351 q 833 106 810 138 q 871 81 851 81 q 910 112 892 81 q 932 220 928 142 l 979 220 q 808 -10 966 -10 q 723 15 759 -10 q 668 89 686 40 q 636 281 654 125 q 604 409 626 371 q 535 470 582 447 q 423 493 488 493 l 341 493 l 341 99 q 354 64 341 74 q 405 51 370 51 l 501 51 l 501 0 l 35 0 l 35 51 l 134 51 q 181 64 166 51 q 197 99 197 77 l 197 901 q 181 939 197 926 q 134 952 165 952 l 35 952 l 35 1003 m 341 542 l 460 542 q 647 587 579 542 q 714 747 714 632 q 689 873 714 827 q 622 936 663 919 q 459 953 581 953 q 360 942 379 953 q 341 903 341 930 l 341 542 m 391 -58 q 463 -55 439 -55 q 559 -77 523 -55 q 596 -143 596 -100 q 552 -232 596 -193 q 409 -271 507 -271 q 361 -270 393 -271 l 361 -218 q 489 -151 489 -218 q 392 -115 489 -115 l 391 -58 z "},"ŗ":{"ha":616,"x_min":35,"x_max":593,"o":"m 35 635 l 264 647 l 264 390 q 352 582 300 517 q 479 647 404 647 q 562 615 531 647 q 593 531 593 584 q 572 465 593 488 q 520 441 551 441 q 471 461 490 441 q 452 516 452 481 q 463 558 452 538 q 473 579 473 576 q 460 589 473 589 q 397 557 433 589 q 322 432 349 511 q 281 235 281 309 l 281 98 q 298 63 281 75 q 353 51 314 51 l 434 51 l 434 0 l 39 0 l 39 51 l 102 51 q 151 63 134 51 q 167 94 167 76 l 167 498 q 147 566 167 545 q 91 587 127 587 l 35 587 l 35 635 m 198 -58 q 270 -55 246 -55 q 367 -77 330 -55 q 404 -143 404 -100 q 359 -232 404 -193 q 216 -271 315 -271 q 168 -270 201 -271 l 168 -218 q 296 -151 296 -218 q 199 -115 296 -115 l 198 -58 z "},"Ŝ":{"ha":875,"x_min":90,"x_max":812,"o":"m 642 927 l 703 1015 l 753 1015 l 757 649 l 712 649 q 588 895 670 817 q 398 972 505 972 q 252 918 309 972 q 195 787 195 865 q 216 703 195 739 q 281 644 238 667 q 444 595 324 621 q 679 522 611 559 q 779 428 746 484 q 812 295 812 371 q 721 70 812 159 q 486 -19 630 -19 q 216 81 330 -19 l 139 -12 l 90 -12 l 90 376 l 139 376 q 267 123 168 216 q 490 30 366 30 q 653 89 590 30 q 717 233 717 149 q 693 318 717 281 q 618 379 669 354 q 415 439 566 404 q 189 527 249 478 q 104 723 104 596 q 188 940 104 855 q 404 1024 273 1024 q 524 1002 467 1024 q 642 927 581 979 m 423 1348 l 479 1348 l 641 1114 l 597 1114 l 450 1249 l 305 1114 l 262 1114 l 423 1348 z "},"ŝ":{"ha":643,"x_min":77,"x_max":585,"o":"m 121 239 q 218 77 163 122 q 353 32 273 32 q 466 64 427 32 q 506 146 506 96 q 491 196 506 174 q 451 228 477 217 q 317 258 425 238 q 174 301 214 279 q 110 363 133 323 q 87 448 87 402 q 134 575 87 518 q 303 648 195 648 q 456 595 386 648 l 501 643 l 529 643 l 547 416 l 501 416 q 420 555 471 513 q 295 597 370 597 q 194 566 231 597 q 157 489 157 534 q 191 422 157 449 q 321 380 224 395 q 468 348 434 361 q 554 285 524 328 q 585 182 585 243 q 518 39 585 98 q 351 -19 452 -19 q 176 43 256 -19 l 126 -14 l 90 -14 l 77 239 l 121 239 m 302 1015 l 358 1015 l 520 781 l 477 781 l 330 916 l 184 781 l 141 781 l 302 1015 z "},"Ŧ":{"ha":926,"x_min":39,"x_max":895,"o":"m 538 530 l 808 530 l 808 470 l 538 470 l 538 123 q 552 64 538 77 q 611 51 566 51 l 700 51 l 700 0 l 234 0 l 234 51 l 323 51 q 382 63 368 51 q 397 123 397 75 l 397 470 l 127 470 l 127 530 l 397 530 l 397 906 q 331 958 397 958 q 89 624 136 958 l 39 624 l 61 1003 l 875 1003 l 895 624 l 848 624 q 606 958 801 958 q 549 942 559 958 q 538 900 538 926 l 538 530 z "},"ŧ":{"ha":541,"x_min":35,"x_max":509,"o":"m 258 426 l 464 426 l 464 378 l 258 378 l 258 165 q 285 83 258 109 q 347 56 311 56 q 428 102 395 56 q 464 240 460 147 l 509 240 q 452 52 507 113 q 313 -9 396 -9 q 193 30 240 -9 q 145 146 145 70 l 145 378 l 35 378 l 35 426 l 145 426 l 145 573 l 35 573 l 35 621 q 212 895 201 643 l 258 895 l 258 635 l 464 635 l 464 573 l 258 573 l 258 426 z "},"Ũ":{"ha":1132,"x_min":37,"x_max":1105,"o":"m 37 1003 l 500 1003 l 500 952 l 407 952 q 355 940 370 952 q 340 903 340 928 l 340 336 q 355 202 340 248 q 440 95 378 135 q 600 55 501 55 q 809 126 737 55 q 881 315 881 197 l 881 776 q 872 868 881 837 q 848 918 864 900 q 808 944 832 935 q 726 952 783 952 l 726 1003 l 1105 1003 l 1105 952 l 1078 952 q 983 918 1015 952 q 952 819 952 884 l 952 326 q 860 78 952 164 q 584 -19 756 -19 q 349 23 435 -19 q 225 145 264 66 q 196 297 196 205 l 196 903 q 180 939 196 926 q 132 952 164 952 l 37 952 l 37 1003 m 778 1278 l 801 1278 q 762 1165 800 1206 q 667 1123 723 1123 q 528 1158 625 1123 q 432 1183 456 1183 q 365 1123 382 1183 l 342 1123 q 477 1276 356 1276 q 606 1246 522 1276 q 712 1216 691 1216 q 778 1278 760 1216 z "}}}
